  0
SECTION
  2
HEADER
  9
$ACADVER
  1
AC1014
  9
$HANDSEED
  5
FFFF
  9
$MEASUREMENT
 70
     1
  0
ENDSEC
  0
SECTION
  2
TABLES
  0
TABLE
  2
VPORT
  5
8
330
0
100
AcDbSymbolTable
 70
     4
  0
VPORT
  5
2E
330
8
100
AcDbSymbolTableRecord
100
AcDbViewportTableRecord
  2
*ACTIVE
 70
     0
 10
0.0
 20
0.0
 11
1.0
 21
1.0
 12
210.0
 22
148.5
 13
0.0
 23
0.0
 14
10.0
 24
10.0
 15
10.0
 25
10.0
 16
0.0
 26
0.0
 36
1.0
 17
0.0
 27
0.0
 37
0.0
 40
341.0
 41
1.24
 42
50.0
 43
0.0
 44
0.0
 50
0.0
 51
0.0
 71
     0
 72
   100
 73
     1
 74
     3
 75
     0
 76
     0
 77
     0
 78
     0
  0
ENDTAB
  0
TABLE
  2
LTYPE
  5
5
330
0
100
AcDbSymbolTable
 70
     1
  0
LTYPE
  5
14
330
5
100
AcDbSymbolTableRecord
100
AcDbLinetypeTableRecord
  2
BYBLOCK
 70
     0
  3

 72
    65
 73
     0
 40
0.0
  0
LTYPE
  5
15
330
5
100
AcDbSymbolTableRecord
100
AcDbLinetypeTableRecord
  2
BYLAYER
 70
     0
  3

 72
    65
 73
     0
 40
0.0
  0
LTYPE
  5
16
330
5
100
AcDbSymbolTableRecord
100
AcDbLinetypeTableRecord
  2
CONTINUOUS
 70
     0
  3
Solid line
 72
    65
 73
     0
 40
0.0
  0
ENDTAB
  0
TABLE
  2
LAYER
  5
2
100
AcDbSymbolTable
 70
2
  0
LAYER
  5
50
100
AcDbSymbolTableRecord
100
AcDbLayerTableRecord
  2
0
 70
0
  6
CONTINUOUS
  0
LAYER
  5
51
100
AcDbSymbolTableRecord
100
AcDbLayerTableRecord
  2
Layer_1
 70
0
  6
CONTINUOUS
  0
ENDTAB
  0
TABLE
  2
STYLE
  5
3
330
0
100
AcDbSymbolTable
 70
     1
  0
STYLE
  5
11
330
3
100
AcDbSymbolTableRecord
100
AcDbTextStyleTableRecord
  2
STANDARD
 70
     0
 40
0.0
 41
1.0
 50
0.0
 71
     0
 42
2.5
  3
txt
  4

  0
ENDTAB
  0
TABLE
  2
VIEW
  5
6
330
0
100
AcDbSymbolTable
 70
     0
  0
ENDTAB
  0
TABLE
  2
UCS
  5
7
330
0
100
AcDbSymbolTable
 70
     0
  0
ENDTAB
  0
TABLE
  2
APPID
  5
9
330
0
100
AcDbSymbolTable
 70
     2
  0
APPID
  5
12
330
9
100
AcDbSymbolTableRecord
100
AcDbRegAppTableRecord
  2
ACAD
 70
     0
  0
ENDTAB
  0
TABLE
  2
DIMSTYLE
  5
A
330
0
100
AcDbSymbolTable
 70
     1
  0
DIMSTYLE
105
27
330
A
100
AcDbSymbolTableRecord
100
AcDbDimStyleTableRecord
  2
ISO-25
 70
     0
  3

  4

  5

  6

  7

 40
1.0
 41
2.5
 42
0.625
 43
3.75
 44
1.25
 45
0.0
 46
0.0
 47
0.0
 48
0.0
140
2.5
141
2.5
142
0.0
143
0.03937007874016
144
1.0
145
0.0
146
1.0
147
0.625
 71
     0
 72
     0
 73
     0
 74
     0
 75
     0
 76
     0
 77
     1
 78
     8
170
     0
171
     3
172
     1
173
     0
174
     0
175
     0
176
     0
177
     0
178
     0
270
     2
271
     2
272
     2
273
     2
274
     3
340
11
275
     0
280
     0
281
     0
282
     0
283
     0
284
     8
285
     0
286
     0
287
     3
288
     0
  0
ENDTAB
  0
TABLE
  2
BLOCK_RECORD
  5
1
330
0
100
AcDbSymbolTable
 70
     1
  0
BLOCK_RECORD
  5
1F
330
1
100
AcDbSymbolTableRecord
100
AcDbBlockTableRecord
  2
*MODEL_SPACE
  0
BLOCK_RECORD
  5
1B
330
1
100
AcDbSymbolTableRecord
100
AcDbBlockTableRecord
  2
*PAPER_SPACE
  0
ENDTAB
  0
ENDSEC
  0
SECTION
  2
BLOCKS
  0
BLOCK
  5
20
330
1F
100
AcDbEntity
  8
0
100
AcDbBlockBegin
  2
*MODEL_SPACE
 70
     0
 10
0.0
 20
0.0
 30
0.0
  3
*MODEL_SPACE
  1

  0
ENDBLK
  5
21
330
1F
100
AcDbEntity
  8
0
100
AcDbBlockEnd
  0
BLOCK
  5
1C
330
1B
100
AcDbEntity
 67
     1
  8
0
100
AcDbBlockBegin
  2
*PAPER_SPACE
  1

  0
ENDBLK
  5
1D
330
1B
100
AcDbEntity
 67
     1
  8
0
100
AcDbBlockEnd
  0
ENDSEC
  0
SECTION
  2
ENTITIES
  0
LWPOLYLINE
  5
100
100
AcDbEntity
  8
Layer_1
 62
1
100
AcDbPolyline
 90
2
 70
0
 10
58.866807
 20
156.926002
 30
0.0
 10
58.866807
 20
123.980263
 30
0.0
  0
LWPOLYLINE
  5
101
100
AcDbEntity
  8
Layer_1
 62
1
100
AcDbPolyline
 90
2
 70
0
 10
63.589462
 20
156.926002
 30
0.0
 10
63.589462
 20
123.980263
 30
0.0
  0
LWPOLYLINE
  5
102
100
AcDbEntity
  8
Layer_1
 62
1
100
AcDbPolyline
 90
2
 70
0
 10
62.015343
 20
156.926002
 30
0.0
 10
62.015343
 20
123.980263
 30
0.0
  0
LWPOLYLINE
  5
103
100
AcDbEntity
  8
Layer_1
 62
1
100
AcDbPolyline
 90
2
 70
0
 10
60.441073
 20
156.926002
 30
0.0
 10
60.441073
 20
123.980263
 30
0.0
  0
LWPOLYLINE
  5
104
100
AcDbEntity
  8
Layer_1
 62
1
100
AcDbPolyline
 90
2
 70
0
 10
69.886086
 20
156.926002
 30
0.0
 10
69.886012
 20
123.980263
 30
0.0
  0
LWPOLYLINE
  5
105
100
AcDbEntity
  8
Layer_1
 62
1
100
AcDbPolyline
 90
2
 70
0
 10
71.460657
 20
156.926002
 30
0.0
 10
71.460508
 20
123.980263
 30
0.0
  0
LWPOLYLINE
  5
106
100
AcDbEntity
  8
Layer_1
 62
1
100
AcDbPolyline
 90
2
 70
0
 10
68.312045
 20
156.926002
 30
0.0
 10
68.311969
 20
123.980263
 30
0.0
  0
LWPOLYLINE
  5
107
100
AcDbEntity
  8
Layer_1
 62
1
100
AcDbPolyline
 90
2
 70
0
 10
66.737849
 20
156.926002
 30
0.0
 10
66.737849
 20
123.980263
 30
0.0
  0
LWPOLYLINE
  5
108
100
AcDbEntity
  8
Layer_1
 62
1
100
AcDbPolyline
 90
2
 70
0
 10
65.163656
 20
156.926002
 30
0.0
 10
65.163656
 20
123.980263
 30
0.0
  0
LWPOLYLINE
  5
109
100
AcDbEntity
  8
Layer_1
 62
1
100
AcDbPolyline
 90
2
 70
0
 10
64.376295
 20
158.706875
 30
0.0
 10
64.376295
 20
141.788824
 30
0.0
  0
LWPOLYLINE
  5
10a
100
AcDbEntity
  8
Layer_1
 62
1
100
AcDbPolyline
 90
2
 70
0
 10
62.802252
 20
158.706875
 30
0.0
 10
62.802252
 20
141.788824
 30
0.0
  0
LWPOLYLINE
  5
10b
100
AcDbEntity
  8
Layer_1
 62
1
100
AcDbPolyline
 90
2
 70
0
 10
61.227982
 20
158.706875
 30
0.0
 10
61.227982
 20
141.788824
 30
0.0
  0
LWPOLYLINE
  5
10c
100
AcDbEntity
  8
Layer_1
 62
1
100
AcDbPolyline
 90
2
 70
0
 10
59.654167
 20
158.706875
 30
0.0
 10
59.654167
 20
141.788824
 30
0.0
  0
LWPOLYLINE
  5
10d
100
AcDbEntity
  8
Layer_1
 62
1
100
AcDbPolyline
 90
2
 70
0
 10
70.673220
 20
158.706875
 30
0.0
 10
70.673220
 20
141.788824
 30
0.0
  0
LWPOLYLINE
  5
10e
100
AcDbEntity
  8
Layer_1
 62
1
100
AcDbPolyline
 90
2
 70
0
 10
72.247490
 20
158.706875
 30
0.0
 10
72.247416
 20
141.788824
 30
0.0
  0
LWPOLYLINE
  5
10f
100
AcDbEntity
  8
Layer_1
 62
1
100
AcDbPolyline
 90
2
 70
0
 10
69.099253
 20
158.706875
 30
0.0
 10
69.099027
 20
141.788824
 30
0.0
  0
LWPOLYLINE
  5
110
100
AcDbEntity
  8
Layer_1
 62
1
100
AcDbPolyline
 90
2
 70
0
 10
67.524834
 20
158.706875
 30
0.0
 10
67.524834
 20
141.788824
 30
0.0
  0
LWPOLYLINE
  5
111
100
AcDbEntity
  8
Layer_1
 62
1
100
AcDbPolyline
 90
2
 70
0
 10
62.802252
 20
138.758934
 30
0.0
 10
62.802252
 20
121.840584
 30
0.0
  0
LWPOLYLINE
  5
112
100
AcDbEntity
  8
Layer_1
 62
1
100
AcDbPolyline
 90
2
 70
0
 10
61.227982
 20
138.758934
 30
0.0
 10
61.227982
 20
121.840584
 30
0.0
  0
LWPOLYLINE
  5
113
100
AcDbEntity
  8
Layer_1
 62
1
100
AcDbPolyline
 90
2
 70
0
 10
59.654167
 20
138.758934
 30
0.0
 10
59.654167
 20
121.840584
 30
0.0
  0
LWPOLYLINE
  5
114
100
AcDbEntity
  8
Layer_1
 62
1
100
AcDbPolyline
 90
2
 70
0
 10
69.099027
 20
138.758934
 30
0.0
 10
69.099027
 20
121.840584
 30
0.0
  0
LWPOLYLINE
  5
115
100
AcDbEntity
  8
Layer_1
 62
1
100
AcDbPolyline
 90
2
 70
0
 10
72.247416
 20
138.758934
 30
0.0
 10
72.247416
 20
121.840584
 30
0.0
  0
LWPOLYLINE
  5
116
100
AcDbEntity
  8
Layer_1
 62
1
100
AcDbPolyline
 90
2
 70
0
 10
70.673220
 20
138.758934
 30
0.0
 10
70.673220
 20
121.840584
 30
0.0
  0
LWPOLYLINE
  5
117
100
AcDbEntity
  8
Layer_1
 62
1
100
AcDbPolyline
 90
2
 70
0
 10
67.524834
 20
138.758934
 30
0.0
 10
67.524834
 20
121.840584
 30
0.0
  0
LWPOLYLINE
  5
118
100
AcDbEntity
  8
Layer_1
 62
1
100
AcDbPolyline
 90
2
 70
0
 10
65.951016
 20
138.758934
 30
0.0
 10
65.951016
 20
121.840584
 30
0.0
  0
LWPOLYLINE
  5
119
100
AcDbEntity
  8
Layer_1
 62
1
100
AcDbPolyline
 90
2
 70
0
 10
64.376295
 20
138.758934
 30
0.0
 10
64.376295
 20
121.840584
 30
0.0
  0
LWPOLYLINE
  5
11a
100
AcDbEntity
  8
Layer_1
 62
1
100
AcDbPolyline
 90
2
 70
0
 10
65.951016
 20
158.706875
 30
0.0
 10
65.951016
 20
141.788824
 30
0.0
  0
LWPOLYLINE
  5
11b
100
AcDbEntity
  8
Layer_1
 62
1
100
AcDbPolyline
 90
2
 70
0
 10
109.110171
 20
156.910957
 30
0.0
 10
109.110171
 20
123.965139
 30
0.0
  0
LWPOLYLINE
  5
11c
100
AcDbEntity
  8
Layer_1
 62
1
100
AcDbPolyline
 90
2
 70
0
 10
113.832751
 20
156.910957
 30
0.0
 10
113.832751
 20
123.965139
 30
0.0
  0
LWPOLYLINE
  5
11d
100
AcDbEntity
  8
Layer_1
 62
1
100
AcDbPolyline
 90
2
 70
0
 10
112.258707
 20
156.910957
 30
0.0
 10
112.258707
 20
123.965139
 30
0.0
  0
LWPOLYLINE
  5
11e
100
AcDbEntity
  8
Layer_1
 62
1
100
AcDbPolyline
 90
2
 70
0
 10
110.684438
 20
156.910957
 30
0.0
 10
110.684438
 20
123.965139
 30
0.0
  0
LWPOLYLINE
  5
11f
100
AcDbEntity
  8
Layer_1
 62
1
100
AcDbPolyline
 90
2
 70
0
 10
120.129527
 20
156.910957
 30
0.0
 10
120.129377
 20
123.965139
 30
0.0
  0
LWPOLYLINE
  5
120
100
AcDbEntity
  8
Layer_1
 62
1
100
AcDbPolyline
 90
2
 70
0
 10
121.704022
 20
156.910957
 30
0.0
 10
121.703872
 20
123.965139
 30
0.0
  0
LWPOLYLINE
  5
121
100
AcDbEntity
  8
Layer_1
 62
1
100
AcDbPolyline
 90
2
 70
0
 10
118.555410
 20
156.910957
 30
0.0
 10
118.555257
 20
123.965139
 30
0.0
  0
LWPOLYLINE
  5
122
100
AcDbEntity
  8
Layer_1
 62
1
100
AcDbPolyline
 90
2
 70
0
 10
116.981140
 20
156.910957
 30
0.0
 10
116.981140
 20
123.965139
 30
0.0
  0
LWPOLYLINE
  5
123
100
AcDbEntity
  8
Layer_1
 62
1
100
AcDbPolyline
 90
2
 70
0
 10
115.407020
 20
156.910957
 30
0.0
 10
115.407020
 20
123.965139
 30
0.0
  0
LWPOLYLINE
  5
124
100
AcDbEntity
  8
Layer_1
 62
1
100
AcDbPolyline
 90
2
 70
0
 10
114.619736
 20
158.691827
 30
0.0
 10
114.619736
 20
141.773776
 30
0.0
  0
LWPOLYLINE
  5
125
100
AcDbEntity
  8
Layer_1
 62
1
100
AcDbPolyline
 90
2
 70
0
 10
113.045616
 20
158.691827
 30
0.0
 10
113.045616
 20
141.773776
 30
0.0
  0
LWPOLYLINE
  5
126
100
AcDbEntity
  8
Layer_1
 62
1
100
AcDbPolyline
 90
2
 70
0
 10
111.471347
 20
158.691827
 30
0.0
 10
111.471347
 20
141.773776
 30
0.0
  0
LWPOLYLINE
  5
127
100
AcDbEntity
  8
Layer_1
 62
1
100
AcDbPolyline
 90
2
 70
0
 10
109.897532
 20
158.691827
 30
0.0
 10
109.897532
 20
141.773776
 30
0.0
  0
LWPOLYLINE
  5
128
100
AcDbEntity
  8
Layer_1
 62
1
100
AcDbPolyline
 90
2
 70
0
 10
120.916585
 20
158.691827
 30
0.0
 10
120.916512
 20
141.773776
 30
0.0
  0
LWPOLYLINE
  5
129
100
AcDbEntity
  8
Layer_1
 62
1
100
AcDbPolyline
 90
2
 70
0
 10
122.490855
 20
158.691827
 30
0.0
 10
122.490781
 20
141.773776
 30
0.0
  0
LWPOLYLINE
  5
12a
100
AcDbEntity
  8
Layer_1
 62
1
100
AcDbPolyline
 90
2
 70
0
 10
119.342541
 20
158.691827
 30
0.0
 10
119.342468
 20
141.773776
 30
0.0
  0
LWPOLYLINE
  5
12b
100
AcDbEntity
  8
Layer_1
 62
1
100
AcDbPolyline
 90
2
 70
0
 10
117.768275
 20
158.691827
 30
0.0
 10
117.768199
 20
141.773776
 30
0.0
  0
LWPOLYLINE
  5
12c
100
AcDbEntity
  8
Layer_1
 62
1
100
AcDbPolyline
 90
2
 70
0
 10
113.045616
 20
138.743962
 30
0.0
 10
113.045616
 20
121.825536
 30
0.0
  0
LWPOLYLINE
  5
12d
100
AcDbEntity
  8
Layer_1
 62
1
100
AcDbPolyline
 90
2
 70
0
 10
111.471347
 20
138.743962
 30
0.0
 10
111.471347
 20
121.825536
 30
0.0
  0
LWPOLYLINE
  5
12e
100
AcDbEntity
  8
Layer_1
 62
1
100
AcDbPolyline
 90
2
 70
0
 10
109.897532
 20
138.743962
 30
0.0
 10
109.897532
 20
121.825536
 30
0.0
  0
LWPOLYLINE
  5
12f
100
AcDbEntity
  8
Layer_1
 62
1
100
AcDbPolyline
 90
2
 70
0
 10
119.342468
 20
138.743962
 30
0.0
 10
119.342468
 20
121.825536
 30
0.0
  0
LWPOLYLINE
  5
130
100
AcDbEntity
  8
Layer_1
 62
1
100
AcDbPolyline
 90
2
 70
0
 10
122.490781
 20
138.743962
 30
0.0
 10
122.490781
 20
121.825536
 30
0.0
  0
LWPOLYLINE
  5
131
100
AcDbEntity
  8
Layer_1
 62
1
100
AcDbPolyline
 90
2
 70
0
 10
120.916512
 20
138.743962
 30
0.0
 10
120.916512
 20
121.825536
 30
0.0
  0
LWPOLYLINE
  5
132
100
AcDbEntity
  8
Layer_1
 62
1
100
AcDbPolyline
 90
2
 70
0
 10
117.768199
 20
138.743962
 30
0.0
 10
117.768199
 20
121.825536
 30
0.0
  0
LWPOLYLINE
  5
133
100
AcDbEntity
  8
Layer_1
 62
1
100
AcDbPolyline
 90
2
 70
0
 10
116.194381
 20
138.743962
 30
0.0
 10
116.194381
 20
121.825536
 30
0.0
  0
LWPOLYLINE
  5
134
100
AcDbEntity
  8
Layer_1
 62
1
100
AcDbPolyline
 90
2
 70
0
 10
114.619736
 20
138.743962
 30
0.0
 10
114.619736
 20
121.825536
 30
0.0
  0
LWPOLYLINE
  5
135
100
AcDbEntity
  8
Layer_1
 62
1
100
AcDbPolyline
 90
2
 70
0
 10
116.194381
 20
158.691827
 30
0.0
 10
116.194381
 20
141.773776
 30
0.0
  0
LWPOLYLINE
  5
136
100
AcDbEntity
  8
Layer_1
 62
1
100
AcDbPolyline
 90
2
 70
0
 10
74.028888
 20
158.732981
 30
0.0
 10
106.974706
 20
158.732981
 30
0.0
  0
LWPOLYLINE
  5
137
100
AcDbEntity
  8
Layer_1
 62
1
100
AcDbPolyline
 90
2
 70
0
 10
74.028888
 20
163.455563
 30
0.0
 10
106.974706
 20
163.455563
 30
0.0
  0
LWPOLYLINE
  5
138
100
AcDbEntity
  8
Layer_1
 62
1
100
AcDbPolyline
 90
2
 70
0
 10
74.028888
 20
161.881519
 30
0.0
 10
106.974706
 20
161.881519
 30
0.0
  0
LWPOLYLINE
  5
139
100
AcDbEntity
  8
Layer_1
 62
1
100
AcDbPolyline
 90
2
 70
0
 10
74.028888
 20
160.307250
 30
0.0
 10
106.974706
 20
160.307250
 30
0.0
  0
LWPOLYLINE
  5
13a
100
AcDbEntity
  8
Layer_1
 62
1
100
AcDbPolyline
 90
2
 70
0
 10
74.028888
 20
169.752339
 30
0.0
 10
106.974706
 20
169.752186
 30
0.0
  0
LWPOLYLINE
  5
13b
100
AcDbEntity
  8
Layer_1
 62
1
100
AcDbPolyline
 90
2
 70
0
 10
74.028888
 20
171.326834
 30
0.0
 10
106.974706
 20
171.326682
 30
0.0
  0
LWPOLYLINE
  5
13c
100
AcDbEntity
  8
Layer_1
 62
1
100
AcDbPolyline
 90
2
 70
0
 10
74.028888
 20
168.178219
 30
0.0
 10
106.974706
 20
168.178069
 30
0.0
  0
LWPOLYLINE
  5
13d
100
AcDbEntity
  8
Layer_1
 62
1
100
AcDbPolyline
 90
2
 70
0
 10
74.028888
 20
166.603949
 30
0.0
 10
106.974706
 20
166.603949
 30
0.0
  0
LWPOLYLINE
  5
13e
100
AcDbEntity
  8
Layer_1
 62
1
100
AcDbPolyline
 90
2
 70
0
 10
74.028888
 20
165.029832
 30
0.0
 10
106.974706
 20
165.029832
 30
0.0
  0
LWPOLYLINE
  5
13f
100
AcDbEntity
  8
Layer_1
 62
1
100
AcDbPolyline
 90
2
 70
0
 10
72.248018
 20
164.242548
 30
0.0
 10
89.166069
 20
164.242548
 30
0.0
  0
LWPOLYLINE
  5
140
100
AcDbEntity
  8
Layer_1
 62
1
100
AcDbPolyline
 90
2
 70
0
 10
72.248018
 20
162.668428
 30
0.0
 10
89.166069
 20
162.668428
 30
0.0
  0
LWPOLYLINE
  5
141
100
AcDbEntity
  8
Layer_1
 62
1
100
AcDbPolyline
 90
2
 70
0
 10
72.248018
 20
161.094159
 30
0.0
 10
89.166069
 20
161.094159
 30
0.0
  0
LWPOLYLINE
  5
142
100
AcDbEntity
  8
Layer_1
 62
1
100
AcDbPolyline
 90
2
 70
0
 10
72.248018
 20
159.520341
 30
0.0
 10
89.166069
 20
159.520341
 30
0.0
  0
LWPOLYLINE
  5
143
100
AcDbEntity
  8
Layer_1
 62
1
100
AcDbPolyline
 90
2
 70
0
 10
72.248018
 20
170.539397
 30
0.0
 10
89.166069
 20
170.539321
 30
0.0
  0
LWPOLYLINE
  5
144
100
AcDbEntity
  8
Layer_1
 62
1
100
AcDbPolyline
 90
2
 70
0
 10
72.248018
 20
172.113667
 30
0.0
 10
89.166069
 20
172.113590
 30
0.0
  0
LWPOLYLINE
  5
145
100
AcDbEntity
  8
Layer_1
 62
1
100
AcDbPolyline
 90
2
 70
0
 10
72.248018
 20
168.965354
 30
0.0
 10
89.166069
 20
168.965277
 30
0.0
  0
LWPOLYLINE
  5
146
100
AcDbEntity
  8
Layer_1
 62
1
100
AcDbPolyline
 90
2
 70
0
 10
72.248018
 20
167.391084
 30
0.0
 10
89.166069
 20
167.391011
 30
0.0
  0
LWPOLYLINE
  5
147
100
AcDbEntity
  8
Layer_1
 62
1
100
AcDbPolyline
 90
2
 70
0
 10
92.195882
 20
162.668428
 30
0.0
 10
109.114309
 20
162.668428
 30
0.0
  0
LWPOLYLINE
  5
148
100
AcDbEntity
  8
Layer_1
 62
1
100
AcDbPolyline
 90
2
 70
0
 10
92.195882
 20
161.094159
 30
0.0
 10
109.114309
 20
161.094159
 30
0.0
  0
LWPOLYLINE
  5
149
100
AcDbEntity
  8
Layer_1
 62
1
100
AcDbPolyline
 90
2
 70
0
 10
92.195882
 20
159.520341
 30
0.0
 10
109.114309
 20
159.520341
 30
0.0
  0
LWPOLYLINE
  5
14a
100
AcDbEntity
  8
Layer_1
 62
1
100
AcDbPolyline
 90
2
 70
0
 10
92.195882
 20
168.965277
 30
0.0
 10
109.114309
 20
168.965277
 30
0.0
  0
LWPOLYLINE
  5
14b
100
AcDbEntity
  8
Layer_1
 62
1
100
AcDbPolyline
 90
2
 70
0
 10
92.195882
 20
172.113590
 30
0.0
 10
109.114309
 20
172.113590
 30
0.0
  0
LWPOLYLINE
  5
14c
100
AcDbEntity
  8
Layer_1
 62
1
100
AcDbPolyline
 90
2
 70
0
 10
92.195882
 20
170.539321
 30
0.0
 10
109.114309
 20
170.539321
 30
0.0
  0
LWPOLYLINE
  5
14d
100
AcDbEntity
  8
Layer_1
 62
1
100
AcDbPolyline
 90
2
 70
0
 10
92.195882
 20
167.391011
 30
0.0
 10
109.114309
 20
167.391011
 30
0.0
  0
LWPOLYLINE
  5
14e
100
AcDbEntity
  8
Layer_1
 62
1
100
AcDbPolyline
 90
2
 70
0
 10
92.195882
 20
165.817193
 30
0.0
 10
109.114309
 20
165.817193
 30
0.0
  0
LWPOLYLINE
  5
14f
100
AcDbEntity
  8
Layer_1
 62
1
100
AcDbPolyline
 90
2
 70
0
 10
92.195882
 20
164.242548
 30
0.0
 10
109.114309
 20
164.242548
 30
0.0
  0
LWPOLYLINE
  5
150
100
AcDbEntity
  8
Layer_1
 62
1
100
AcDbPolyline
 90
2
 70
0
 10
72.248018
 20
165.817193
 30
0.0
 10
89.166069
 20
165.817193
 30
0.0
  0
LWPOLYLINE
  5
151
100
AcDbEntity
  8
Layer_1
 62
1
100
AcDbPolyline
 90
2
 70
0
 10
23.759567
 20
158.733584
 30
0.0
 10
56.705382
 20
158.733584
 30
0.0
  0
LWPOLYLINE
  5
152
100
AcDbEntity
  8
Layer_1
 62
1
100
AcDbPolyline
 90
2
 70
0
 10
23.759567
 20
163.456164
 30
0.0
 10
56.705382
 20
163.456164
 30
0.0
  0
LWPOLYLINE
  5
153
100
AcDbEntity
  8
Layer_1
 62
1
100
AcDbPolyline
 90
2
 70
0
 10
23.759567
 20
161.882120
 30
0.0
 10
56.705382
 20
161.882120
 30
0.0
  0
LWPOLYLINE
  5
154
100
AcDbEntity
  8
Layer_1
 62
1
100
AcDbPolyline
 90
2
 70
0
 10
23.759567
 20
160.307854
 30
0.0
 10
56.705382
 20
160.307854
 30
0.0
  0
LWPOLYLINE
  5
155
100
AcDbEntity
  8
Layer_1
 62
1
100
AcDbPolyline
 90
2
 70
0
 10
23.759567
 20
169.752940
 30
0.0
 10
56.705382
 20
169.752790
 30
0.0
  0
LWPOLYLINE
  5
156
100
AcDbEntity
  8
Layer_1
 62
1
100
AcDbPolyline
 90
2
 70
0
 10
23.759567
 20
171.327435
 30
0.0
 10
56.705382
 20
171.327285
 30
0.0
  0
LWPOLYLINE
  5
157
100
AcDbEntity
  8
Layer_1
 62
1
100
AcDbPolyline
 90
2
 70
0
 10
23.759567
 20
168.178820
 30
0.0
 10
56.705382
 20
168.178670
 30
0.0
  0
LWPOLYLINE
  5
158
100
AcDbEntity
  8
Layer_1
 62
1
100
AcDbPolyline
 90
2
 70
0
 10
23.759567
 20
166.604553
 30
0.0
 10
56.705382
 20
166.604553
 30
0.0
  0
LWPOLYLINE
  5
159
100
AcDbEntity
  8
Layer_1
 62
1
100
AcDbPolyline
 90
2
 70
0
 10
23.759567
 20
165.030434
 30
0.0
 10
56.705382
 20
165.030434
 30
0.0
  0
LWPOLYLINE
  5
15a
100
AcDbEntity
  8
Layer_1
 62
1
100
AcDbPolyline
 90
2
 70
0
 10
21.978696
 20
164.243149
 30
0.0
 10
38.896748
 20
164.243149
 30
0.0
  0
LWPOLYLINE
  5
15b
100
AcDbEntity
  8
Layer_1
 62
1
100
AcDbPolyline
 90
2
 70
0
 10
21.978696
 20
162.669029
 30
0.0
 10
38.896748
 20
162.669029
 30
0.0
  0
LWPOLYLINE
  5
15c
100
AcDbEntity
  8
Layer_1
 62
1
100
AcDbPolyline
 90
2
 70
0
 10
21.978696
 20
161.094760
 30
0.0
 10
38.896748
 20
161.094760
 30
0.0
  0
LWPOLYLINE
  5
15d
100
AcDbEntity
  8
Layer_1
 62
1
100
AcDbPolyline
 90
2
 70
0
 10
21.978696
 20
159.520945
 30
0.0
 10
38.896748
 20
159.520945
 30
0.0
  0
LWPOLYLINE
  5
15e
100
AcDbEntity
  8
Layer_1
 62
1
100
AcDbPolyline
 90
2
 70
0
 10
21.978696
 20
170.539998
 30
0.0
 10
38.896748
 20
170.539925
 30
0.0
  0
LWPOLYLINE
  5
15f
100
AcDbEntity
  8
Layer_1
 62
1
100
AcDbPolyline
 90
2
 70
0
 10
21.978696
 20
168.965958
 30
0.0
 10
38.896748
 20
168.965881
 30
0.0
  0
LWPOLYLINE
  5
160
100
AcDbEntity
  8
Layer_1
 62
1
100
AcDbPolyline
 90
2
 70
0
 10
21.978696
 20
167.391688
 30
0.0
 10
38.896748
 20
167.391612
 30
0.0
  0
LWPOLYLINE
  5
161
100
AcDbEntity
  8
Layer_1
 62
1
100
AcDbPolyline
 90
2
 70
0
 10
41.926559
 20
162.669029
 30
0.0
 10
58.844985
 20
162.669029
 30
0.0
  0
LWPOLYLINE
  5
162
100
AcDbEntity
  8
Layer_1
 62
1
100
AcDbPolyline
 90
2
 70
0
 10
41.926559
 20
161.094760
 30
0.0
 10
58.844985
 20
161.094760
 30
0.0
  0
LWPOLYLINE
  5
163
100
AcDbEntity
  8
Layer_1
 62
1
100
AcDbPolyline
 90
2
 70
0
 10
41.926559
 20
159.520945
 30
0.0
 10
58.844985
 20
159.520945
 30
0.0
  0
LWPOLYLINE
  5
164
100
AcDbEntity
  8
Layer_1
 62
1
100
AcDbPolyline
 90
2
 70
0
 10
41.926559
 20
168.965881
 30
0.0
 10
58.844985
 20
168.965881
 30
0.0
  0
LWPOLYLINE
  5
165
100
AcDbEntity
  8
Layer_1
 62
1
100
AcDbPolyline
 90
2
 70
0
 10
41.926559
 20
170.539925
 30
0.0
 10
58.844985
 20
170.539925
 30
0.0
  0
LWPOLYLINE
  5
166
100
AcDbEntity
  8
Layer_1
 62
1
100
AcDbPolyline
 90
2
 70
0
 10
41.926559
 20
167.391612
 30
0.0
 10
58.844985
 20
167.391612
 30
0.0
  0
LWPOLYLINE
  5
167
100
AcDbEntity
  8
Layer_1
 62
1
100
AcDbPolyline
 90
2
 70
0
 10
41.926559
 20
165.817794
 30
0.0
 10
58.844985
 20
165.817794
 30
0.0
  0
LWPOLYLINE
  5
168
100
AcDbEntity
  8
Layer_1
 62
1
100
AcDbPolyline
 90
2
 70
0
 10
41.926559
 20
164.243149
 30
0.0
 10
58.844985
 20
164.243149
 30
0.0
  0
LWPOLYLINE
  5
169
100
AcDbEntity
  8
Layer_1
 62
1
100
AcDbPolyline
 90
2
 70
0
 10
21.978696
 20
165.817794
 30
0.0
 10
38.896748
 20
165.817794
 30
0.0
  0
LWPOLYLINE
  5
16a
100
AcDbEntity
  8
Layer_1
 62
7
100
AcDbPolyline
 90
7
 70
0
 10
58.872598
 20
158.735690
 30
0.0
 10
72.253586
 20
158.735690
 30
0.0
 10
72.253586
 20
172.116675
 30
0.0
 10
58.872598
 20
172.116675
 30
0.0
 10
58.872598
 20
158.735690
 30
0.0
 10
58.872598
 20
158.735690
 30
0.0
 10
58.872598
 20
158.735690
 30
0.0
  0
LWPOLYLINE
  5
16b
100
AcDbEntity
  8
Layer_1
 62
7
100
AcDbPolyline
 90
7
 70
0
 10
109.112051
 20
158.728166
 30
0.0
 10
122.493036
 20
158.728166
 30
0.0
 10
122.493036
 20
172.109151
 30
0.0
 10
109.112051
 20
172.109151
 30
0.0
 10
109.112051
 20
158.728166
 30
0.0
 10
109.112051
 20
158.728166
 30
0.0
 10
109.112051
 20
158.728166
 30
0.0
  0
LWPOLYLINE
  5
16c
100
AcDbEntity
  8
Layer_1
 62
1
100
AcDbPolyline
 90
2
 70
0
 10
109.118144
 20
207.211124
 30
0.0
 10
109.118144
 20
174.265309
 30
0.0
  0
LWPOLYLINE
  5
16d
100
AcDbEntity
  8
Layer_1
 62
1
100
AcDbPolyline
 90
2
 70
0
 10
113.840726
 20
207.211124
 30
0.0
 10
113.840726
 20
174.265309
 30
0.0
  0
LWPOLYLINE
  5
16e
100
AcDbEntity
  8
Layer_1
 62
1
100
AcDbPolyline
 90
2
 70
0
 10
112.266683
 20
207.211124
 30
0.0
 10
112.266683
 20
174.265309
 30
0.0
  0
LWPOLYLINE
  5
16f
100
AcDbEntity
  8
Layer_1
 62
1
100
AcDbPolyline
 90
2
 70
0
 10
110.692413
 20
207.211124
 30
0.0
 10
110.692413
 20
174.265309
 30
0.0
  0
LWPOLYLINE
  5
170
100
AcDbEntity
  8
Layer_1
 62
1
100
AcDbPolyline
 90
2
 70
0
 10
120.137502
 20
207.211124
 30
0.0
 10
120.137353
 20
174.265309
 30
0.0
  0
LWPOLYLINE
  5
171
100
AcDbEntity
  8
Layer_1
 62
1
100
AcDbPolyline
 90
2
 70
0
 10
121.711997
 20
207.211124
 30
0.0
 10
121.711845
 20
174.265309
 30
0.0
  0
LWPOLYLINE
  5
172
100
AcDbEntity
  8
Layer_1
 62
1
100
AcDbPolyline
 90
2
 70
0
 10
118.563382
 20
207.211124
 30
0.0
 10
118.563233
 20
174.265309
 30
0.0
  0
LWPOLYLINE
  5
173
100
AcDbEntity
  8
Layer_1
 62
1
100
AcDbPolyline
 90
2
 70
0
 10
116.989116
 20
207.211124
 30
0.0
 10
116.989116
 20
174.265309
 30
0.0
  0
LWPOLYLINE
  5
174
100
AcDbEntity
  8
Layer_1
 62
1
100
AcDbPolyline
 90
2
 70
0
 10
115.414996
 20
207.211124
 30
0.0
 10
115.414996
 20
174.265309
 30
0.0
  0
LWPOLYLINE
  5
175
100
AcDbEntity
  8
Layer_1
 62
1
100
AcDbPolyline
 90
2
 70
0
 10
114.627712
 20
208.991994
 30
0.0
 10
114.627712
 20
192.073946
 30
0.0
  0
LWPOLYLINE
  5
176
100
AcDbEntity
  8
Layer_1
 62
1
100
AcDbPolyline
 90
2
 70
0
 10
113.053592
 20
208.991994
 30
0.0
 10
113.053592
 20
192.073946
 30
0.0
  0
LWPOLYLINE
  5
177
100
AcDbEntity
  8
Layer_1
 62
1
100
AcDbPolyline
 90
2
 70
0
 10
111.479322
 20
208.991994
 30
0.0
 10
111.479322
 20
192.073946
 30
0.0
  0
LWPOLYLINE
  5
178
100
AcDbEntity
  8
Layer_1
 62
1
100
AcDbPolyline
 90
2
 70
0
 10
109.905504
 20
208.991994
 30
0.0
 10
109.905504
 20
192.073946
 30
0.0
  0
LWPOLYLINE
  5
179
100
AcDbEntity
  8
Layer_1
 62
1
100
AcDbPolyline
 90
2
 70
0
 10
120.924561
 20
208.991994
 30
0.0
 10
120.924487
 20
192.073946
 30
0.0
  0
LWPOLYLINE
  5
17a
100
AcDbEntity
  8
Layer_1
 62
1
100
AcDbPolyline
 90
2
 70
0
 10
119.350517
 20
208.991994
 30
0.0
 10
119.350444
 20
192.073946
 30
0.0
  0
LWPOLYLINE
  5
17b
100
AcDbEntity
  8
Layer_1
 62
1
100
AcDbPolyline
 90
2
 70
0
 10
117.776250
 20
208.991994
 30
0.0
 10
117.776174
 20
192.073946
 30
0.0
  0
LWPOLYLINE
  5
17c
100
AcDbEntity
  8
Layer_1
 62
1
100
AcDbPolyline
 90
2
 70
0
 10
113.053592
 20
189.044133
 30
0.0
 10
113.053592
 20
172.125703
 30
0.0
  0
LWPOLYLINE
  5
17d
100
AcDbEntity
  8
Layer_1
 62
1
100
AcDbPolyline
 90
2
 70
0
 10
111.479322
 20
189.044133
 30
0.0
 10
111.479322
 20
172.125703
 30
0.0
  0
LWPOLYLINE
  5
17e
100
AcDbEntity
  8
Layer_1
 62
1
100
AcDbPolyline
 90
2
 70
0
 10
109.905504
 20
189.044133
 30
0.0
 10
109.905504
 20
172.125703
 30
0.0
  0
LWPOLYLINE
  5
17f
100
AcDbEntity
  8
Layer_1
 62
1
100
AcDbPolyline
 90
2
 70
0
 10
119.350444
 20
189.044133
 30
0.0
 10
119.350444
 20
172.125703
 30
0.0
  0
LWPOLYLINE
  5
180
100
AcDbEntity
  8
Layer_1
 62
1
100
AcDbPolyline
 90
2
 70
0
 10
120.924487
 20
189.044133
 30
0.0
 10
120.924487
 20
172.125703
 30
0.0
  0
LWPOLYLINE
  5
181
100
AcDbEntity
  8
Layer_1
 62
1
100
AcDbPolyline
 90
2
 70
0
 10
117.776174
 20
189.044133
 30
0.0
 10
117.776174
 20
172.125703
 30
0.0
  0
LWPOLYLINE
  5
182
100
AcDbEntity
  8
Layer_1
 62
1
100
AcDbPolyline
 90
2
 70
0
 10
116.202356
 20
189.044133
 30
0.0
 10
116.202356
 20
172.125703
 30
0.0
  0
LWPOLYLINE
  5
183
100
AcDbEntity
  8
Layer_1
 62
1
100
AcDbPolyline
 90
2
 70
0
 10
114.627712
 20
189.044133
 30
0.0
 10
114.627712
 20
172.125703
 30
0.0
  0
LWPOLYLINE
  5
184
100
AcDbEntity
  8
Layer_1
 62
1
100
AcDbPolyline
 90
2
 70
0
 10
116.202356
 20
208.991994
 30
0.0
 10
116.202356
 20
192.073946
 30
0.0
  0
LWPOLYLINE
  5
185
100
AcDbEntity
  8
Layer_1
 62
1
100
AcDbPolyline
 90
2
 70
0
 10
28.820791
 20
172.110658
 30
0.0
 10
28.820791
 20
174.546321
 30
0.0
  0
SPLINE
  5
186
100
AcDbEntity
  8
Layer_1
 62
1
100
AcDbSpline
 70
8
 71
3
 72
8
 73
4
 74
0
 40
0
 40
0
 40
0
 40
0
 40
1
 40
1
 40
1
 40
1
 10
28.805746
 20
174.550760
 30
0.0
 10
27.673045
 20
175.113009
 30
0.0
 10
26.943542
 20
176.283554
 30
0.0
 10
26.943542
 20
177.545586
 30
0.0
  0
SPLINE
  5
187
100
AcDbEntity
  8
Layer_1
 62
1
100
AcDbSpline
 70
8
 71
3
 72
8
 73
4
 74
0
 40
0
 40
0
 40
0
 40
0
 40
1
 40
1
 40
1
 40
1
 10
26.943542
 20
177.545586
 30
0.0
 10
26.943542
 20
177.545586
 30
0.0
 10
26.943542
 20
179.390033
 30
0.0
 10
28.444304
 20
180.890795
 30
0.0
  0
SPLINE
  5
188
100
AcDbEntity
  8
Layer_1
 62
1
100
AcDbSpline
 70
8
 71
3
 72
8
 73
4
 74
0
 40
0
 40
0
 40
0
 40
0
 40
1
 40
1
 40
1
 40
1
 10
28.444304
 20
180.890795
 30
0.0
 10
30.288826
 20
180.890795
 30
0.0
 10
30.288826
 20
180.890795
 30
0.0
 10
32.133273
 20
180.890795
 30
0.0
  0
SPLINE
  5
189
100
AcDbEntity
  8
Layer_1
 62
1
100
AcDbSpline
 70
8
 71
3
 72
8
 73
4
 74
0
 40
0
 40
0
 40
0
 40
0
 40
1
 40
1
 40
1
 40
1
 10
32.133273
 20
180.890795
 30
0.0
 10
33.634035
 20
179.390033
 30
0.0
 10
33.634035
 20
177.545586
 30
0.0
 10
33.634035
 20
177.545586
 30
0.0
  0
SPLINE
  5
18a
100
AcDbEntity
  8
Layer_1
 62
1
100
AcDbSpline
 70
8
 71
3
 72
8
 73
4
 74
0
 40
0
 40
0
 40
0
 40
0
 40
1
 40
1
 40
1
 40
1
 10
33.634035
 20
177.545586
 30
0.0
 10
33.634035
 20
176.283554
 30
0.0
 10
32.904456
 20
175.113009
 30
0.0
 10
31.771831
 20
174.550760
 30
0.0
  0
LWPOLYLINE
  5
18b
100
AcDbEntity
  8
Layer_1
 62
1
100
AcDbPolyline
 90
2
 70
0
 10
31.756859
 20
174.546321
 30
0.0
 10
31.756859
 20
172.110658
 30
0.0
  0
LWPOLYLINE
  5
18c
100
AcDbEntity
  8
Layer_1
 62
1
100
AcDbPolyline
 90
2
 70
0
 10
21.898643
 20
172.106744
 30
0.0
 10
28.820791
 20
172.106670
 30
0.0
  0
LWPOLYLINE
  5
18d
100
AcDbEntity
  8
Layer_1
 62
1
100
AcDbPolyline
 90
2
 70
0
 10
52.051944
 20
172.106670
 30
0.0
 10
58.834755
 20
172.106670
 30
0.0
  0
LWPOLYLINE
  5
18e
100
AcDbEntity
  8
Layer_1
 62
7
100
AcDbPolyline
 90
3
 70
0
 10
31.756859
 20
172.110658
 30
0.0
 10
49.115876
 20
172.110658
 30
0.0
 10
49.115876
 20
174.546321
 30
0.0
  0
SPLINE
  5
18f
100
AcDbEntity
  8
Layer_1
 62
1
100
AcDbSpline
 70
8
 71
3
 72
8
 73
4
 74
0
 40
0
 40
0
 40
0
 40
0
 40
1
 40
1
 40
1
 40
1
 10
49.100831
 20
174.550760
 30
0.0
 10
47.968129
 20
175.113009
 30
0.0
 10
47.238627
 20
176.283554
 30
0.0
 10
47.238627
 20
177.545586
 30
0.0
  0
SPLINE
  5
190
100
AcDbEntity
  8
Layer_1
 62
1
100
AcDbSpline
 70
8
 71
3
 72
8
 73
4
 74
0
 40
0
 40
0
 40
0
 40
0
 40
1
 40
1
 40
1
 40
1
 10
47.238627
 20
177.545586
 30
0.0
 10
47.238627
 20
177.545586
 30
0.0
 10
47.238627
 20
179.390033
 30
0.0
 10
48.739389
 20
180.890795
 30
0.0
  0
SPLINE
  5
191
100
AcDbEntity
  8
Layer_1
 62
1
100
AcDbSpline
 70
8
 71
3
 72
8
 73
4
 74
0
 40
0
 40
0
 40
0
 40
0
 40
1
 40
1
 40
1
 40
1
 10
48.739389
 20
180.890795
 30
0.0
 10
50.583912
 20
180.890795
 30
0.0
 10
50.583912
 20
180.890795
 30
0.0
 10
52.428358
 20
180.890795
 30
0.0
  0
SPLINE
  5
192
100
AcDbEntity
  8
Layer_1
 62
1
100
AcDbSpline
 70
8
 71
3
 72
8
 73
4
 74
0
 40
0
 40
0
 40
0
 40
0
 40
1
 40
1
 40
1
 40
1
 10
52.428358
 20
180.890795
 30
0.0
 10
53.929120
 20
179.390033
 30
0.0
 10
53.929120
 20
177.545586
 30
0.0
 10
53.929120
 20
177.545586
 30
0.0
  0
SPLINE
  5
193
100
AcDbEntity
  8
Layer_1
 62
1
100
AcDbSpline
 70
8
 71
3
 72
8
 73
4
 74
0
 40
0
 40
0
 40
0
 40
0
 40
1
 40
1
 40
1
 40
1
 10
53.929120
 20
177.545586
 30
0.0
 10
53.929120
 20
176.283554
 30
0.0
 10
53.199542
 20
175.113009
 30
0.0
 10
52.066916
 20
174.550760
 30
0.0
  0
LWPOLYLINE
  5
194
100
AcDbEntity
  8
Layer_1
 62
1
100
AcDbPolyline
 90
2
 70
0
 10
52.051944
 20
174.546321
 30
0.0
 10
52.051944
 20
172.110658
 30
0.0
  0
LWPOLYLINE
  5
195
100
AcDbEntity
  8
Layer_1
 62
1
100
AcDbPolyline
 90
2
 70
0
 10
72.251252
 20
209.073026
 30
0.0
 10
72.255683
 20
202.017631
 30
0.0
  0
LWPOLYLINE
  5
196
100
AcDbEntity
  8
Layer_1
 62
1
100
AcDbPolyline
 90
2
 70
0
 10
72.255691
 20
179.039050
 30
0.0
 10
72.251176
 20
172.136916
 30
0.0
  0
LWPOLYLINE
  5
197
100
AcDbEntity
  8
Layer_1
 62
1
100
AcDbPolyline
 90
2
 70
0
 10
72.255691
 20
199.322324
 30
0.0
 10
72.255691
 20
181.734360
 30
0.0
  0
SPLINE
  5
198
100
AcDbEntity
  8
Layer_1
 62
1
100
AcDbSpline
 70
8
 71
3
 72
8
 73
4
 74
0
 40
0
 40
0
 40
0
 40
0
 40
1
 40
1
 40
1
 40
1
 10
74.785401
 20
179.039050
 30
0.0
 10
74.785401
 20
179.039050
 30
0.0
 10
74.785401
 20
179.039050
 30
0.0
 10
74.802109
 20
179.000606
 30
0.0
  0
SPLINE
  5
199
100
AcDbEntity
  8
Layer_1
 62
1
100
AcDbSpline
 70
8
 71
3
 72
8
 73
4
 74
0
 40
0
 40
0
 40
0
 40
0
 40
1
 40
1
 40
1
 40
1
 10
74.802103
 20
179.000606
 30
0.0
 10
75.334183
 20
177.892734
 30
0.0
 10
76.469292
 20
177.176849
 30
0.0
 10
77.693707
 20
177.176849
 30
0.0
  0
SPLINE
  5
19a
100
AcDbEntity
  8
Layer_1
 62
1
100
AcDbSpline
 70
8
 71
3
 72
8
 73
4
 74
0
 40
0
 40
0
 40
0
 40
0
 40
1
 40
1
 40
1
 40
1
 10
77.693707
 20
177.176849
 30
0.0
 10
77.693707
 20
177.176849
 30
0.0
 10
79.463517
 20
177.176849
 30
0.0
 10
80.903412
 20
178.616817
 30
0.0
  0
SPLINE
  5
19b
100
AcDbEntity
  8
Layer_1
 62
1
100
AcDbSpline
 70
8
 71
3
 72
8
 73
4
 74
0
 40
0
 40
0
 40
0
 40
0
 40
1
 40
1
 40
1
 40
1
 10
80.903412
 20
178.616817
 30
0.0
 10
80.903412
 20
180.386630
 30
0.0
 10
80.903412
 20
180.386630
 30
0.0
 10
80.903412
 20
182.156516
 30
0.0
  0
SPLINE
  5
19c
100
AcDbEntity
  8
Layer_1
 62
1
100
AcDbSpline
 70
8
 71
3
 72
8
 73
4
 74
0
 40
0
 40
0
 40
0
 40
0
 40
1
 40
1
 40
1
 40
1
 10
80.903412
 20
182.156516
 30
0.0
 10
79.463517
 20
183.596487
 30
0.0
 10
77.693707
 20
183.596487
 30
0.0
 10
77.693707
 20
183.596487
 30
0.0
  0
SPLINE
  5
19d
100
AcDbEntity
  8
Layer_1
 62
1
100
AcDbSpline
 70
8
 71
3
 72
8
 73
4
 74
0
 40
0
 40
0
 40
0
 40
0
 40
1
 40
1
 40
1
 40
1
 10
77.693707
 20
183.596487
 30
0.0
 10
76.469292
 20
183.596487
 30
0.0
 10
75.334183
 20
182.880526
 30
0.0
 10
74.802103
 20
181.772731
 30
0.0
  0
LWPOLYLINE
  5
19e
100
AcDbEntity
  8
Layer_1
 62
1
100
AcDbPolyline
 90
2
 70
0
 10
72.255691
 20
179.039050
 30
0.0
 10
74.785401
 20
179.039050
 30
0.0
  0
SPLINE
  5
19f
100
AcDbEntity
  8
Layer_1
 62
1
100
AcDbSpline
 70
8
 71
3
 72
8
 73
4
 74
0
 40
0
 40
0
 40
0
 40
0
 40
1
 40
1
 40
1
 40
1
 10
74.785480
 20
181.734360
 30
0.0
 10
74.785480
 20
181.734360
 30
0.0
 10
74.785480
 20
181.734360
 30
0.0
 10
72.255694
 20
181.734360
 30
0.0
  0
LWPOLYLINE
  5
1a0
100
AcDbEntity
  8
Layer_1
 62
1
100
AcDbPolyline
 90
2
 70
0
 10
74.802103
 20
181.772731
 30
0.0
 10
74.785480
 20
181.734360
 30
0.0
  0
SPLINE
  5
1a1
100
AcDbEntity
  8
Layer_1
 62
1
100
AcDbSpline
 70
8
 71
3
 72
8
 73
4
 74
0
 40
0
 40
0
 40
0
 40
0
 40
1
 40
1
 40
1
 40
1
 10
74.783671
 20
199.322324
 30
0.0
 10
74.783671
 20
199.322324
 30
0.0
 10
74.783671
 20
199.322324
 30
0.0
 10
74.802101
 20
199.283877
 30
0.0
  0
SPLINE
  5
1a2
100
AcDbEntity
  8
Layer_1
 62
1
100
AcDbSpline
 70
8
 71
3
 72
8
 73
4
 74
0
 40
0
 40
0
 40
0
 40
0
 40
1
 40
1
 40
1
 40
1
 10
74.802103
 20
199.283877
 30
0.0
 10
75.334183
 20
198.176006
 30
0.0
 10
76.469292
 20
197.460121
 30
0.0
 10
77.693707
 20
197.460121
 30
0.0
  0
SPLINE
  5
1a3
100
AcDbEntity
  8
Layer_1
 62
1
100
AcDbSpline
 70
8
 71
3
 72
8
 73
4
 74
0
 40
0
 40
0
 40
0
 40
0
 40
1
 40
1
 40
1
 40
1
 10
77.693707
 20
197.460121
 30
0.0
 10
77.693707
 20
197.460121
 30
0.0
 10
79.463517
 20
197.460121
 30
0.0
 10
80.903412
 20
198.900092
 30
0.0
  0
SPLINE
  5
1a4
100
AcDbEntity
  8
Layer_1
 62
1
100
AcDbSpline
 70
8
 71
3
 72
8
 73
4
 74
0
 40
0
 40
0
 40
0
 40
0
 40
1
 40
1
 40
1
 40
1
 10
80.903412
 20
198.900092
 30
0.0
 10
80.903412
 20
200.669902
 30
0.0
 10
80.903412
 20
200.669902
 30
0.0
 10
80.903412
 20
202.439788
 30
0.0
  0
SPLINE
  5
1a5
100
AcDbEntity
  8
Layer_1
 62
1
100
AcDbSpline
 70
8
 71
3
 72
8
 73
4
 74
0
 40
0
 40
0
 40
0
 40
0
 40
1
 40
1
 40
1
 40
1
 10
80.903412
 20
202.439788
 30
0.0
 10
79.463517
 20
203.879759
 30
0.0
 10
77.693707
 20
203.879759
 30
0.0
 10
77.693707
 20
203.879759
 30
0.0
  0
SPLINE
  5
1a6
100
AcDbEntity
  8
Layer_1
 62
1
100
AcDbSpline
 70
8
 71
3
 72
8
 73
4
 74
0
 40
0
 40
0
 40
0
 40
0
 40
1
 40
1
 40
1
 40
1
 10
77.693707
 20
203.879759
 30
0.0
 10
76.469292
 20
203.879759
 30
0.0
 10
75.334183
 20
203.163798
 30
0.0
 10
74.802103
 20
202.056002
 30
0.0
  0
LWPOLYLINE
  5
1a7
100
AcDbEntity
  8
Layer_1
 62
1
100
AcDbPolyline
 90
2
 70
0
 10
72.266224
 20
199.322324
 30
0.0
 10
74.783671
 20
199.322324
 30
0.0
  0
SPLINE
  5
1a8
100
AcDbEntity
  8
Layer_1
 62
1
100
AcDbSpline
 70
8
 71
3
 72
8
 73
4
 74
0
 40
0
 40
0
 40
0
 40
0
 40
1
 40
1
 40
1
 40
1
 10
74.783674
 20
202.017631
 30
0.0
 10
74.783674
 20
202.017631
 30
0.0
 10
74.783674
 20
202.017631
 30
0.0
 10
72.255694
 20
202.017631
 30
0.0
  0
LWPOLYLINE
  5
1a9
100
AcDbEntity
  8
Layer_1
 62
1
100
AcDbPolyline
 90
2
 70
0
 10
74.802103
 20
202.056002
 30
0.0
 10
74.783674
 20
202.017631
 30
0.0
  0
LWPOLYLINE
  5
1aa
100
AcDbEntity
  8
Layer_1
 62
1
100
AcDbPolyline
 90
2
 70
0
 10
122.495294
 20
202.139667
 30
0.0
 10
124.930956
 20
202.139667
 30
0.0
  0
SPLINE
  5
1ab
100
AcDbEntity
  8
Layer_1
 62
1
100
AcDbSpline
 70
8
 71
3
 72
8
 73
4
 74
0
 40
0
 40
0
 40
0
 40
0
 40
1
 40
1
 40
1
 40
1
 10
124.935396
 20
202.154715
 30
0.0
 10
125.497647
 20
203.287414
 30
0.0
 10
126.668189
 20
204.016916
 30
0.0
 10
127.930225
 20
204.016916
 30
0.0
  0
SPLINE
  5
1ac
100
AcDbEntity
  8
Layer_1
 62
1
100
AcDbSpline
 70
8
 71
3
 72
8
 73
4
 74
0
 40
0
 40
0
 40
0
 40
0
 40
1
 40
1
 40
1
 40
1
 10
127.930225
 20
204.016916
 30
0.0
 10
127.930225
 20
204.016916
 30
0.0
 10
129.774671
 20
204.016916
 30
0.0
 10
131.275433
 20
202.516154
 30
0.0
  0
SPLINE
  5
1ad
100
AcDbEntity
  8
Layer_1
 62
1
100
AcDbSpline
 70
8
 71
3
 72
8
 73
4
 74
0
 40
0
 40
0
 40
0
 40
0
 40
1
 40
1
 40
1
 40
1
 10
131.275433
 20
202.516154
 30
0.0
 10
131.275433
 20
200.671632
 30
0.0
 10
131.275433
 20
200.671632
 30
0.0
 10
131.275433
 20
198.827185
 30
0.0
  0
SPLINE
  5
1ae
100
AcDbEntity
  8
Layer_1
 62
1
100
AcDbSpline
 70
8
 71
3
 72
8
 73
4
 74
0
 40
0
 40
0
 40
0
 40
0
 40
1
 40
1
 40
1
 40
1
 10
131.275433
 20
198.827185
 30
0.0
 10
129.774671
 20
197.326423
 30
0.0
 10
127.930225
 20
197.326423
 30
0.0
 10
127.930225
 20
197.326423
 30
0.0
  0
SPLINE
  5
1af
100
AcDbEntity
  8
Layer_1
 62
1
100
AcDbSpline
 70
8
 71
3
 72
8
 73
4
 74
0
 40
0
 40
0
 40
0
 40
0
 40
1
 40
1
 40
1
 40
1
 10
127.930225
 20
197.326423
 30
0.0
 10
126.668189
 20
197.326423
 30
0.0
 10
125.497647
 20
198.056002
 30
0.0
 10
124.935396
 20
199.188627
 30
0.0
  0
LWPOLYLINE
  5
1b0
100
AcDbEntity
  8
Layer_1
 62
1
100
AcDbPolyline
 90
2
 70
0
 10
124.930956
 20
199.203599
 30
0.0
 10
122.495294
 20
199.203599
 30
0.0
  0
LWPOLYLINE
  5
1b1
100
AcDbEntity
  8
Layer_1
 62
1
100
AcDbPolyline
 90
2
 70
0
 10
122.491382
 20
209.061816
 30
0.0
 10
122.491306
 20
202.139667
 30
0.0
  0
LWPOLYLINE
  5
1b2
100
AcDbEntity
  8
Layer_1
 62
1
100
AcDbPolyline
 90
2
 70
0
 10
122.491306
 20
178.908514
 30
0.0
 10
122.491306
 20
172.125703
 30
0.0
  0
LWPOLYLINE
  5
1b3
100
AcDbEntity
  8
Layer_1
 62
7
100
AcDbPolyline
 90
3
 70
0
 10
122.495294
 20
199.203599
 30
0.0
 10
122.495294
 20
181.844582
 30
0.0
 10
124.930956
 20
181.844582
 30
0.0
  0
SPLINE
  5
1b4
100
AcDbEntity
  8
Layer_1
 62
1
100
AcDbSpline
 70
8
 71
3
 72
8
 73
4
 74
0
 40
0
 40
0
 40
0
 40
0
 40
1
 40
1
 40
1
 40
1
 10
124.935396
 20
181.859630
 30
0.0
 10
125.497647
 20
182.992329
 30
0.0
 10
126.668189
 20
183.721831
 30
0.0
 10
127.930225
 20
183.721831
 30
0.0
  0
SPLINE
  5
1b5
100
AcDbEntity
  8
Layer_1
 62
1
100
AcDbSpline
 70
8
 71
3
 72
8
 73
4
 74
0
 40
0
 40
0
 40
0
 40
0
 40
1
 40
1
 40
1
 40
1
 10
127.930225
 20
183.721831
 30
0.0
 10
127.930225
 20
183.721831
 30
0.0
 10
129.774671
 20
183.721831
 30
0.0
 10
131.275433
 20
182.221069
 30
0.0
  0
SPLINE
  5
1b6
100
AcDbEntity
  8
Layer_1
 62
1
100
AcDbSpline
 70
8
 71
3
 72
8
 73
4
 74
0
 40
0
 40
0
 40
0
 40
0
 40
1
 40
1
 40
1
 40
1
 10
131.275433
 20
182.221069
 30
0.0
 10
131.275433
 20
180.376549
 30
0.0
 10
131.275433
 20
180.376549
 30
0.0
 10
131.275433
 20
178.532100
 30
0.0
  0
SPLINE
  5
1b7
100
AcDbEntity
  8
Layer_1
 62
1
100
AcDbSpline
 70
8
 71
3
 72
8
 73
4
 74
0
 40
0
 40
0
 40
0
 40
0
 40
1
 40
1
 40
1
 40
1
 10
131.275433
 20
178.532100
 30
0.0
 10
129.774671
 20
177.031338
 30
0.0
 10
127.930225
 20
177.031338
 30
0.0
 10
127.930225
 20
177.031338
 30
0.0
  0
SPLINE
  5
1b8
100
AcDbEntity
  8
Layer_1
 62
1
100
AcDbSpline
 70
8
 71
3
 72
8
 73
4
 74
0
 40
0
 40
0
 40
0
 40
0
 40
1
 40
1
 40
1
 40
1
 10
127.930225
 20
177.031338
 30
0.0
 10
126.668189
 20
177.031338
 30
0.0
 10
125.497647
 20
177.760916
 30
0.0
 10
124.935396
 20
178.893542
 30
0.0
  0
LWPOLYLINE
  5
1b9
100
AcDbEntity
  8
Layer_1
 62
1
100
AcDbPolyline
 90
2
 70
0
 10
124.930956
 20
178.908514
 30
0.0
 10
122.495294
 20
178.908514
 30
0.0
  0
LWPOLYLINE
  5
1ba
100
AcDbEntity
  8
Layer_1
 62
1
100
AcDbPolyline
 90
2
 70
0
 10
159.427266
 20
158.718234
 30
0.0
 10
152.371872
 20
158.713804
 30
0.0
  0
LWPOLYLINE
  5
1bb
100
AcDbEntity
  8
Layer_1
 62
1
100
AcDbPolyline
 90
2
 70
0
 10
129.393293
 20
158.713795
 30
0.0
 10
122.491156
 20
158.718311
 30
0.0
  0
LWPOLYLINE
  5
1bc
100
AcDbEntity
  8
Layer_1
 62
1
100
AcDbPolyline
 90
2
 70
0
 10
149.676565
 20
158.713795
 30
0.0
 10
132.088600
 20
158.713795
 30
0.0
  0
SPLINE
  5
1bd
100
AcDbEntity
  8
Layer_1
 62
1
100
AcDbSpline
 70
8
 71
3
 72
8
 73
4
 74
0
 40
0
 40
0
 40
0
 40
0
 40
1
 40
1
 40
1
 40
1
 10
129.393293
 20
156.184085
 30
0.0
 10
129.393293
 20
156.184085
 30
0.0
 10
129.393293
 20
156.184085
 30
0.0
 10
129.354846
 20
156.167377
 30
0.0
  0
SPLINE
  5
1be
100
AcDbEntity
  8
Layer_1
 62
1
100
AcDbSpline
 70
8
 71
3
 72
8
 73
4
 74
0
 40
0
 40
0
 40
0
 40
0
 40
1
 40
1
 40
1
 40
1
 10
129.354846
 20
156.167383
 30
0.0
 10
128.246974
 20
155.635304
 30
0.0
 10
127.531089
 20
154.500195
 30
0.0
 10
127.531089
 20
153.275782
 30
0.0
  0
SPLINE
  5
1bf
100
AcDbEntity
  8
Layer_1
 62
1
100
AcDbSpline
 70
8
 71
3
 72
8
 73
4
 74
0
 40
0
 40
0
 40
0
 40
0
 40
1
 40
1
 40
1
 40
1
 10
127.531089
 20
153.275782
 30
0.0
 10
127.531089
 20
153.275782
 30
0.0
 10
127.531089
 20
151.505969
 30
0.0
 10
128.971061
 20
150.066074
 30
0.0
  0
SPLINE
  5
1c0
100
AcDbEntity
  8
Layer_1
 62
1
100
AcDbSpline
 70
8
 71
3
 72
8
 73
4
 74
0
 40
0
 40
0
 40
0
 40
0
 40
1
 40
1
 40
1
 40
1
 10
128.971061
 20
150.066074
 30
0.0
 10
130.740870
 20
150.066074
 30
0.0
 10
130.740870
 20
150.066074
 30
0.0
 10
132.510757
 20
150.066074
 30
0.0
  0
SPLINE
  5
1c1
100
AcDbEntity
  8
Layer_1
 62
1
100
AcDbSpline
 70
8
 71
3
 72
8
 73
4
 74
0
 40
0
 40
0
 40
0
 40
0
 40
1
 40
1
 40
1
 40
1
 10
132.510757
 20
150.066074
 30
0.0
 10
133.950728
 20
151.505969
 30
0.0
 10
133.950728
 20
153.275782
 30
0.0
 10
133.950728
 20
153.275782
 30
0.0
  0
SPLINE
  5
1c2
100
AcDbEntity
  8
Layer_1
 62
1
100
AcDbSpline
 70
8
 71
3
 72
8
 73
4
 74
0
 40
0
 40
0
 40
0
 40
0
 40
1
 40
1
 40
1
 40
1
 10
133.950728
 20
153.275782
 30
0.0
 10
133.950728
 20
154.500195
 30
0.0
 10
133.234767
 20
155.635304
 30
0.0
 10
132.126971
 20
156.167383
 30
0.0
  0
LWPOLYLINE
  5
1c3
100
AcDbEntity
  8
Layer_1
 62
1
100
AcDbPolyline
 90
2
 70
0
 10
129.393293
 20
158.713795
 30
0.0
 10
129.393293
 20
156.184085
 30
0.0
  0
SPLINE
  5
1c4
100
AcDbEntity
  8
Layer_1
 62
1
100
AcDbSpline
 70
8
 71
3
 72
8
 73
4
 74
0
 40
0
 40
0
 40
0
 40
0
 40
1
 40
1
 40
1
 40
1
 10
132.088600
 20
156.184006
 30
0.0
 10
132.088600
 20
156.184006
 30
0.0
 10
132.088600
 20
156.184006
 30
0.0
 10
132.088600
 20
158.713789
 30
0.0
  0
LWPOLYLINE
  5
1c5
100
AcDbEntity
  8
Layer_1
 62
1
100
AcDbPolyline
 90
2
 70
0
 10
132.126971
 20
156.167383
 30
0.0
 10
132.088600
 20
156.184006
 30
0.0
  0
SPLINE
  5
1c6
100
AcDbEntity
  8
Layer_1
 62
1
100
AcDbSpline
 70
8
 71
3
 72
8
 73
4
 74
0
 40
0
 40
0
 40
0
 40
0
 40
1
 40
1
 40
1
 40
1
 10
149.676565
 20
156.185818
 30
0.0
 10
149.676565
 20
156.185818
 30
0.0
 10
149.676565
 20
156.185818
 30
0.0
 10
149.638118
 20
156.167389
 30
0.0
  0
SPLINE
  5
1c7
100
AcDbEntity
  8
Layer_1
 62
1
100
AcDbSpline
 70
8
 71
3
 72
8
 73
4
 74
0
 40
0
 40
0
 40
0
 40
0
 40
1
 40
1
 40
1
 40
1
 10
149.638118
 20
156.167383
 30
0.0
 10
148.530246
 20
155.635304
 30
0.0
 10
147.814361
 20
154.500195
 30
0.0
 10
147.814361
 20
153.275782
 30
0.0
  0
SPLINE
  5
1c8
100
AcDbEntity
  8
Layer_1
 62
1
100
AcDbSpline
 70
8
 71
3
 72
8
 73
4
 74
0
 40
0
 40
0
 40
0
 40
0
 40
1
 40
1
 40
1
 40
1
 10
147.814361
 20
153.275782
 30
0.0
 10
147.814361
 20
153.275782
 30
0.0
 10
147.814361
 20
151.505969
 30
0.0
 10
149.254332
 20
150.066074
 30
0.0
  0
SPLINE
  5
1c9
100
AcDbEntity
  8
Layer_1
 62
1
100
AcDbSpline
 70
8
 71
3
 72
8
 73
4
 74
0
 40
0
 40
0
 40
0
 40
0
 40
1
 40
1
 40
1
 40
1
 10
149.254332
 20
150.066074
 30
0.0
 10
151.024145
 20
150.066074
 30
0.0
 10
151.024145
 20
150.066074
 30
0.0
 10
152.794031
 20
150.066074
 30
0.0
  0
SPLINE
  5
1ca
100
AcDbEntity
  8
Layer_1
 62
1
100
AcDbSpline
 70
8
 71
3
 72
8
 73
4
 74
0
 40
0
 40
0
 40
0
 40
0
 40
1
 40
1
 40
1
 40
1
 10
152.794031
 20
150.066074
 30
0.0
 10
154.233999
 20
151.505969
 30
0.0
 10
154.233999
 20
153.275782
 30
0.0
 10
154.233999
 20
153.275782
 30
0.0
  0
SPLINE
  5
1cb
100
AcDbEntity
  8
Layer_1
 62
1
100
AcDbSpline
 70
8
 71
3
 72
8
 73
4
 74
0
 40
0
 40
0
 40
0
 40
0
 40
1
 40
1
 40
1
 40
1
 10
154.233999
 20
153.275782
 30
0.0
 10
154.233999
 20
154.500195
 30
0.0
 10
153.518041
 20
155.635304
 30
0.0
 10
152.410243
 20
156.167383
 30
0.0
  0
LWPOLYLINE
  5
1cc
100
AcDbEntity
  8
Layer_1
 62
1
100
AcDbPolyline
 90
2
 70
0
 10
149.676565
 20
158.703263
 30
0.0
 10
149.676565
 20
156.185818
 30
0.0
  0
SPLINE
  5
1cd
100
AcDbEntity
  8
Layer_1
 62
1
100
AcDbSpline
 70
8
 71
3
 72
8
 73
4
 74
0
 40
0
 40
0
 40
0
 40
0
 40
1
 40
1
 40
1
 40
1
 10
152.371872
 20
156.185812
 30
0.0
 10
152.371872
 20
156.185812
 30
0.0
 10
152.371872
 20
156.185812
 30
0.0
 10
152.371872
 20
158.713789
 30
0.0
  0
LWPOLYLINE
  5
1ce
100
AcDbEntity
  8
Layer_1
 62
1
100
AcDbPolyline
 90
2
 70
0
 10
152.410243
 20
156.167383
 30
0.0
 10
152.371872
 20
156.185812
 30
0.0
  0
LWPOLYLINE
  5
1cf
100
AcDbEntity
  8
Layer_1
 62
1
100
AcDbPolyline
 90
2
 70
0
 10
107.292883
 20
121.876923
 30
0.0
 10
74.347068
 20
121.876923
 30
0.0
  0
LWPOLYLINE
  5
1d0
100
AcDbEntity
  8
Layer_1
 62
1
100
AcDbPolyline
 90
2
 70
0
 10
107.292883
 20
117.154340
 30
0.0
 10
74.347068
 20
117.154340
 30
0.0
  0
LWPOLYLINE
  5
1d1
100
AcDbEntity
  8
Layer_1
 62
1
100
AcDbPolyline
 90
2
 70
0
 10
107.292883
 20
118.728384
 30
0.0
 10
74.347068
 20
118.728384
 30
0.0
  0
LWPOLYLINE
  5
1d2
100
AcDbEntity
  8
Layer_1
 62
1
100
AcDbPolyline
 90
2
 70
0
 10
107.292883
 20
120.302654
 30
0.0
 10
74.347068
 20
120.302654
 30
0.0
  0
LWPOLYLINE
  5
1d3
100
AcDbEntity
  8
Layer_1
 62
1
100
AcDbPolyline
 90
2
 70
0
 10
107.292883
 20
110.857565
 30
0.0
 10
74.347068
 20
110.857717
 30
0.0
  0
LWPOLYLINE
  5
1d4
100
AcDbEntity
  8
Layer_1
 62
1
100
AcDbPolyline
 90
2
 70
0
 10
107.292883
 20
109.283072
 30
0.0
 10
74.347068
 20
109.283222
 30
0.0
  0
LWPOLYLINE
  5
1d5
100
AcDbEntity
  8
Layer_1
 62
1
100
AcDbPolyline
 90
2
 70
0
 10
107.292883
 20
112.431685
 30
0.0
 10
74.347068
 20
112.431834
 30
0.0
  0
LWPOLYLINE
  5
1d6
100
AcDbEntity
  8
Layer_1
 62
1
100
AcDbPolyline
 90
2
 70
0
 10
107.292883
 20
114.005954
 30
0.0
 10
74.347068
 20
114.005954
 30
0.0
  0
LWPOLYLINE
  5
1d7
100
AcDbEntity
  8
Layer_1
 62
1
100
AcDbPolyline
 90
2
 70
0
 10
107.292883
 20
115.580071
 30
0.0
 10
74.347068
 20
115.580071
 30
0.0
  0
LWPOLYLINE
  5
1d8
100
AcDbEntity
  8
Layer_1
 62
1
100
AcDbPolyline
 90
2
 70
0
 10
109.073756
 20
116.367358
 30
0.0
 10
92.155705
 20
116.367358
 30
0.0
  0
LWPOLYLINE
  5
1d9
100
AcDbEntity
  8
Layer_1
 62
1
100
AcDbPolyline
 90
2
 70
0
 10
109.073756
 20
117.941475
 30
0.0
 10
92.155705
 20
117.941475
 30
0.0
  0
LWPOLYLINE
  5
1da
100
AcDbEntity
  8
Layer_1
 62
1
100
AcDbPolyline
 90
2
 70
0
 10
109.073756
 20
119.515745
 30
0.0
 10
92.155705
 20
119.515745
 30
0.0
  0
LWPOLYLINE
  5
1db
100
AcDbEntity
  8
Layer_1
 62
1
100
AcDbPolyline
 90
2
 70
0
 10
109.073756
 20
121.089562
 30
0.0
 10
92.155705
 20
121.089562
 30
0.0
  0
LWPOLYLINE
  5
1dc
100
AcDbEntity
  8
Layer_1
 62
1
100
AcDbPolyline
 90
2
 70
0
 10
109.073756
 20
110.070506
 30
0.0
 10
92.155705
 20
110.070582
 30
0.0
  0
LWPOLYLINE
  5
1dd
100
AcDbEntity
  8
Layer_1
 62
1
100
AcDbPolyline
 90
2
 70
0
 10
109.073756
 20
108.496237
 30
0.0
 10
92.155705
 20
108.496313
 30
0.0
  0
LWPOLYLINE
  5
1de
100
AcDbEntity
  8
Layer_1
 62
1
100
AcDbPolyline
 90
2
 70
0
 10
109.073756
 20
111.644550
 30
0.0
 10
92.155705
 20
111.644626
 30
0.0
  0
LWPOLYLINE
  5
1df
100
AcDbEntity
  8
Layer_1
 62
1
100
AcDbPolyline
 90
2
 70
0
 10
109.073756
 20
113.218819
 30
0.0
 10
92.155705
 20
113.218895
 30
0.0
  0
LWPOLYLINE
  5
1e0
100
AcDbEntity
  8
Layer_1
 62
1
100
AcDbPolyline
 90
2
 70
0
 10
89.125891
 20
117.941475
 30
0.0
 10
72.207465
 20
117.941475
 30
0.0
  0
LWPOLYLINE
  5
1e1
100
AcDbEntity
  8
Layer_1
 62
1
100
AcDbPolyline
 90
2
 70
0
 10
89.125891
 20
119.515745
 30
0.0
 10
72.207465
 20
119.515745
 30
0.0
  0
LWPOLYLINE
  5
1e2
100
AcDbEntity
  8
Layer_1
 62
1
100
AcDbPolyline
 90
2
 70
0
 10
89.125891
 20
121.089562
 30
0.0
 10
72.207465
 20
121.089562
 30
0.0
  0
LWPOLYLINE
  5
1e3
100
AcDbEntity
  8
Layer_1
 62
1
100
AcDbPolyline
 90
2
 70
0
 10
89.125891
 20
111.644626
 30
0.0
 10
72.207465
 20
111.644626
 30
0.0
  0
LWPOLYLINE
  5
1e4
100
AcDbEntity
  8
Layer_1
 62
1
100
AcDbPolyline
 90
2
 70
0
 10
89.125891
 20
108.496313
 30
0.0
 10
72.207465
 20
108.496313
 30
0.0
  0
LWPOLYLINE
  5
1e5
100
AcDbEntity
  8
Layer_1
 62
1
100
AcDbPolyline
 90
2
 70
0
 10
89.125891
 20
110.070582
 30
0.0
 10
72.207465
 20
110.070582
 30
0.0
  0
LWPOLYLINE
  5
1e6
100
AcDbEntity
  8
Layer_1
 62
1
100
AcDbPolyline
 90
2
 70
0
 10
89.125891
 20
113.218895
 30
0.0
 10
72.207465
 20
113.218895
 30
0.0
  0
LWPOLYLINE
  5
1e7
100
AcDbEntity
  8
Layer_1
 62
1
100
AcDbPolyline
 90
2
 70
0
 10
89.125891
 20
114.792713
 30
0.0
 10
72.207465
 20
114.792713
 30
0.0
  0
LWPOLYLINE
  5
1e8
100
AcDbEntity
  8
Layer_1
 62
1
100
AcDbPolyline
 90
2
 70
0
 10
89.125891
 20
116.367358
 30
0.0
 10
72.207465
 20
116.367358
 30
0.0
  0
LWPOLYLINE
  5
1e9
100
AcDbEntity
  8
Layer_1
 62
1
100
AcDbPolyline
 90
2
 70
0
 10
109.073756
 20
114.792713
 30
0.0
 10
92.155705
 20
114.792713
 30
0.0
  0
SPLINE
  5
1ea
100
AcDbEntity
  8
Layer_1
 62
7
100
AcDbSpline
 70
8
 71
3
 72
8
 73
4
 74
0
 40
0
 40
0
 40
0
 40
0
 40
1
 40
1
 40
1
 40
1
 10
109.110095
 20
121.875043
 30
0.0
 10
109.110095
 20
121.875043
 30
0.0
 10
109.110095
 20
121.875043
 30
0.0
 10
122.491080
 20
121.875043
 30
0.0
  0
LWPOLYLINE
  5
1eb
100
AcDbEntity
  8
Layer_1
 62
7
100
AcDbPolyline
 90
2
 70
0
 10
109.110095
 20
108.494055
 30
0.0
 10
109.110095
 20
121.875043
 30
0.0
  0
SPLINE
  5
1ec
100
AcDbEntity
  8
Layer_1
 62
7
100
AcDbSpline
 70
8
 71
3
 72
8
 73
4
 74
0
 40
0
 40
0
 40
0
 40
0
 40
1
 40
1
 40
1
 40
1
 10
122.491080
 20
121.875043
 30
0.0
 10
122.491080
 20
108.494055
 30
0.0
 10
122.491080
 20
108.494055
 30
0.0
 10
122.491080
 20
108.494055
 30
0.0
  0
LWPOLYLINE
  5
1ed
100
AcDbEntity
  8
Layer_1
 62
7
100
AcDbPolyline
 90
2
 70
0
 10
122.491080
 20
121.875043
 30
0.0
 10
122.491080
 20
121.875043
 30
0.0
  0
LWPOLYLINE
  5
1ee
100
AcDbEntity
  8
Layer_1
 62
7
100
AcDbPolyline
 90
3
 70
0
 10
122.491080
 20
108.494055
 30
0.0
 10
109.110095
 20
108.494055
 30
0.0
 10
109.110095
 20
108.494055
 30
0.0
  0
LWPOLYLINE
  5
1ef
100
AcDbEntity
  8
Layer_1
 62
1
100
AcDbPolyline
 90
2
 70
0
 10
157.593053
 20
121.868947
 30
0.0
 10
124.647235
 20
121.868947
 30
0.0
  0
LWPOLYLINE
  5
1f0
100
AcDbEntity
  8
Layer_1
 62
1
100
AcDbPolyline
 90
2
 70
0
 10
157.593053
 20
117.146368
 30
0.0
 10
124.647235
 20
117.146368
 30
0.0
  0
LWPOLYLINE
  5
1f1
100
AcDbEntity
  8
Layer_1
 62
1
100
AcDbPolyline
 90
2
 70
0
 10
157.593053
 20
118.720408
 30
0.0
 10
124.647235
 20
118.720408
 30
0.0
  0
LWPOLYLINE
  5
1f2
100
AcDbEntity
  8
Layer_1
 62
1
100
AcDbPolyline
 90
2
 70
0
 10
157.593053
 20
120.294678
 30
0.0
 10
124.647235
 20
120.294678
 30
0.0
  0
LWPOLYLINE
  5
1f3
100
AcDbEntity
  8
Layer_1
 62
1
100
AcDbPolyline
 90
2
 70
0
 10
157.593053
 20
110.849592
 30
0.0
 10
124.647235
 20
110.849742
 30
0.0
  0
LWPOLYLINE
  5
1f4
100
AcDbEntity
  8
Layer_1
 62
1
100
AcDbPolyline
 90
2
 70
0
 10
157.593053
 20
109.275097
 30
0.0
 10
124.647235
 20
109.275246
 30
0.0
  0
LWPOLYLINE
  5
1f5
100
AcDbEntity
  8
Layer_1
 62
1
100
AcDbPolyline
 90
2
 70
0
 10
157.593053
 20
112.423709
 30
0.0
 10
124.647235
 20
112.423861
 30
0.0
  0
LWPOLYLINE
  5
1f6
100
AcDbEntity
  8
Layer_1
 62
1
100
AcDbPolyline
 90
2
 70
0
 10
157.593053
 20
113.997978
 30
0.0
 10
124.647235
 20
113.997978
 30
0.0
  0
LWPOLYLINE
  5
1f7
100
AcDbEntity
  8
Layer_1
 62
1
100
AcDbPolyline
 90
2
 70
0
 10
157.593053
 20
115.572098
 30
0.0
 10
124.647235
 20
115.572098
 30
0.0
  0
LWPOLYLINE
  5
1f8
100
AcDbEntity
  8
Layer_1
 62
1
100
AcDbPolyline
 90
2
 70
0
 10
159.373924
 20
116.359383
 30
0.0
 10
142.455873
 20
116.359383
 30
0.0
  0
LWPOLYLINE
  5
1f9
100
AcDbEntity
  8
Layer_1
 62
1
100
AcDbPolyline
 90
2
 70
0
 10
159.373924
 20
117.933500
 30
0.0
 10
142.455873
 20
117.933500
 30
0.0
  0
LWPOLYLINE
  5
1fa
100
AcDbEntity
  8
Layer_1
 62
1
100
AcDbPolyline
 90
2
 70
0
 10
159.373924
 20
119.507769
 30
0.0
 10
142.455873
 20
119.507769
 30
0.0
  0
LWPOLYLINE
  5
1fb
100
AcDbEntity
  8
Layer_1
 62
1
100
AcDbPolyline
 90
2
 70
0
 10
159.373924
 20
121.081587
 30
0.0
 10
142.455873
 20
121.081587
 30
0.0
  0
LWPOLYLINE
  5
1fc
100
AcDbEntity
  8
Layer_1
 62
1
100
AcDbPolyline
 90
2
 70
0
 10
159.373924
 20
110.062531
 30
0.0
 10
142.455873
 20
110.062607
 30
0.0
  0
LWPOLYLINE
  5
1fd
100
AcDbEntity
  8
Layer_1
 62
1
100
AcDbPolyline
 90
2
 70
0
 10
159.373924
 20
111.636574
 30
0.0
 10
142.455873
 20
111.636650
 30
0.0
  0
LWPOLYLINE
  5
1fe
100
AcDbEntity
  8
Layer_1
 62
1
100
AcDbPolyline
 90
2
 70
0
 10
159.373924
 20
113.210844
 30
0.0
 10
142.455873
 20
113.210920
 30
0.0
  0
LWPOLYLINE
  5
1ff
100
AcDbEntity
  8
Layer_1
 62
1
100
AcDbPolyline
 90
2
 70
0
 10
139.426059
 20
117.933500
 30
0.0
 10
122.507633
 20
117.933500
 30
0.0
  0
LWPOLYLINE
  5
200
100
AcDbEntity
  8
Layer_1
 62
1
100
AcDbPolyline
 90
2
 70
0
 10
139.426059
 20
119.507769
 30
0.0
 10
122.507633
 20
119.507769
 30
0.0
  0
LWPOLYLINE
  5
201
100
AcDbEntity
  8
Layer_1
 62
1
100
AcDbPolyline
 90
2
 70
0
 10
139.426059
 20
121.081587
 30
0.0
 10
122.507633
 20
121.081587
 30
0.0
  0
LWPOLYLINE
  5
202
100
AcDbEntity
  8
Layer_1
 62
1
100
AcDbPolyline
 90
2
 70
0
 10
139.426059
 20
111.636650
 30
0.0
 10
122.507633
 20
111.636650
 30
0.0
  0
LWPOLYLINE
  5
203
100
AcDbEntity
  8
Layer_1
 62
1
100
AcDbPolyline
 90
2
 70
0
 10
139.426059
 20
110.062607
 30
0.0
 10
122.507633
 20
110.062607
 30
0.0
  0
LWPOLYLINE
  5
204
100
AcDbEntity
  8
Layer_1
 62
1
100
AcDbPolyline
 90
2
 70
0
 10
139.426059
 20
113.210920
 30
0.0
 10
122.507633
 20
113.210920
 30
0.0
  0
LWPOLYLINE
  5
205
100
AcDbEntity
  8
Layer_1
 62
1
100
AcDbPolyline
 90
2
 70
0
 10
139.426059
 20
114.784738
 30
0.0
 10
122.507633
 20
114.784738
 30
0.0
  0
LWPOLYLINE
  5
206
100
AcDbEntity
  8
Layer_1
 62
1
100
AcDbPolyline
 90
2
 70
0
 10
139.426059
 20
116.359383
 30
0.0
 10
122.507633
 20
116.359383
 30
0.0
  0
LWPOLYLINE
  5
207
100
AcDbEntity
  8
Layer_1
 62
1
100
AcDbPolyline
 90
2
 70
0
 10
159.373924
 20
114.784738
 30
0.0
 10
142.455873
 20
114.784738
 30
0.0
  0
LWPOLYLINE
  5
208
100
AcDbEntity
  8
Layer_1
 62
1
100
AcDbPolyline
 90
2
 70
0
 10
152.521596
 20
108.491797
 30
0.0
 10
152.521596
 20
106.056135
 30
0.0
  0
SPLINE
  5
209
100
AcDbEntity
  8
Layer_1
 62
1
100
AcDbSpline
 70
8
 71
3
 72
8
 73
4
 74
0
 40
0
 40
0
 40
0
 40
0
 40
1
 40
1
 40
1
 40
1
 10
152.536642
 20
106.051696
 30
0.0
 10
153.669343
 20
105.489447
 30
0.0
 10
154.398845
 20
104.318902
 30
0.0
 10
154.398845
 20
103.056869
 30
0.0
  0
SPLINE
  5
20a
100
AcDbEntity
  8
Layer_1
 62
1
100
AcDbSpline
 70
8
 71
3
 72
8
 73
4
 74
0
 40
0
 40
0
 40
0
 40
0
 40
1
 40
1
 40
1
 40
1
 10
154.398845
 20
103.056869
 30
0.0
 10
154.398845
 20
103.056869
 30
0.0
 10
154.398845
 20
101.212423
 30
0.0
 10
152.898084
 20
99.711661
 30
0.0
  0
SPLINE
  5
20b
100
AcDbEntity
  8
Layer_1
 62
1
100
AcDbSpline
 70
8
 71
3
 72
8
 73
4
 74
0
 40
0
 40
0
 40
0
 40
0
 40
1
 40
1
 40
1
 40
1
 10
152.898084
 20
99.711661
 30
0.0
 10
151.053561
 20
99.711661
 30
0.0
 10
151.053561
 20
99.711661
 30
0.0
 10
149.209115
 20
99.711661
 30
0.0
  0
SPLINE
  5
20c
100
AcDbEntity
  8
Layer_1
 62
1
100
AcDbSpline
 70
8
 71
3
 72
8
 73
4
 74
0
 40
0
 40
0
 40
0
 40
0
 40
1
 40
1
 40
1
 40
1
 10
149.209115
 20
99.711661
 30
0.0
 10
147.708353
 20
101.212423
 30
0.0
 10
147.708353
 20
103.056869
 30
0.0
 10
147.708353
 20
103.056869
 30
0.0
  0
SPLINE
  5
20d
100
AcDbEntity
  8
Layer_1
 62
1
100
AcDbSpline
 70
8
 71
3
 72
8
 73
4
 74
0
 40
0
 40
0
 40
0
 40
0
 40
1
 40
1
 40
1
 40
1
 10
147.708353
 20
103.056869
 30
0.0
 10
147.708353
 20
104.318902
 30
0.0
 10
148.437931
 20
105.489447
 30
0.0
 10
149.570557
 20
106.051696
 30
0.0
  0
LWPOLYLINE
  5
20e
100
AcDbEntity
  8
Layer_1
 62
1
100
AcDbPolyline
 90
2
 70
0
 10
149.585528
 20
106.056135
 30
0.0
 10
149.585528
 20
108.491797
 30
0.0
  0
LWPOLYLINE
  5
20f
100
AcDbEntity
  8
Layer_1
 62
1
100
AcDbPolyline
 90
2
 70
0
 10
159.443745
 20
108.495712
 30
0.0
 10
152.521596
 20
108.495785
 30
0.0
  0
LWPOLYLINE
  5
210
100
AcDbEntity
  8
Layer_1
 62
1
100
AcDbPolyline
 90
2
 70
0
 10
129.290443
 20
108.495785
 30
0.0
 10
122.507633
 20
108.495785
 30
0.0
  0
LWPOLYLINE
  5
211
100
AcDbEntity
  8
Layer_1
 62
7
100
AcDbPolyline
 90
3
 70
0
 10
149.585528
 20
108.491797
 30
0.0
 10
132.226511
 20
108.491797
 30
0.0
 10
132.226511
 20
106.056135
 30
0.0
  0
SPLINE
  5
212
100
AcDbEntity
  8
Layer_1
 62
1
100
AcDbSpline
 70
8
 71
3
 72
8
 73
4
 74
0
 40
0
 40
0
 40
0
 40
0
 40
1
 40
1
 40
1
 40
1
 10
132.241559
 20
106.051696
 30
0.0
 10
133.374258
 20
105.489447
 30
0.0
 10
134.103760
 20
104.318902
 30
0.0
 10
134.103760
 20
103.056869
 30
0.0
  0
SPLINE
  5
213
100
AcDbEntity
  8
Layer_1
 62
1
100
AcDbSpline
 70
8
 71
3
 72
8
 73
4
 74
0
 40
0
 40
0
 40
0
 40
0
 40
1
 40
1
 40
1
 40
1
 10
134.103760
 20
103.056869
 30
0.0
 10
134.103760
 20
103.056869
 30
0.0
 10
134.103760
 20
101.212423
 30
0.0
 10
132.602998
 20
99.711661
 30
0.0
  0
SPLINE
  5
214
100
AcDbEntity
  8
Layer_1
 62
1
100
AcDbSpline
 70
8
 71
3
 72
8
 73
4
 74
0
 40
0
 40
0
 40
0
 40
0
 40
1
 40
1
 40
1
 40
1
 10
132.602998
 20
99.711661
 30
0.0
 10
130.758475
 20
99.711661
 30
0.0
 10
130.758475
 20
99.711661
 30
0.0
 10
128.914029
 20
99.711661
 30
0.0
  0
SPLINE
  5
215
100
AcDbEntity
  8
Layer_1
 62
1
100
AcDbSpline
 70
8
 71
3
 72
8
 73
4
 74
0
 40
0
 40
0
 40
0
 40
0
 40
1
 40
1
 40
1
 40
1
 10
128.914029
 20
99.711661
 30
0.0
 10
127.413267
 20
101.212423
 30
0.0
 10
127.413267
 20
103.056869
 30
0.0
 10
127.413267
 20
103.056869
 30
0.0
  0
SPLINE
  5
216
100
AcDbEntity
  8
Layer_1
 62
1
100
AcDbSpline
 70
8
 71
3
 72
8
 73
4
 74
0
 40
0
 40
0
 40
0
 40
0
 40
1
 40
1
 40
1
 40
1
 10
127.413267
 20
103.056869
 30
0.0
 10
127.413267
 20
104.318902
 30
0.0
 10
128.142846
 20
105.489447
 30
0.0
 10
129.275471
 20
106.051696
 30
0.0
  0
LWPOLYLINE
  5
217
100
AcDbEntity
  8
Layer_1
 62
1
100
AcDbPolyline
 90
2
 70
0
 10
129.290443
 20
106.056135
 30
0.0
 10
129.290443
 20
108.491797
 30
0.0
  0
LWPOLYLINE
  5
218
100
AcDbEntity
  8
Layer_1
 62
1
100
AcDbPolyline
 90
2
 70
0
 10
109.100164
 20
71.559825
 30
0.0
 10
109.095733
 20
78.615220
 30
0.0
  0
LWPOLYLINE
  5
219
100
AcDbEntity
  8
Layer_1
 62
1
100
AcDbPolyline
 90
2
 70
0
 10
109.095724
 20
101.593801
 30
0.0
 10
109.100240
 20
108.495938
 30
0.0
  0
LWPOLYLINE
  5
21a
100
AcDbEntity
  8
Layer_1
 62
1
100
AcDbPolyline
 90
2
 70
0
 10
109.095724
 20
81.310529
 30
0.0
 10
109.095724
 20
98.898494
 30
0.0
  0
SPLINE
  5
21b
100
AcDbEntity
  8
Layer_1
 62
1
100
AcDbSpline
 70
8
 71
3
 72
8
 73
4
 74
0
 40
0
 40
0
 40
0
 40
0
 40
1
 40
1
 40
1
 40
1
 10
106.566014
 20
101.593801
 30
0.0
 10
106.566014
 20
101.593801
 30
0.0
 10
106.566014
 20
101.593801
 30
0.0
 10
106.549307
 20
101.632248
 30
0.0
  0
SPLINE
  5
21c
100
AcDbEntity
  8
Layer_1
 62
1
100
AcDbSpline
 70
8
 71
3
 72
8
 73
4
 74
0
 40
0
 40
0
 40
0
 40
0
 40
1
 40
1
 40
1
 40
1
 10
106.549312
 20
101.632248
 30
0.0
 10
106.017233
 20
102.740120
 30
0.0
 10
104.882124
 20
103.456005
 30
0.0
 10
103.657711
 20
103.456005
 30
0.0
  0
SPLINE
  5
21d
100
AcDbEntity
  8
Layer_1
 62
1
100
AcDbSpline
 70
8
 71
3
 72
8
 73
4
 74
0
 40
0
 40
0
 40
0
 40
0
 40
1
 40
1
 40
1
 40
1
 10
103.657711
 20
103.456005
 30
0.0
 10
103.657711
 20
103.456005
 30
0.0
 10
101.887899
 20
103.456005
 30
0.0
 10
100.448004
 20
102.016034
 30
0.0
  0
SPLINE
  5
21e
100
AcDbEntity
  8
Layer_1
 62
1
100
AcDbSpline
 70
8
 71
3
 72
8
 73
4
 74
0
 40
0
 40
0
 40
0
 40
0
 40
1
 40
1
 40
1
 40
1
 10
100.448004
 20
102.016034
 30
0.0
 10
100.448004
 20
100.246221
 30
0.0
 10
100.448004
 20
100.246221
 30
0.0
 10
100.448004
 20
98.476335
 30
0.0
  0
SPLINE
  5
21f
100
AcDbEntity
  8
Layer_1
 62
1
100
AcDbSpline
 70
8
 71
3
 72
8
 73
4
 74
0
 40
0
 40
0
 40
0
 40
0
 40
1
 40
1
 40
1
 40
1
 10
100.448004
 20
98.476335
 30
0.0
 10
101.887899
 20
97.036366
 30
0.0
 10
103.657711
 20
97.036366
 30
0.0
 10
103.657711
 20
97.036366
 30
0.0
  0
SPLINE
  5
220
100
AcDbEntity
  8
Layer_1
 62
1
100
AcDbSpline
 70
8
 71
3
 72
8
 73
4
 74
0
 40
0
 40
0
 40
0
 40
0
 40
1
 40
1
 40
1
 40
1
 10
103.657711
 20
97.036366
 30
0.0
 10
104.882124
 20
97.036366
 30
0.0
 10
106.017233
 20
97.752325
 30
0.0
 10
106.549312
 20
98.860123
 30
0.0
  0
LWPOLYLINE
  5
221
100
AcDbEntity
  8
Layer_1
 62
1
100
AcDbPolyline
 90
2
 70
0
 10
109.095724
 20
101.593801
 30
0.0
 10
106.566014
 20
101.593801
 30
0.0
  0
SPLINE
  5
222
100
AcDbEntity
  8
Layer_1
 62
1
100
AcDbSpline
 70
8
 71
3
 72
8
 73
4
 74
0
 40
0
 40
0
 40
0
 40
0
 40
1
 40
1
 40
1
 40
1
 10
106.565935
 20
98.898494
 30
0.0
 10
106.565935
 20
98.898494
 30
0.0
 10
106.565935
 20
98.898494
 30
0.0
 10
109.095719
 20
98.898494
 30
0.0
  0
LWPOLYLINE
  5
223
100
AcDbEntity
  8
Layer_1
 62
1
100
AcDbPolyline
 90
2
 70
0
 10
106.549312
 20
98.860123
 30
0.0
 10
106.565935
 20
98.898494
 30
0.0
  0
SPLINE
  5
224
100
AcDbEntity
  8
Layer_1
 62
1
100
AcDbSpline
 70
8
 71
3
 72
8
 73
4
 74
0
 40
0
 40
0
 40
0
 40
0
 40
1
 40
1
 40
1
 40
1
 10
106.567744
 20
81.310529
 30
0.0
 10
106.567744
 20
81.310529
 30
0.0
 10
106.567744
 20
81.310529
 30
0.0
 10
106.549315
 20
81.348974
 30
0.0
  0
SPLINE
  5
225
100
AcDbEntity
  8
Layer_1
 62
1
100
AcDbSpline
 70
8
 71
3
 72
8
 73
4
 74
0
 40
0
 40
0
 40
0
 40
0
 40
1
 40
1
 40
1
 40
1
 10
106.549312
 20
81.348974
 30
0.0
 10
106.017233
 20
82.456845
 30
0.0
 10
104.882124
 20
83.172730
 30
0.0
 10
103.657711
 20
83.172730
 30
0.0
  0
SPLINE
  5
226
100
AcDbEntity
  8
Layer_1
 62
1
100
AcDbSpline
 70
8
 71
3
 72
8
 73
4
 74
0
 40
0
 40
0
 40
0
 40
0
 40
1
 40
1
 40
1
 40
1
 10
103.657711
 20
83.172730
 30
0.0
 10
103.657711
 20
83.172730
 30
0.0
 10
101.887899
 20
83.172730
 30
0.0
 10
100.448004
 20
81.732759
 30
0.0
  0
SPLINE
  5
227
100
AcDbEntity
  8
Layer_1
 62
1
100
AcDbSpline
 70
8
 71
3
 72
8
 73
4
 74
0
 40
0
 40
0
 40
0
 40
0
 40
1
 40
1
 40
1
 40
1
 10
100.448004
 20
81.732759
 30
0.0
 10
100.448004
 20
79.962949
 30
0.0
 10
100.448004
 20
79.962949
 30
0.0
 10
100.448004
 20
78.193063
 30
0.0
  0
SPLINE
  5
228
100
AcDbEntity
  8
Layer_1
 62
1
100
AcDbSpline
 70
8
 71
3
 72
8
 73
4
 74
0
 40
0
 40
0
 40
0
 40
0
 40
1
 40
1
 40
1
 40
1
 10
100.448004
 20
78.193063
 30
0.0
 10
101.887899
 20
76.753092
 30
0.0
 10
103.657711
 20
76.753092
 30
0.0
 10
103.657711
 20
76.753092
 30
0.0
  0
SPLINE
  5
229
100
AcDbEntity
  8
Layer_1
 62
1
100
AcDbSpline
 70
8
 71
3
 72
8
 73
4
 74
0
 40
0
 40
0
 40
0
 40
0
 40
1
 40
1
 40
1
 40
1
 10
103.657711
 20
76.753092
 30
0.0
 10
104.882124
 20
76.753092
 30
0.0
 10
106.017233
 20
77.469053
 30
0.0
 10
106.549312
 20
78.576849
 30
0.0
  0
LWPOLYLINE
  5
22a
100
AcDbEntity
  8
Layer_1
 62
1
100
AcDbPolyline
 90
2
 70
0
 10
109.085192
 20
81.310529
 30
0.0
 10
106.567744
 20
81.310529
 30
0.0
  0
SPLINE
  5
22b
100
AcDbEntity
  8
Layer_1
 62
1
100
AcDbSpline
 70
8
 71
3
 72
8
 73
4
 74
0
 40
0
 40
0
 40
0
 40
0
 40
1
 40
1
 40
1
 40
1
 10
106.567741
 20
78.615220
 30
0.0
 10
106.567741
 20
78.615220
 30
0.0
 10
106.567741
 20
78.615220
 30
0.0
 10
109.095721
 20
78.615220
 30
0.0
  0
LWPOLYLINE
  5
22c
100
AcDbEntity
  8
Layer_1
 62
1
100
AcDbPolyline
 90
2
 70
0
 10
106.549312
 20
78.576849
 30
0.0
 10
106.567741
 20
78.615220
 30
0.0
  0
SPLINE
  5
22d
100
AcDbEntity
  8
Layer_1
 62
7
100
AcDbSpline
 70
8
 71
3
 72
8
 73
4
 74
0
 40
0
 40
0
 40
0
 40
0
 40
1
 40
1
 40
1
 40
1
 10
72.243954
 20
121.872334
 30
0.0
 10
72.243954
 20
121.872334
 30
0.0
 10
72.243954
 20
121.872334
 30
0.0
 10
72.243954
 20
108.491349
 30
0.0
  0
LWPOLYLINE
  5
22e
100
AcDbEntity
  8
Layer_1
 62
7
100
AcDbPolyline
 90
2
 70
0
 10
58.862968
 20
121.872334
 30
0.0
 10
72.243954
 20
121.872334
 30
0.0
  0
SPLINE
  5
22f
100
AcDbEntity
  8
Layer_1
 62
7
100
AcDbSpline
 70
8
 71
3
 72
8
 73
4
 74
0
 40
0
 40
0
 40
0
 40
0
 40
1
 40
1
 40
1
 40
1
 10
72.243954
 20
108.491349
 30
0.0
 10
58.862968
 20
108.491349
 30
0.0
 10
58.862968
 20
108.491349
 30
0.0
 10
58.862968
 20
108.491349
 30
0.0
  0
LWPOLYLINE
  5
230
100
AcDbEntity
  8
Layer_1
 62
7
100
AcDbPolyline
 90
2
 70
0
 10
72.243954
 20
108.491349
 30
0.0
 10
72.243954
 20
108.491349
 30
0.0
  0
LWPOLYLINE
  5
231
100
AcDbEntity
  8
Layer_1
 62
7
100
AcDbPolyline
 90
3
 70
0
 10
58.862968
 20
108.491349
 30
0.0
 10
58.862968
 20
121.872334
 30
0.0
 10
58.862968
 20
121.872334
 30
0.0
  0
LWPOLYLINE
  5
232
100
AcDbEntity
  8
Layer_1
 62
1
100
AcDbPolyline
 90
2
 70
0
 10
72.237860
 20
73.389376
 30
0.0
 10
72.237860
 20
106.335191
 30
0.0
  0
LWPOLYLINE
  5
233
100
AcDbEntity
  8
Layer_1
 62
1
100
AcDbPolyline
 90
2
 70
0
 10
67.515278
 20
73.389376
 30
0.0
 10
67.515278
 20
106.335191
 30
0.0
  0
LWPOLYLINE
  5
234
100
AcDbEntity
  8
Layer_1
 62
1
100
AcDbPolyline
 90
2
 70
0
 10
69.089322
 20
73.389376
 30
0.0
 10
69.089322
 20
106.335191
 30
0.0
  0
LWPOLYLINE
  5
235
100
AcDbEntity
  8
Layer_1
 62
1
100
AcDbPolyline
 90
2
 70
0
 10
70.663591
 20
73.389376
 30
0.0
 10
70.663591
 20
106.335191
 30
0.0
  0
LWPOLYLINE
  5
236
100
AcDbEntity
  8
Layer_1
 62
1
100
AcDbPolyline
 90
2
 70
0
 10
61.218502
 20
73.389376
 30
0.0
 10
61.218655
 20
106.335191
 30
0.0
  0
LWPOLYLINE
  5
237
100
AcDbEntity
  8
Layer_1
 62
1
100
AcDbPolyline
 90
2
 70
0
 10
59.644010
 20
73.389376
 30
0.0
 10
59.644159
 20
106.335191
 30
0.0
  0
LWPOLYLINE
  5
238
100
AcDbEntity
  8
Layer_1
 62
1
100
AcDbPolyline
 90
2
 70
0
 10
62.792622
 20
73.389376
 30
0.0
 10
62.792772
 20
106.335191
 30
0.0
  0
LWPOLYLINE
  5
239
100
AcDbEntity
  8
Layer_1
 62
1
100
AcDbPolyline
 90
2
 70
0
 10
64.366892
 20
73.389376
 30
0.0
 10
64.366892
 20
106.335191
 30
0.0
  0
LWPOLYLINE
  5
23a
100
AcDbEntity
  8
Layer_1
 62
1
100
AcDbPolyline
 90
2
 70
0
 10
65.941009
 20
73.389376
 30
0.0
 10
65.941009
 20
106.335191
 30
0.0
  0
LWPOLYLINE
  5
23b
100
AcDbEntity
  8
Layer_1
 62
1
100
AcDbPolyline
 90
2
 70
0
 10
66.728296
 20
71.608505
 30
0.0
 10
66.728296
 20
88.526554
 30
0.0
  0
LWPOLYLINE
  5
23c
100
AcDbEntity
  8
Layer_1
 62
1
100
AcDbPolyline
 90
2
 70
0
 10
68.302413
 20
71.608505
 30
0.0
 10
68.302413
 20
88.526554
 30
0.0
  0
LWPOLYLINE
  5
23d
100
AcDbEntity
  8
Layer_1
 62
1
100
AcDbPolyline
 90
2
 70
0
 10
69.876682
 20
71.608505
 30
0.0
 10
69.876682
 20
88.526554
 30
0.0
  0
LWPOLYLINE
  5
23e
100
AcDbEntity
  8
Layer_1
 62
1
100
AcDbPolyline
 90
2
 70
0
 10
71.450500
 20
71.608505
 30
0.0
 10
71.450500
 20
88.526554
 30
0.0
  0
LWPOLYLINE
  5
23f
100
AcDbEntity
  8
Layer_1
 62
1
100
AcDbPolyline
 90
2
 70
0
 10
60.431444
 20
71.608505
 30
0.0
 10
60.431520
 20
88.526554
 30
0.0
  0
LWPOLYLINE
  5
240
100
AcDbEntity
  8
Layer_1
 62
1
100
AcDbPolyline
 90
2
 70
0
 10
62.005487
 20
71.608505
 30
0.0
 10
62.005564
 20
88.526554
 30
0.0
  0
LWPOLYLINE
  5
241
100
AcDbEntity
  8
Layer_1
 62
1
100
AcDbPolyline
 90
2
 70
0
 10
63.579757
 20
71.608505
 30
0.0
 10
63.579833
 20
88.526554
 30
0.0
  0
LWPOLYLINE
  5
242
100
AcDbEntity
  8
Layer_1
 62
1
100
AcDbPolyline
 90
2
 70
0
 10
68.302413
 20
91.556367
 30
0.0
 10
68.302413
 20
108.474796
 30
0.0
  0
LWPOLYLINE
  5
243
100
AcDbEntity
  8
Layer_1
 62
1
100
AcDbPolyline
 90
2
 70
0
 10
69.876682
 20
91.556367
 30
0.0
 10
69.876682
 20
108.474796
 30
0.0
  0
LWPOLYLINE
  5
244
100
AcDbEntity
  8
Layer_1
 62
1
100
AcDbPolyline
 90
2
 70
0
 10
71.450500
 20
91.556367
 30
0.0
 10
71.450500
 20
108.474796
 30
0.0
  0
LWPOLYLINE
  5
245
100
AcDbEntity
  8
Layer_1
 62
1
100
AcDbPolyline
 90
2
 70
0
 10
62.005564
 20
91.556367
 30
0.0
 10
62.005564
 20
108.474796
 30
0.0
  0
LWPOLYLINE
  5
246
100
AcDbEntity
  8
Layer_1
 62
1
100
AcDbPolyline
 90
2
 70
0
 10
60.431520
 20
91.556367
 30
0.0
 10
60.431520
 20
108.474796
 30
0.0
  0
LWPOLYLINE
  5
247
100
AcDbEntity
  8
Layer_1
 62
1
100
AcDbPolyline
 90
2
 70
0
 10
63.579833
 20
91.556367
 30
0.0
 10
63.579833
 20
108.474796
 30
0.0
  0
LWPOLYLINE
  5
248
100
AcDbEntity
  8
Layer_1
 62
1
100
AcDbPolyline
 90
2
 70
0
 10
65.153648
 20
91.556367
 30
0.0
 10
65.153648
 20
108.474796
 30
0.0
  0
LWPOLYLINE
  5
249
100
AcDbEntity
  8
Layer_1
 62
1
100
AcDbPolyline
 90
2
 70
0
 10
66.728296
 20
91.556367
 30
0.0
 10
66.728296
 20
108.474796
 30
0.0
  0
LWPOLYLINE
  5
24a
100
AcDbEntity
  8
Layer_1
 62
1
100
AcDbPolyline
 90
2
 70
0
 10
65.153648
 20
71.608505
 30
0.0
 10
65.153648
 20
88.526554
 30
0.0
  0
LWPOLYLINE
  5
24b
100
AcDbEntity
  8
Layer_1
 62
1
100
AcDbPolyline
 90
2
 70
0
 10
58.860711
 20
78.460833
 30
0.0
 10
56.425048
 20
78.460833
 30
0.0
  0
SPLINE
  5
24c
100
AcDbEntity
  8
Layer_1
 62
1
100
AcDbSpline
 70
8
 71
3
 72
8
 73
4
 74
0
 40
0
 40
0
 40
0
 40
0
 40
1
 40
1
 40
1
 40
1
 10
56.420609
 20
78.445785
 30
0.0
 10
55.858360
 20
77.313086
 30
0.0
 10
54.687815
 20
76.583584
 30
0.0
 10
53.425782
 20
76.583584
 30
0.0
  0
SPLINE
  5
24d
100
AcDbEntity
  8
Layer_1
 62
1
100
AcDbSpline
 70
8
 71
3
 72
8
 73
4
 74
0
 40
0
 40
0
 40
0
 40
0
 40
1
 40
1
 40
1
 40
1
 10
53.425782
 20
76.583584
 30
0.0
 10
53.425782
 20
76.583584
 30
0.0
 10
51.581333
 20
76.583584
 30
0.0
 10
50.080571
 20
78.084345
 30
0.0
  0
SPLINE
  5
24e
100
AcDbEntity
  8
Layer_1
 62
1
100
AcDbSpline
 70
8
 71
3
 72
8
 73
4
 74
0
 40
0
 40
0
 40
0
 40
0
 40
1
 40
1
 40
1
 40
1
 10
50.080571
 20
78.084345
 30
0.0
 10
50.080571
 20
79.928868
 30
0.0
 10
50.080571
 20
79.928868
 30
0.0
 10
50.080571
 20
81.773314
 30
0.0
  0
SPLINE
  5
24f
100
AcDbEntity
  8
Layer_1
 62
1
100
AcDbSpline
 70
8
 71
3
 72
8
 73
4
 74
0
 40
0
 40
0
 40
0
 40
0
 40
1
 40
1
 40
1
 40
1
 10
50.080571
 20
81.773314
 30
0.0
 10
51.581333
 20
83.274076
 30
0.0
 10
53.425782
 20
83.274076
 30
0.0
 10
53.425782
 20
83.274076
 30
0.0
  0
SPLINE
  5
250
100
AcDbEntity
  8
Layer_1
 62
1
100
AcDbSpline
 70
8
 71
3
 72
8
 73
4
 74
0
 40
0
 40
0
 40
0
 40
0
 40
1
 40
1
 40
1
 40
1
 10
53.425782
 20
83.274076
 30
0.0
 10
54.687815
 20
83.274076
 30
0.0
 10
55.858360
 20
82.544498
 30
0.0
 10
56.420609
 20
81.411872
 30
0.0
  0
LWPOLYLINE
  5
251
100
AcDbEntity
  8
Layer_1
 62
1
100
AcDbPolyline
 90
2
 70
0
 10
56.425048
 20
81.396901
 30
0.0
 10
58.860711
 20
81.396901
 30
0.0
  0
LWPOLYLINE
  5
252
100
AcDbEntity
  8
Layer_1
 62
1
100
AcDbPolyline
 90
2
 70
0
 10
58.864622
 20
71.538684
 30
0.0
 10
58.864698
 20
78.460833
 30
0.0
  0
LWPOLYLINE
  5
253
100
AcDbEntity
  8
Layer_1
 62
1
100
AcDbPolyline
 90
2
 70
0
 10
58.864698
 20
101.691986
 30
0.0
 10
58.864698
 20
108.474796
 30
0.0
  0
LWPOLYLINE
  5
254
100
AcDbEntity
  8
Layer_1
 62
7
100
AcDbPolyline
 90
3
 70
0
 10
58.860711
 20
81.396901
 30
0.0
 10
58.860711
 20
98.755918
 30
0.0
 10
56.425048
 20
98.755918
 30
0.0
  0
SPLINE
  5
255
100
AcDbEntity
  8
Layer_1
 62
1
100
AcDbSpline
 70
8
 71
3
 72
8
 73
4
 74
0
 40
0
 40
0
 40
0
 40
0
 40
1
 40
1
 40
1
 40
1
 10
56.420609
 20
98.740870
 30
0.0
 10
55.858360
 20
97.608171
 30
0.0
 10
54.687815
 20
96.878669
 30
0.0
 10
53.425782
 20
96.878669
 30
0.0
  0
SPLINE
  5
256
100
AcDbEntity
  8
Layer_1
 62
1
100
AcDbSpline
 70
8
 71
3
 72
8
 73
4
 74
0
 40
0
 40
0
 40
0
 40
0
 40
1
 40
1
 40
1
 40
1
 10
53.425782
 20
96.878669
 30
0.0
 10
53.425782
 20
96.878669
 30
0.0
 10
51.581333
 20
96.878669
 30
0.0
 10
50.080571
 20
98.379431
 30
0.0
  0
SPLINE
  5
257
100
AcDbEntity
  8
Layer_1
 62
1
100
AcDbSpline
 70
8
 71
3
 72
8
 73
4
 74
0
 40
0
 40
0
 40
0
 40
0
 40
1
 40
1
 40
1
 40
1
 10
50.080571
 20
98.379431
 30
0.0
 10
50.080571
 20
100.223951
 30
0.0
 10
50.080571
 20
100.223951
 30
0.0
 10
50.080571
 20
102.068400
 30
0.0
  0
SPLINE
  5
258
100
AcDbEntity
  8
Layer_1
 62
1
100
AcDbSpline
 70
8
 71
3
 72
8
 73
4
 74
0
 40
0
 40
0
 40
0
 40
0
 40
1
 40
1
 40
1
 40
1
 10
50.080571
 20
102.068400
 30
0.0
 10
51.581333
 20
103.569162
 30
0.0
 10
53.425782
 20
103.569162
 30
0.0
 10
53.425782
 20
103.569162
 30
0.0
  0
SPLINE
  5
259
100
AcDbEntity
  8
Layer_1
 62
1
100
AcDbSpline
 70
8
 71
3
 72
8
 73
4
 74
0
 40
0
 40
0
 40
0
 40
0
 40
1
 40
1
 40
1
 40
1
 10
53.425782
 20
103.569162
 30
0.0
 10
54.687815
 20
103.569162
 30
0.0
 10
55.858360
 20
102.839583
 30
0.0
 10
56.420609
 20
101.706958
 30
0.0
  0
LWPOLYLINE
  5
25a
100
AcDbEntity
  8
Layer_1
 62
1
100
AcDbPolyline
 90
2
 70
0
 10
56.425048
 20
101.691986
 30
0.0
 10
58.860711
 20
101.691986
 30
0.0
  0
LWPOLYLINE
  5
25b
100
AcDbEntity
  8
Layer_1
 62
1
100
AcDbPolyline
 90
2
 70
0
 10
21.928738
 20
121.882265
 30
0.0
 10
28.984133
 20
121.886696
 30
0.0
  0
LWPOLYLINE
  5
25c
100
AcDbEntity
  8
Layer_1
 62
1
100
AcDbPolyline
 90
2
 70
0
 10
51.962714
 20
121.886705
 30
0.0
 10
58.864848
 20
121.882189
 30
0.0
  0
LWPOLYLINE
  5
25d
100
AcDbEntity
  8
Layer_1
 62
1
100
AcDbPolyline
 90
2
 70
0
 10
31.679440
 20
121.886705
 30
0.0
 10
49.267404
 20
121.886705
 30
0.0
  0
SPLINE
  5
25e
100
AcDbEntity
  8
Layer_1
 62
1
100
AcDbSpline
 70
8
 71
3
 72
8
 73
4
 74
0
 40
0
 40
0
 40
0
 40
0
 40
1
 40
1
 40
1
 40
1
 10
51.962714
 20
124.416415
 30
0.0
 10
51.962714
 20
124.416415
 30
0.0
 10
51.962714
 20
124.416415
 30
0.0
 10
52.001158
 20
124.433122
 30
0.0
  0
SPLINE
  5
25f
100
AcDbEntity
  8
Layer_1
 62
1
100
AcDbSpline
 70
8
 71
3
 72
8
 73
4
 74
0
 40
0
 40
0
 40
0
 40
0
 40
1
 40
1
 40
1
 40
1
 10
52.001158
 20
124.433117
 30
0.0
 10
53.109030
 20
124.965196
 30
0.0
 10
53.824915
 20
126.100305
 30
0.0
 10
53.824915
 20
127.324718
 30
0.0
  0
SPLINE
  5
260
100
AcDbEntity
  8
Layer_1
 62
1
100
AcDbSpline
 70
8
 71
3
 72
8
 73
4
 74
0
 40
0
 40
0
 40
0
 40
0
 40
1
 40
1
 40
1
 40
1
 10
53.824915
 20
127.324718
 30
0.0
 10
53.824915
 20
127.324718
 30
0.0
 10
53.824915
 20
129.094530
 30
0.0
 10
52.384947
 20
130.534425
 30
0.0
  0
SPLINE
  5
261
100
AcDbEntity
  8
Layer_1
 62
1
100
AcDbSpline
 70
8
 71
3
 72
8
 73
4
 74
0
 40
0
 40
0
 40
0
 40
0
 40
1
 40
1
 40
1
 40
1
 10
52.384947
 20
130.534425
 30
0.0
 10
50.615134
 20
130.534425
 30
0.0
 10
50.615134
 20
130.534425
 30
0.0
 10
48.845248
 20
130.534425
 30
0.0
  0
SPLINE
  5
262
100
AcDbEntity
  8
Layer_1
 62
1
100
AcDbSpline
 70
8
 71
3
 72
8
 73
4
 74
0
 40
0
 40
0
 40
0
 40
0
 40
1
 40
1
 40
1
 40
1
 10
48.845248
 20
130.534425
 30
0.0
 10
47.405277
 20
129.094530
 30
0.0
 10
47.405277
 20
127.324718
 30
0.0
 10
47.405277
 20
127.324718
 30
0.0
  0
SPLINE
  5
263
100
AcDbEntity
  8
Layer_1
 62
1
100
AcDbSpline
 70
8
 71
3
 72
8
 73
4
 74
0
 40
0
 40
0
 40
0
 40
0
 40
1
 40
1
 40
1
 40
1
 10
47.405277
 20
127.324718
 30
0.0
 10
47.405277
 20
126.100305
 30
0.0
 10
48.121238
 20
124.965196
 30
0.0
 10
49.229033
 20
124.433117
 30
0.0
  0
LWPOLYLINE
  5
264
100
AcDbEntity
  8
Layer_1
 62
1
100
AcDbPolyline
 90
2
 70
0
 10
51.962714
 20
121.886705
 30
0.0
 10
51.962714
 20
124.416415
 30
0.0
  0
SPLINE
  5
265
100
AcDbEntity
  8
Layer_1
 62
1
100
AcDbSpline
 70
8
 71
3
 72
8
 73
4
 74
0
 40
0
 40
0
 40
0
 40
0
 40
1
 40
1
 40
1
 40
1
 10
49.267404
 20
124.416494
 30
0.0
 10
49.267404
 20
124.416494
 30
0.0
 10
49.267404
 20
124.416494
 30
0.0
 10
49.267404
 20
121.886710
 30
0.0
  0
LWPOLYLINE
  5
266
100
AcDbEntity
  8
Layer_1
 62
1
100
AcDbPolyline
 90
2
 70
0
 10
49.229033
 20
124.433117
 30
0.0
 10
49.267404
 20
124.416494
 30
0.0
  0
SPLINE
  5
267
100
AcDbEntity
  8
Layer_1
 62
1
100
AcDbSpline
 70
8
 71
3
 72
8
 73
4
 74
0
 40
0
 40
0
 40
0
 40
0
 40
1
 40
1
 40
1
 40
1
 10
31.679440
 20
124.414682
 30
0.0
 10
31.679440
 20
124.414682
 30
0.0
 10
31.679440
 20
124.414682
 30
0.0
 10
31.717887
 20
124.433111
 30
0.0
  0
SPLINE
  5
268
100
AcDbEntity
  8
Layer_1
 62
1
100
AcDbSpline
 70
8
 71
3
 72
8
 73
4
 74
0
 40
0
 40
0
 40
0
 40
0
 40
1
 40
1
 40
1
 40
1
 10
31.717887
 20
124.433117
 30
0.0
 10
32.825759
 20
124.965196
 30
0.0
 10
33.541643
 20
126.100305
 30
0.0
 10
33.541643
 20
127.324718
 30
0.0
  0
SPLINE
  5
269
100
AcDbEntity
  8
Layer_1
 62
1
100
AcDbSpline
 70
8
 71
3
 72
8
 73
4
 74
0
 40
0
 40
0
 40
0
 40
0
 40
1
 40
1
 40
1
 40
1
 10
33.541643
 20
127.324718
 30
0.0
 10
33.541643
 20
127.324718
 30
0.0
 10
33.541643
 20
129.094530
 30
0.0
 10
32.101672
 20
130.534425
 30
0.0
  0
SPLINE
  5
26a
100
AcDbEntity
  8
Layer_1
 62
1
100
AcDbSpline
 70
8
 71
3
 72
8
 73
4
 74
0
 40
0
 40
0
 40
0
 40
0
 40
1
 40
1
 40
1
 40
1
 10
32.101672
 20
130.534425
 30
0.0
 10
30.331862
 20
130.534425
 30
0.0
 10
30.331862
 20
130.534425
 30
0.0
 10
28.561976
 20
130.534425
 30
0.0
  0
SPLINE
  5
26b
100
AcDbEntity
  8
Layer_1
 62
1
100
AcDbSpline
 70
8
 71
3
 72
8
 73
4
 74
0
 40
0
 40
0
 40
0
 40
0
 40
1
 40
1
 40
1
 40
1
 10
28.561976
 20
130.534425
 30
0.0
 10
27.122005
 20
129.094530
 30
0.0
 10
27.122005
 20
127.324718
 30
0.0
 10
27.122005
 20
127.324718
 30
0.0
  0
SPLINE
  5
26c
100
AcDbEntity
  8
Layer_1
 62
1
100
AcDbSpline
 70
8
 71
3
 72
8
 73
4
 74
0
 40
0
 40
0
 40
0
 40
0
 40
1
 40
1
 40
1
 40
1
 10
27.122005
 20
127.324718
 30
0.0
 10
27.122005
 20
126.100305
 30
0.0
 10
27.837965
 20
124.965196
 30
0.0
 10
28.945762
 20
124.433117
 30
0.0
  0
LWPOLYLINE
  5
26d
100
AcDbEntity
  8
Layer_1
 62
1
100
AcDbPolyline
 90
2
 70
0
 10
31.679440
 20
121.897237
 30
0.0
 10
31.679440
 20
124.414682
 30
0.0
  0
SPLINE
  5
26e
100
AcDbEntity
  8
Layer_1
 62
1
100
AcDbSpline
 70
8
 71
3
 72
8
 73
4
 74
0
 40
0
 40
0
 40
0
 40
0
 40
1
 40
1
 40
1
 40
1
 10
28.984133
 20
124.414688
 30
0.0
 10
28.984133
 20
124.414688
 30
0.0
 10
28.984133
 20
124.414688
 30
0.0
 10
28.984133
 20
121.886710
 30
0.0
  0
LWPOLYLINE
  5
26f
100
AcDbEntity
  8
Layer_1
 62
1
100
AcDbPolyline
 90
2
 70
0
 10
28.945762
 20
124.433117
 30
0.0
 10
28.984133
 20
124.414688
 30
0.0
  0
LWPOLYLINE
  5
270
100
AcDbEntity
  8
Layer_1
 62
1
100
AcDbPolyline
 90
2
 70
0
 10
74.012186
 20
208.977175
 30
0.0
 10
106.958001
 20
208.977175
 30
0.0
  0
LWPOLYLINE
  5
271
100
AcDbEntity
  8
Layer_1
 62
1
100
AcDbPolyline
 90
2
 70
0
 10
74.012186
 20
213.699755
 30
0.0
 10
106.958001
 20
213.699755
 30
0.0
  0
LWPOLYLINE
  5
272
100
AcDbEntity
  8
Layer_1
 62
1
100
AcDbPolyline
 90
2
 70
0
 10
74.012186
 20
212.125711
 30
0.0
 10
106.958001
 20
212.125711
 30
0.0
  0
LWPOLYLINE
  5
273
100
AcDbEntity
  8
Layer_1
 62
1
100
AcDbPolyline
 90
2
 70
0
 10
74.012186
 20
210.551441
 30
0.0
 10
106.958001
 20
210.551441
 30
0.0
  0
LWPOLYLINE
  5
274
100
AcDbEntity
  8
Layer_1
 62
1
100
AcDbPolyline
 90
2
 70
0
 10
74.012186
 20
219.996530
 30
0.0
 10
106.958001
 20
219.996381
 30
0.0
  0
LWPOLYLINE
  5
275
100
AcDbEntity
  8
Layer_1
 62
1
100
AcDbPolyline
 90
2
 70
0
 10
74.012186
 20
221.571025
 30
0.0
 10
106.958001
 20
221.570876
 30
0.0
  0
LWPOLYLINE
  5
276
100
AcDbEntity
  8
Layer_1
 62
1
100
AcDbPolyline
 90
2
 70
0
 10
74.012186
 20
218.422413
 30
0.0
 10
106.958001
 20
218.422261
 30
0.0
  0
LWPOLYLINE
  5
277
100
AcDbEntity
  8
Layer_1
 62
1
100
AcDbPolyline
 90
2
 70
0
 10
74.012186
 20
216.848144
 30
0.0
 10
106.958001
 20
216.848144
 30
0.0
  0
LWPOLYLINE
  5
278
100
AcDbEntity
  8
Layer_1
 62
1
100
AcDbPolyline
 90
2
 70
0
 10
74.012186
 20
215.274024
 30
0.0
 10
106.958001
 20
215.274024
 30
0.0
  0
LWPOLYLINE
  5
279
100
AcDbEntity
  8
Layer_1
 62
1
100
AcDbPolyline
 90
2
 70
0
 10
72.231316
 20
214.486740
 30
0.0
 10
89.149364
 20
214.486740
 30
0.0
  0
LWPOLYLINE
  5
27a
100
AcDbEntity
  8
Layer_1
 62
1
100
AcDbPolyline
 90
2
 70
0
 10
72.231316
 20
212.912620
 30
0.0
 10
89.149364
 20
212.912620
 30
0.0
  0
LWPOLYLINE
  5
27b
100
AcDbEntity
  8
Layer_1
 62
1
100
AcDbPolyline
 90
2
 70
0
 10
72.231316
 20
211.338350
 30
0.0
 10
89.149364
 20
211.338350
 30
0.0
  0
LWPOLYLINE
  5
27c
100
AcDbEntity
  8
Layer_1
 62
1
100
AcDbPolyline
 90
2
 70
0
 10
72.231316
 20
209.764533
 30
0.0
 10
89.149364
 20
209.764533
 30
0.0
  0
LWPOLYLINE
  5
27d
100
AcDbEntity
  8
Layer_1
 62
1
100
AcDbPolyline
 90
2
 70
0
 10
72.231316
 20
220.783589
 30
0.0
 10
89.149364
 20
220.783515
 30
0.0
  0
LWPOLYLINE
  5
27e
100
AcDbEntity
  8
Layer_1
 62
1
100
AcDbPolyline
 90
2
 70
0
 10
72.231316
 20
219.209545
 30
0.0
 10
89.149364
 20
219.209472
 30
0.0
  0
LWPOLYLINE
  5
27f
100
AcDbEntity
  8
Layer_1
 62
1
100
AcDbPolyline
 90
2
 70
0
 10
72.231316
 20
217.635279
 30
0.0
 10
89.149364
 20
217.635202
 30
0.0
  0
LWPOLYLINE
  5
280
100
AcDbEntity
  8
Layer_1
 62
1
100
AcDbPolyline
 90
2
 70
0
 10
92.179177
 20
212.912620
 30
0.0
 10
109.097607
 20
212.912620
 30
0.0
  0
LWPOLYLINE
  5
281
100
AcDbEntity
  8
Layer_1
 62
1
100
AcDbPolyline
 90
2
 70
0
 10
92.179177
 20
211.338350
 30
0.0
 10
109.097607
 20
211.338350
 30
0.0
  0
LWPOLYLINE
  5
282
100
AcDbEntity
  8
Layer_1
 62
1
100
AcDbPolyline
 90
2
 70
0
 10
92.179177
 20
209.764533
 30
0.0
 10
109.097607
 20
209.764533
 30
0.0
  0
LWPOLYLINE
  5
283
100
AcDbEntity
  8
Layer_1
 62
1
100
AcDbPolyline
 90
2
 70
0
 10
92.179177
 20
219.209472
 30
0.0
 10
109.097607
 20
219.209472
 30
0.0
  0
LWPOLYLINE
  5
284
100
AcDbEntity
  8
Layer_1
 62
1
100
AcDbPolyline
 90
2
 70
0
 10
92.179177
 20
220.783515
 30
0.0
 10
109.097607
 20
220.783515
 30
0.0
  0
LWPOLYLINE
  5
285
100
AcDbEntity
  8
Layer_1
 62
1
100
AcDbPolyline
 90
2
 70
0
 10
92.179177
 20
217.635202
 30
0.0
 10
109.097607
 20
217.635202
 30
0.0
  0
LWPOLYLINE
  5
286
100
AcDbEntity
  8
Layer_1
 62
1
100
AcDbPolyline
 90
2
 70
0
 10
92.179177
 20
216.061384
 30
0.0
 10
109.097607
 20
216.061384
 30
0.0
  0
LWPOLYLINE
  5
287
100
AcDbEntity
  8
Layer_1
 62
1
100
AcDbPolyline
 90
2
 70
0
 10
92.179177
 20
214.486740
 30
0.0
 10
109.097607
 20
214.486740
 30
0.0
  0
LWPOLYLINE
  5
288
100
AcDbEntity
  8
Layer_1
 62
1
100
AcDbPolyline
 90
2
 70
0
 10
72.231316
 20
216.061384
 30
0.0
 10
89.149364
 20
216.061384
 30
0.0
  0
LWPOLYLINE
  5
289
100
AcDbEntity
  8
Layer_1
 62
7
100
AcDbPolyline
 90
7
 70
0
 10
109.125216
 20
208.979280
 30
0.0
 10
122.506205
 20
208.979280
 30
0.0
 10
122.506205
 20
222.360266
 30
0.0
 10
109.125216
 20
222.360266
 30
0.0
 10
109.125216
 20
208.979280
 30
0.0
 10
109.125216
 20
208.979280
 30
0.0
 10
109.125216
 20
208.979280
 30
0.0
  0
LWPOLYLINE
  5
28a
100
AcDbEntity
  8
Layer_1
 62
1
100
AcDbPolyline
 90
2
 70
0
 10
79.073412
 20
222.354249
 30
0.0
 10
79.073412
 20
224.789911
 30
0.0
  0
SPLINE
  5
28b
100
AcDbEntity
  8
Layer_1
 62
1
100
AcDbSpline
 70
8
 71
3
 72
8
 73
4
 74
0
 40
0
 40
0
 40
0
 40
0
 40
1
 40
1
 40
1
 40
1
 10
79.058364
 20
224.794350
 30
0.0
 10
77.925663
 20
225.356599
 30
0.0
 10
77.196161
 20
226.527144
 30
0.0
 10
77.196161
 20
227.789177
 30
0.0
  0
SPLINE
  5
28c
100
AcDbEntity
  8
Layer_1
 62
1
100
AcDbSpline
 70
8
 71
3
 72
8
 73
4
 74
0
 40
0
 40
0
 40
0
 40
0
 40
1
 40
1
 40
1
 40
1
 10
77.196161
 20
227.789177
 30
0.0
 10
77.196161
 20
227.789177
 30
0.0
 10
77.196161
 20
229.633623
 30
0.0
 10
78.696922
 20
231.134385
 30
0.0
  0
SPLINE
  5
28d
100
AcDbEntity
  8
Layer_1
 62
1
100
AcDbSpline
 70
8
 71
3
 72
8
 73
4
 74
0
 40
0
 40
0
 40
0
 40
0
 40
1
 40
1
 40
1
 40
1
 10
78.696922
 20
231.134385
 30
0.0
 10
80.541445
 20
231.134385
 30
0.0
 10
80.541445
 20
231.134385
 30
0.0
 10
82.385891
 20
231.134385
 30
0.0
  0
SPLINE
  5
28e
100
AcDbEntity
  8
Layer_1
 62
1
100
AcDbSpline
 70
8
 71
3
 72
8
 73
4
 74
0
 40
0
 40
0
 40
0
 40
0
 40
1
 40
1
 40
1
 40
1
 10
82.385891
 20
231.134385
 30
0.0
 10
83.886653
 20
229.633623
 30
0.0
 10
83.886653
 20
227.789177
 30
0.0
 10
83.886653
 20
227.789177
 30
0.0
  0
SPLINE
  5
28f
100
AcDbEntity
  8
Layer_1
 62
1
100
AcDbSpline
 70
8
 71
3
 72
8
 73
4
 74
0
 40
0
 40
0
 40
0
 40
0
 40
1
 40
1
 40
1
 40
1
 10
83.886653
 20
227.789177
 30
0.0
 10
83.886653
 20
226.527144
 30
0.0
 10
83.157075
 20
225.356599
 30
0.0
 10
82.024452
 20
224.794350
 30
0.0
  0
LWPOLYLINE
  5
290
100
AcDbEntity
  8
Layer_1
 62
1
100
AcDbPolyline
 90
2
 70
0
 10
82.009478
 20
224.789911
 30
0.0
 10
82.009478
 20
222.354249
 30
0.0
  0
LWPOLYLINE
  5
291
100
AcDbEntity
  8
Layer_1
 62
1
100
AcDbPolyline
 90
2
 70
0
 10
72.151263
 20
222.350334
 30
0.0
 10
79.073412
 20
222.350261
 30
0.0
  0
LWPOLYLINE
  5
292
100
AcDbEntity
  8
Layer_1
 62
1
100
AcDbPolyline
 90
2
 70
0
 10
102.304563
 20
222.350261
 30
0.0
 10
109.087373
 20
222.350261
 30
0.0
  0
LWPOLYLINE
  5
293
100
AcDbEntity
  8
Layer_1
 62
7
100
AcDbPolyline
 90
3
 70
0
 10
82.009478
 20
222.354249
 30
0.0
 10
99.368495
 20
222.354249
 30
0.0
 10
99.368495
 20
224.789911
 30
0.0
  0
SPLINE
  5
294
100
AcDbEntity
  8
Layer_1
 62
1
100
AcDbSpline
 70
8
 71
3
 72
8
 73
4
 74
0
 40
0
 40
0
 40
0
 40
0
 40
1
 40
1
 40
1
 40
1
 10
99.353450
 20
224.794350
 30
0.0
 10
98.220748
 20
225.356599
 30
0.0
 10
97.491246
 20
226.527144
 30
0.0
 10
97.491246
 20
227.789177
 30
0.0
  0
SPLINE
  5
295
100
AcDbEntity
  8
Layer_1
 62
1
100
AcDbSpline
 70
8
 71
3
 72
8
 73
4
 74
0
 40
0
 40
0
 40
0
 40
0
 40
1
 40
1
 40
1
 40
1
 10
97.491246
 20
227.789177
 30
0.0
 10
97.491246
 20
227.789177
 30
0.0
 10
97.491246
 20
229.633623
 30
0.0
 10
98.992008
 20
231.134385
 30
0.0
  0
SPLINE
  5
296
100
AcDbEntity
  8
Layer_1
 62
1
100
AcDbSpline
 70
8
 71
3
 72
8
 73
4
 74
0
 40
0
 40
0
 40
0
 40
0
 40
1
 40
1
 40
1
 40
1
 10
98.992008
 20
231.134385
 30
0.0
 10
100.836530
 20
231.134385
 30
0.0
 10
100.836530
 20
231.134385
 30
0.0
 10
102.680977
 20
231.134385
 30
0.0
  0
SPLINE
  5
297
100
AcDbEntity
  8
Layer_1
 62
1
100
AcDbSpline
 70
8
 71
3
 72
8
 73
4
 74
0
 40
0
 40
0
 40
0
 40
0
 40
1
 40
1
 40
1
 40
1
 10
102.680977
 20
231.134385
 30
0.0
 10
104.181739
 20
229.633623
 30
0.0
 10
104.181739
 20
227.789177
 30
0.0
 10
104.181739
 20
227.789177
 30
0.0
  0
SPLINE
  5
298
100
AcDbEntity
  8
Layer_1
 62
1
100
AcDbSpline
 70
8
 71
3
 72
8
 73
4
 74
0
 40
0
 40
0
 40
0
 40
0
 40
1
 40
1
 40
1
 40
1
 10
104.181739
 20
227.789177
 30
0.0
 10
104.181739
 20
226.527144
 30
0.0
 10
103.452160
 20
225.356599
 30
0.0
 10
102.319535
 20
224.794350
 30
0.0
  0
LWPOLYLINE
  5
299
100
AcDbEntity
  8
Layer_1
 62
1
100
AcDbPolyline
 90
2
 70
0
 10
102.304563
 20
224.789911
 30
0.0
 10
102.304563
 20
222.354249
 30
0.0
  0
LWPOLYLINE
  5
29a
100
AcDbEntity
  8
Layer_1
 62
1
100
AcDbPolyline
 90
2
 70
0
 10
159.357673
 20
156.910957
 30
0.0
 10
159.357673
 20
123.965139
 30
0.0
  0
LWPOLYLINE
  5
29b
100
AcDbEntity
  8
Layer_1
 62
1
100
AcDbPolyline
 90
2
 70
0
 10
164.080253
 20
156.910957
 30
0.0
 10
164.080253
 20
123.965139
 30
0.0
  0
LWPOLYLINE
  5
29c
100
AcDbEntity
  8
Layer_1
 62
1
100
AcDbPolyline
 90
2
 70
0
 10
162.506212
 20
156.910957
 30
0.0
 10
162.506212
 20
123.965139
 30
0.0
  0
LWPOLYLINE
  5
29d
100
AcDbEntity
  8
Layer_1
 62
1
100
AcDbPolyline
 90
2
 70
0
 10
160.931943
 20
156.910957
 30
0.0
 10
160.931943
 20
123.965139
 30
0.0
  0
LWPOLYLINE
  5
29e
100
AcDbEntity
  8
Layer_1
 62
1
100
AcDbPolyline
 90
2
 70
0
 10
170.377029
 20
156.910957
 30
0.0
 10
170.376879
 20
123.965139
 30
0.0
  0
LWPOLYLINE
  5
29f
100
AcDbEntity
  8
Layer_1
 62
1
100
AcDbPolyline
 90
2
 70
0
 10
171.951524
 20
156.910957
 30
0.0
 10
171.951374
 20
123.965139
 30
0.0
  0
LWPOLYLINE
  5
2a0
100
AcDbEntity
  8
Layer_1
 62
1
100
AcDbPolyline
 90
2
 70
0
 10
168.802912
 20
156.910957
 30
0.0
 10
168.802759
 20
123.965139
 30
0.0
  0
LWPOLYLINE
  5
2a1
100
AcDbEntity
  8
Layer_1
 62
1
100
AcDbPolyline
 90
2
 70
0
 10
167.228642
 20
156.910957
 30
0.0
 10
167.228642
 20
123.965139
 30
0.0
  0
LWPOLYLINE
  5
2a2
100
AcDbEntity
  8
Layer_1
 62
1
100
AcDbPolyline
 90
2
 70
0
 10
165.654522
 20
156.910957
 30
0.0
 10
165.654522
 20
123.965139
 30
0.0
  0
LWPOLYLINE
  5
2a3
100
AcDbEntity
  8
Layer_1
 62
1
100
AcDbPolyline
 90
2
 70
0
 10
164.867238
 20
158.691827
 30
0.0
 10
164.867238
 20
141.773776
 30
0.0
  0
LWPOLYLINE
  5
2a4
100
AcDbEntity
  8
Layer_1
 62
1
100
AcDbPolyline
 90
2
 70
0
 10
163.293121
 20
158.691827
 30
0.0
 10
163.293121
 20
141.773776
 30
0.0
  0
LWPOLYLINE
  5
2a5
100
AcDbEntity
  8
Layer_1
 62
1
100
AcDbPolyline
 90
2
 70
0
 10
161.718852
 20
158.691827
 30
0.0
 10
161.718852
 20
141.773776
 30
0.0
  0
LWPOLYLINE
  5
2a6
100
AcDbEntity
  8
Layer_1
 62
1
100
AcDbPolyline
 90
2
 70
0
 10
160.145034
 20
158.691827
 30
0.0
 10
160.145034
 20
141.773776
 30
0.0
  0
LWPOLYLINE
  5
2a7
100
AcDbEntity
  8
Layer_1
 62
1
100
AcDbPolyline
 90
2
 70
0
 10
171.164090
 20
158.691827
 30
0.0
 10
171.164014
 20
141.773776
 30
0.0
  0
LWPOLYLINE
  5
2a8
100
AcDbEntity
  8
Layer_1
 62
1
100
AcDbPolyline
 90
2
 70
0
 10
172.738357
 20
158.691827
 30
0.0
 10
172.738283
 20
141.773776
 30
0.0
  0
LWPOLYLINE
  5
2a9
100
AcDbEntity
  8
Layer_1
 62
1
100
AcDbPolyline
 90
2
 70
0
 10
169.590046
 20
158.691827
 30
0.0
 10
169.589970
 20
141.773776
 30
0.0
  0
LWPOLYLINE
  5
2aa
100
AcDbEntity
  8
Layer_1
 62
1
100
AcDbPolyline
 90
2
 70
0
 10
168.015777
 20
158.691827
 30
0.0
 10
168.015701
 20
141.773776
 30
0.0
  0
LWPOLYLINE
  5
2ab
100
AcDbEntity
  8
Layer_1
 62
1
100
AcDbPolyline
 90
2
 70
0
 10
163.293121
 20
138.743962
 30
0.0
 10
163.293121
 20
121.825536
 30
0.0
  0
LWPOLYLINE
  5
2ac
100
AcDbEntity
  8
Layer_1
 62
1
100
AcDbPolyline
 90
2
 70
0
 10
161.718852
 20
138.743962
 30
0.0
 10
161.718852
 20
121.825536
 30
0.0
  0
LWPOLYLINE
  5
2ad
100
AcDbEntity
  8
Layer_1
 62
1
100
AcDbPolyline
 90
2
 70
0
 10
160.145034
 20
138.743962
 30
0.0
 10
160.145034
 20
121.825536
 30
0.0
  0
LWPOLYLINE
  5
2ae
100
AcDbEntity
  8
Layer_1
 62
1
100
AcDbPolyline
 90
2
 70
0
 10
169.589970
 20
138.743962
 30
0.0
 10
169.589970
 20
121.825536
 30
0.0
  0
LWPOLYLINE
  5
2af
100
AcDbEntity
  8
Layer_1
 62
1
100
AcDbPolyline
 90
2
 70
0
 10
172.738283
 20
138.743962
 30
0.0
 10
172.738283
 20
121.825536
 30
0.0
  0
LWPOLYLINE
  5
2b0
100
AcDbEntity
  8
Layer_1
 62
1
100
AcDbPolyline
 90
2
 70
0
 10
171.164014
 20
138.743962
 30
0.0
 10
171.164014
 20
121.825536
 30
0.0
  0
LWPOLYLINE
  5
2b1
100
AcDbEntity
  8
Layer_1
 62
1
100
AcDbPolyline
 90
2
 70
0
 10
168.015701
 20
138.743962
 30
0.0
 10
168.015701
 20
121.825536
 30
0.0
  0
LWPOLYLINE
  5
2b2
100
AcDbEntity
  8
Layer_1
 62
1
100
AcDbPolyline
 90
2
 70
0
 10
166.441883
 20
138.743962
 30
0.0
 10
166.441883
 20
121.825536
 30
0.0
  0
LWPOLYLINE
  5
2b3
100
AcDbEntity
  8
Layer_1
 62
1
100
AcDbPolyline
 90
2
 70
0
 10
164.867238
 20
138.743962
 30
0.0
 10
164.867238
 20
121.825536
 30
0.0
  0
LWPOLYLINE
  5
2b4
100
AcDbEntity
  8
Layer_1
 62
1
100
AcDbPolyline
 90
2
 70
0
 10
166.441883
 20
158.691827
 30
0.0
 10
166.441883
 20
141.773776
 30
0.0
  0
SPLINE
  5
2b5
100
AcDbEntity
  8
Layer_1
 62
7
100
AcDbSpline
 70
8
 71
3
 72
8
 73
4
 74
0
 40
0
 40
0
 40
0
 40
0
 40
1
 40
1
 40
1
 40
1
 10
58.855295
 20
71.638523
 30
0.0
 10
58.855295
 20
71.638523
 30
0.0
 10
58.855295
 20
71.638523
 30
0.0
 10
72.236280
 20
71.638523
 30
0.0
  0
LWPOLYLINE
  5
2b6
100
AcDbEntity
  8
Layer_1
 62
7
100
AcDbPolyline
 90
2
 70
0
 10
58.855295
 20
58.257540
 30
0.0
 10
58.855295
 20
71.638523
 30
0.0
  0
SPLINE
  5
2b7
100
AcDbEntity
  8
Layer_1
 62
7
100
AcDbSpline
 70
8
 71
3
 72
8
 73
4
 74
0
 40
0
 40
0
 40
0
 40
0
 40
1
 40
1
 40
1
 40
1
 10
72.236280
 20
71.638523
 30
0.0
 10
72.236280
 20
58.257540
 30
0.0
 10
72.236280
 20
58.257540
 30
0.0
 10
72.236280
 20
58.257540
 30
0.0
  0
LWPOLYLINE
  5
2b8
100
AcDbEntity
  8
Layer_1
 62
7
100
AcDbPolyline
 90
2
 70
0
 10
72.236280
 20
71.638523
 30
0.0
 10
72.236280
 20
71.638523
 30
0.0
  0
LWPOLYLINE
  5
2b9
100
AcDbEntity
  8
Layer_1
 62
7
100
AcDbPolyline
 90
3
 70
0
 10
72.236280
 20
58.257540
 30
0.0
 10
58.855295
 20
58.257540
 30
0.0
 10
58.855295
 20
58.257540
 30
0.0
  0
LWPOLYLINE
  5
2ba
100
AcDbEntity
  8
Layer_1
 62
1
100
AcDbPolyline
 90
2
 70
0
 10
107.338253
 20
71.632429
 30
0.0
 10
74.392435
 20
71.632429
 30
0.0
  0
LWPOLYLINE
  5
2bb
100
AcDbEntity
  8
Layer_1
 62
1
100
AcDbPolyline
 90
2
 70
0
 10
107.338253
 20
66.909850
 30
0.0
 10
74.392435
 20
66.909850
 30
0.0
  0
LWPOLYLINE
  5
2bc
100
AcDbEntity
  8
Layer_1
 62
1
100
AcDbPolyline
 90
2
 70
0
 10
107.338253
 20
68.483891
 30
0.0
 10
74.392435
 20
68.483891
 30
0.0
  0
LWPOLYLINE
  5
2bd
100
AcDbEntity
  8
Layer_1
 62
1
100
AcDbPolyline
 90
2
 70
0
 10
107.338253
 20
70.058160
 30
0.0
 10
74.392435
 20
70.058160
 30
0.0
  0
LWPOLYLINE
  5
2be
100
AcDbEntity
  8
Layer_1
 62
1
100
AcDbPolyline
 90
2
 70
0
 10
107.338253
 20
60.613080
 30
0.0
 10
74.392435
 20
60.613221
 30
0.0
  0
LWPOLYLINE
  5
2bf
100
AcDbEntity
  8
Layer_1
 62
1
100
AcDbPolyline
 90
2
 70
0
 10
107.338253
 20
59.038590
 30
0.0
 10
74.392435
 20
59.038731
 30
0.0
  0
LWPOLYLINE
  5
2c0
100
AcDbEntity
  8
Layer_1
 62
1
100
AcDbPolyline
 90
2
 70
0
 10
107.338253
 20
62.187202
 30
0.0
 10
74.392435
 20
62.187343
 30
0.0
  0
LWPOLYLINE
  5
2c1
100
AcDbEntity
  8
Layer_1
 62
1
100
AcDbPolyline
 90
2
 70
0
 10
107.338253
 20
63.761466
 30
0.0
 10
74.392435
 20
63.761466
 30
0.0
  0
LWPOLYLINE
  5
2c2
100
AcDbEntity
  8
Layer_1
 62
1
100
AcDbPolyline
 90
2
 70
0
 10
107.338253
 20
65.335580
 30
0.0
 10
74.392435
 20
65.335580
 30
0.0
  0
LWPOLYLINE
  5
2c3
100
AcDbEntity
  8
Layer_1
 62
1
100
AcDbPolyline
 90
2
 70
0
 10
109.119123
 20
66.122865
 30
0.0
 10
92.201072
 20
66.122865
 30
0.0
  0
LWPOLYLINE
  5
2c4
100
AcDbEntity
  8
Layer_1
 62
1
100
AcDbPolyline
 90
2
 70
0
 10
109.119123
 20
67.696982
 30
0.0
 10
92.201072
 20
67.696982
 30
0.0
  0
LWPOLYLINE
  5
2c5
100
AcDbEntity
  8
Layer_1
 62
1
100
AcDbPolyline
 90
2
 70
0
 10
109.119123
 20
69.271251
 30
0.0
 10
92.201072
 20
69.271251
 30
0.0
  0
LWPOLYLINE
  5
2c6
100
AcDbEntity
  8
Layer_1
 62
1
100
AcDbPolyline
 90
2
 70
0
 10
109.119123
 20
70.845069
 30
0.0
 10
92.201072
 20
70.845069
 30
0.0
  0
LWPOLYLINE
  5
2c7
100
AcDbEntity
  8
Layer_1
 62
1
100
AcDbPolyline
 90
2
 70
0
 10
109.119123
 20
59.826018
 30
0.0
 10
92.201072
 20
59.826075
 30
0.0
  0
LWPOLYLINE
  5
2c8
100
AcDbEntity
  8
Layer_1
 62
1
100
AcDbPolyline
 90
2
 70
0
 10
109.119123
 20
61.400056
 30
0.0
 10
92.201072
 20
61.400141
 30
0.0
  0
LWPOLYLINE
  5
2c9
100
AcDbEntity
  8
Layer_1
 62
1
100
AcDbPolyline
 90
2
 70
0
 10
109.119123
 20
62.974320
 30
0.0
 10
92.201072
 20
62.974405
 30
0.0
  0
LWPOLYLINE
  5
2ca
100
AcDbEntity
  8
Layer_1
 62
1
100
AcDbPolyline
 90
2
 70
0
 10
89.171259
 20
67.696982
 30
0.0
 10
72.252832
 20
67.696982
 30
0.0
  0
LWPOLYLINE
  5
2cb
100
AcDbEntity
  8
Layer_1
 62
1
100
AcDbPolyline
 90
2
 70
0
 10
89.171259
 20
69.271251
 30
0.0
 10
72.252832
 20
69.271251
 30
0.0
  0
LWPOLYLINE
  5
2cc
100
AcDbEntity
  8
Layer_1
 62
1
100
AcDbPolyline
 90
2
 70
0
 10
89.171259
 20
70.845069
 30
0.0
 10
72.252832
 20
70.845069
 30
0.0
  0
LWPOLYLINE
  5
2cd
100
AcDbEntity
  8
Layer_1
 62
1
100
AcDbPolyline
 90
2
 70
0
 10
89.171259
 20
61.400141
 30
0.0
 10
72.252832
 20
61.400141
 30
0.0
  0
LWPOLYLINE
  5
2ce
100
AcDbEntity
  8
Layer_1
 62
1
100
AcDbPolyline
 90
2
 70
0
 10
89.171259
 20
59.826075
 30
0.0
 10
72.252832
 20
59.826075
 30
0.0
  0
LWPOLYLINE
  5
2cf
100
AcDbEntity
  8
Layer_1
 62
1
100
AcDbPolyline
 90
2
 70
0
 10
89.171259
 20
62.974405
 30
0.0
 10
72.252832
 20
62.974405
 30
0.0
  0
LWPOLYLINE
  5
2d0
100
AcDbEntity
  8
Layer_1
 62
1
100
AcDbPolyline
 90
2
 70
0
 10
89.171259
 20
64.548220
 30
0.0
 10
72.252832
 20
64.548220
 30
0.0
  0
LWPOLYLINE
  5
2d1
100
AcDbEntity
  8
Layer_1
 62
1
100
AcDbPolyline
 90
2
 70
0
 10
89.171259
 20
66.122865
 30
0.0
 10
72.252832
 20
66.122865
 30
0.0
  0
LWPOLYLINE
  5
2d2
100
AcDbEntity
  8
Layer_1
 62
1
100
AcDbPolyline
 90
2
 70
0
 10
109.119123
 20
64.548220
 30
0.0
 10
92.201072
 20
64.548220
 30
0.0
  0
LWPOLYLINE
  5
2d3
100
AcDbEntity
  8
Layer_1
 62
1
100
AcDbPolyline
 90
2
 70
0
 10
102.266793
 20
58.255282
 30
0.0
 10
102.266793
 20
55.819620
 30
0.0
  0
SPLINE
  5
2d4
100
AcDbEntity
  8
Layer_1
 62
1
100
AcDbSpline
 70
8
 71
3
 72
8
 73
4
 74
0
 40
0
 40
0
 40
0
 40
0
 40
1
 40
1
 40
1
 40
1
 10
102.281841
 20
55.815189
 30
0.0
 10
103.414543
 20
55.252918
 30
0.0
 10
104.144045
 20
54.082373
 30
0.0
 10
104.144045
 20
52.820360
 30
0.0
  0
SPLINE
  5
2d5
100
AcDbEntity
  8
Layer_1
 62
1
100
AcDbSpline
 70
8
 71
3
 72
8
 73
4
 74
0
 40
0
 40
0
 40
0
 40
0
 40
1
 40
1
 40
1
 40
1
 10
104.144045
 20
52.820360
 30
0.0
 10
104.144045
 20
52.820360
 30
0.0
 10
104.144045
 20
50.975896
 30
0.0
 10
102.643283
 20
49.475151
 30
0.0
  0
SPLINE
  5
2d6
100
AcDbEntity
  8
Layer_1
 62
1
100
AcDbSpline
 70
8
 71
3
 72
8
 73
4
 74
0
 40
0
 40
0
 40
0
 40
0
 40
1
 40
1
 40
1
 40
1
 10
102.643283
 20
49.475151
 30
0.0
 10
100.798761
 20
49.475151
 30
0.0
 10
100.798761
 20
49.475151
 30
0.0
 10
98.954314
 20
49.475151
 30
0.0
  0
SPLINE
  5
2d7
100
AcDbEntity
  8
Layer_1
 62
1
100
AcDbSpline
 70
8
 71
3
 72
8
 73
4
 74
0
 40
0
 40
0
 40
0
 40
0
 40
1
 40
1
 40
1
 40
1
 10
98.954314
 20
49.475151
 30
0.0
 10
97.453552
 20
50.975896
 30
0.0
 10
97.453552
 20
52.820360
 30
0.0
 10
97.453552
 20
52.820360
 30
0.0
  0
SPLINE
  5
2d8
100
AcDbEntity
  8
Layer_1
 62
1
100
AcDbSpline
 70
8
 71
3
 72
8
 73
4
 74
0
 40
0
 40
0
 40
0
 40
0
 40
1
 40
1
 40
1
 40
1
 10
97.453552
 20
52.820360
 30
0.0
 10
97.453552
 20
54.082373
 30
0.0
 10
98.183131
 20
55.252918
 30
0.0
 10
99.315756
 20
55.815189
 30
0.0
  0
LWPOLYLINE
  5
2d9
100
AcDbEntity
  8
Layer_1
 62
1
100
AcDbPolyline
 90
2
 70
0
 10
99.330728
 20
55.819620
 30
0.0
 10
99.330728
 20
58.255282
 30
0.0
  0
LWPOLYLINE
  5
2da
100
AcDbEntity
  8
Layer_1
 62
1
100
AcDbPolyline
 90
2
 70
0
 10
109.188945
 20
58.259205
 30
0.0
 10
102.266793
 20
58.259262
 30
0.0
  0
LWPOLYLINE
  5
2db
100
AcDbEntity
  8
Layer_1
 62
1
100
AcDbPolyline
 90
2
 70
0
 10
79.035643
 20
58.259262
 30
0.0
 10
72.252832
 20
58.259262
 30
0.0
  0
LWPOLYLINE
  5
2dc
100
AcDbEntity
  8
Layer_1
 62
7
100
AcDbPolyline
 90
3
 70
0
 10
99.330728
 20
58.255282
 30
0.0
 10
81.971711
 20
58.255282
 30
0.0
 10
81.971711
 20
55.819620
 30
0.0
  0
SPLINE
  5
2dd
100
AcDbEntity
  8
Layer_1
 62
1
100
AcDbSpline
 70
8
 71
3
 72
8
 73
4
 74
0
 40
0
 40
0
 40
0
 40
0
 40
1
 40
1
 40
1
 40
1
 10
81.986756
 20
55.815189
 30
0.0
 10
83.119458
 20
55.252918
 30
0.0
 10
83.848960
 20
54.082373
 30
0.0
 10
83.848960
 20
52.820360
 30
0.0
  0
SPLINE
  5
2de
100
AcDbEntity
  8
Layer_1
 62
1
100
AcDbSpline
 70
8
 71
3
 72
8
 73
4
 74
0
 40
0
 40
0
 40
0
 40
0
 40
1
 40
1
 40
1
 40
1
 10
83.848960
 20
52.820360
 30
0.0
 10
83.848960
 20
52.820360
 30
0.0
 10
83.848960
 20
50.975896
 30
0.0
 10
82.348198
 20
49.475151
 30
0.0
  0
SPLINE
  5
2df
100
AcDbEntity
  8
Layer_1
 62
1
100
AcDbSpline
 70
8
 71
3
 72
8
 73
4
 74
0
 40
0
 40
0
 40
0
 40
0
 40
1
 40
1
 40
1
 40
1
 10
82.348198
 20
49.475151
 30
0.0
 10
80.503675
 20
49.475151
 30
0.0
 10
80.503675
 20
49.475151
 30
0.0
 10
78.659229
 20
49.475151
 30
0.0
  0
SPLINE
  5
2e0
100
AcDbEntity
  8
Layer_1
 62
1
100
AcDbSpline
 70
8
 71
3
 72
8
 73
4
 74
0
 40
0
 40
0
 40
0
 40
0
 40
1
 40
1
 40
1
 40
1
 10
78.659229
 20
49.475151
 30
0.0
 10
77.158467
 20
50.975896
 30
0.0
 10
77.158467
 20
52.820360
 30
0.0
 10
77.158467
 20
52.820360
 30
0.0
  0
SPLINE
  5
2e1
100
AcDbEntity
  8
Layer_1
 62
1
100
AcDbSpline
 70
8
 71
3
 72
8
 73
4
 74
0
 40
0
 40
0
 40
0
 40
0
 40
1
 40
1
 40
1
 40
1
 10
77.158467
 20
52.820360
 30
0.0
 10
77.158467
 20
54.082373
 30
0.0
 10
77.888045
 20
55.252918
 30
0.0
 10
79.020671
 20
55.815189
 30
0.0
  0
LWPOLYLINE
  5
2e2
100
AcDbEntity
  8
Layer_1
 62
1
100
AcDbPolyline
 90
2
 70
0
 10
79.035643
 20
55.819620
 30
0.0
 10
79.035643
 20
58.255282
 30
0.0
  0
SPLINE
  5
2e3
100
AcDbEntity
  8
Layer_1
 62
7
100
AcDbSpline
 70
8
 71
3
 72
8
 73
4
 74
0
 40
0
 40
0
 40
0
 40
0
 40
1
 40
1
 40
1
 40
1
 10
22.017443
 20
172.110658
 30
0.0
 10
22.017443
 20
172.110658
 30
0.0
 10
22.017443
 20
172.110658
 30
0.0
 10
22.017443
 20
158.729670
 30
0.0
  0
LWPOLYLINE
  5
2e4
100
AcDbEntity
  8
Layer_1
 62
7
100
AcDbPolyline
 90
2
 70
0
 10
8.636457
 20
172.110658
 30
0.0
 10
22.017443
 20
172.110658
 30
0.0
  0
SPLINE
  5
2e5
100
AcDbEntity
  8
Layer_1
 62
7
100
AcDbSpline
 70
8
 71
3
 72
8
 73
4
 74
0
 40
0
 40
0
 40
0
 40
0
 40
1
 40
1
 40
1
 40
1
 10
22.017443
 20
158.729670
 30
0.0
 10
8.636457
 20
158.729670
 30
0.0
 10
8.636457
 20
158.729670
 30
0.0
 10
8.636457
 20
158.729670
 30
0.0
  0
LWPOLYLINE
  5
2e6
100
AcDbEntity
  8
Layer_1
 62
7
100
AcDbPolyline
 90
2
 70
0
 10
22.017443
 20
158.729670
 30
0.0
 10
22.017443
 20
158.729670
 30
0.0
  0
LWPOLYLINE
  5
2e7
100
AcDbEntity
  8
Layer_1
 62
7
100
AcDbPolyline
 90
3
 70
0
 10
8.636457
 20
158.729670
 30
0.0
 10
8.636457
 20
172.110658
 30
0.0
 10
8.636457
 20
172.110658
 30
0.0
  0
LWPOLYLINE
  5
2e8
100
AcDbEntity
  8
Layer_1
 62
1
100
AcDbPolyline
 90
2
 70
0
 10
22.011349
 20
123.627700
 30
0.0
 10
22.011349
 20
156.573515
 30
0.0
  0
LWPOLYLINE
  5
2e9
100
AcDbEntity
  8
Layer_1
 62
1
100
AcDbPolyline
 90
2
 70
0
 10
17.288767
 20
123.627700
 30
0.0
 10
17.288767
 20
156.573515
 30
0.0
  0
LWPOLYLINE
  5
2ea
100
AcDbEntity
  8
Layer_1
 62
1
100
AcDbPolyline
 90
2
 70
0
 10
18.862811
 20
123.627700
 30
0.0
 10
18.862811
 20
156.573515
 30
0.0
  0
LWPOLYLINE
  5
2eb
100
AcDbEntity
  8
Layer_1
 62
1
100
AcDbPolyline
 90
2
 70
0
 10
20.437080
 20
123.627700
 30
0.0
 10
20.437080
 20
156.573515
 30
0.0
  0
LWPOLYLINE
  5
2ec
100
AcDbEntity
  8
Layer_1
 62
1
100
AcDbPolyline
 90
2
 70
0
 10
10.991992
 20
123.627700
 30
0.0
 10
10.992143
 20
156.573515
 30
0.0
  0
LWPOLYLINE
  5
2ed
100
AcDbEntity
  8
Layer_1
 62
1
100
AcDbPolyline
 90
2
 70
0
 10
9.417497
 20
123.627700
 30
0.0
 10
9.417648
 20
156.573515
 30
0.0
  0
LWPOLYLINE
  5
2ee
100
AcDbEntity
  8
Layer_1
 62
1
100
AcDbPolyline
 90
2
 70
0
 10
12.566111
 20
123.627700
 30
0.0
 10
12.566261
 20
156.573515
 30
0.0
  0
LWPOLYLINE
  5
2ef
100
AcDbEntity
  8
Layer_1
 62
1
100
AcDbPolyline
 90
2
 70
0
 10
14.140380
 20
123.627700
 30
0.0
 10
14.140380
 20
156.573515
 30
0.0
  0
LWPOLYLINE
  5
2f0
100
AcDbEntity
  8
Layer_1
 62
1
100
AcDbPolyline
 90
2
 70
0
 10
15.714498
 20
123.627700
 30
0.0
 10
15.714498
 20
156.573515
 30
0.0
  0
LWPOLYLINE
  5
2f1
100
AcDbEntity
  8
Layer_1
 62
1
100
AcDbPolyline
 90
2
 70
0
 10
16.501783
 20
121.846827
 30
0.0
 10
16.501783
 20
138.764878
 30
0.0
  0
LWPOLYLINE
  5
2f2
100
AcDbEntity
  8
Layer_1
 62
1
100
AcDbPolyline
 90
2
 70
0
 10
18.075902
 20
121.846827
 30
0.0
 10
18.075902
 20
138.764878
 30
0.0
  0
LWPOLYLINE
  5
2f3
100
AcDbEntity
  8
Layer_1
 62
1
100
AcDbPolyline
 90
2
 70
0
 10
19.650171
 20
121.846827
 30
0.0
 10
19.650171
 20
138.764878
 30
0.0
  0
LWPOLYLINE
  5
2f4
100
AcDbEntity
  8
Layer_1
 62
1
100
AcDbPolyline
 90
2
 70
0
 10
21.223989
 20
121.846827
 30
0.0
 10
21.223989
 20
138.764878
 30
0.0
  0
LWPOLYLINE
  5
2f5
100
AcDbEntity
  8
Layer_1
 62
1
100
AcDbPolyline
 90
2
 70
0
 10
10.204933
 20
121.846827
 30
0.0
 10
10.205008
 20
138.764878
 30
0.0
  0
LWPOLYLINE
  5
2f6
100
AcDbEntity
  8
Layer_1
 62
1
100
AcDbPolyline
 90
2
 70
0
 10
11.778976
 20
121.846827
 30
0.0
 10
11.779052
 20
138.764878
 30
0.0
  0
LWPOLYLINE
  5
2f7
100
AcDbEntity
  8
Layer_1
 62
1
100
AcDbPolyline
 90
2
 70
0
 10
13.353245
 20
121.846827
 30
0.0
 10
13.353320
 20
138.764878
 30
0.0
  0
LWPOLYLINE
  5
2f8
100
AcDbEntity
  8
Layer_1
 62
1
100
AcDbPolyline
 90
2
 70
0
 10
18.075902
 20
141.794691
 30
0.0
 10
18.075902
 20
158.713118
 30
0.0
  0
LWPOLYLINE
  5
2f9
100
AcDbEntity
  8
Layer_1
 62
1
100
AcDbPolyline
 90
2
 70
0
 10
19.650171
 20
141.794691
 30
0.0
 10
19.650171
 20
158.713118
 30
0.0
  0
LWPOLYLINE
  5
2fa
100
AcDbEntity
  8
Layer_1
 62
1
100
AcDbPolyline
 90
2
 70
0
 10
21.223989
 20
141.794691
 30
0.0
 10
21.223989
 20
158.713118
 30
0.0
  0
LWPOLYLINE
  5
2fb
100
AcDbEntity
  8
Layer_1
 62
1
100
AcDbPolyline
 90
2
 70
0
 10
11.779052
 20
141.794691
 30
0.0
 10
11.779052
 20
158.713118
 30
0.0
  0
LWPOLYLINE
  5
2fc
100
AcDbEntity
  8
Layer_1
 62
1
100
AcDbPolyline
 90
2
 70
0
 10
10.205008
 20
141.794691
 30
0.0
 10
10.205008
 20
158.713118
 30
0.0
  0
LWPOLYLINE
  5
2fd
100
AcDbEntity
  8
Layer_1
 62
1
100
AcDbPolyline
 90
2
 70
0
 10
13.353320
 20
141.794691
 30
0.0
 10
13.353320
 20
158.713118
 30
0.0
  0
LWPOLYLINE
  5
2fe
100
AcDbEntity
  8
Layer_1
 62
1
100
AcDbPolyline
 90
2
 70
0
 10
14.927138
 20
141.794691
 30
0.0
 10
14.927138
 20
158.713118
 30
0.0
  0
LWPOLYLINE
  5
2ff
100
AcDbEntity
  8
Layer_1
 62
1
100
AcDbPolyline
 90
2
 70
0
 10
16.501783
 20
141.794691
 30
0.0
 10
16.501783
 20
158.713118
 30
0.0
  0
LWPOLYLINE
  5
300
100
AcDbEntity
  8
Layer_1
 62
1
100
AcDbPolyline
 90
2
 70
0
 10
14.927138
 20
121.846827
 30
0.0
 10
14.927138
 20
138.764878
 30
0.0
  0
LWPOLYLINE
  5
301
100
AcDbEntity
  8
Layer_1
 62
1
100
AcDbPolyline
 90
2
 70
0
 10
209.716001
 20
158.703186
 30
0.0
 10
202.660606
 20
158.698755
 30
0.0
  0
LWPOLYLINE
  5
302
100
AcDbEntity
  8
Layer_1
 62
1
100
AcDbPolyline
 90
2
 70
0
 10
179.682025
 20
158.698750
 30
0.0
 10
172.779888
 20
158.703265
 30
0.0
  0
LWPOLYLINE
  5
303
100
AcDbEntity
  8
Layer_1
 62
1
100
AcDbPolyline
 90
2
 70
0
 10
199.965297
 20
158.698750
 30
0.0
 10
182.377332
 20
158.698750
 30
0.0
  0
SPLINE
  5
304
100
AcDbEntity
  8
Layer_1
 62
1
100
AcDbSpline
 70
8
 71
3
 72
8
 73
4
 74
0
 40
0
 40
0
 40
0
 40
0
 40
1
 40
1
 40
1
 40
1
 10
179.682025
 20
156.169040
 30
0.0
 10
179.682025
 20
156.169040
 30
0.0
 10
179.682025
 20
156.169040
 30
0.0
 10
179.643578
 20
156.152332
 30
0.0
  0
SPLINE
  5
305
100
AcDbEntity
  8
Layer_1
 62
1
100
AcDbSpline
 70
8
 71
3
 72
8
 73
4
 74
0
 40
0
 40
0
 40
0
 40
0
 40
1
 40
1
 40
1
 40
1
 10
179.643578
 20
156.152335
 30
0.0
 10
178.535706
 20
155.620256
 30
0.0
 10
177.819821
 20
154.485149
 30
0.0
 10
177.819821
 20
153.260734
 30
0.0
  0
SPLINE
  5
306
100
AcDbEntity
  8
Layer_1
 62
1
100
AcDbSpline
 70
8
 71
3
 72
8
 73
4
 74
0
 40
0
 40
0
 40
0
 40
0
 40
1
 40
1
 40
1
 40
1
 10
177.819821
 20
153.260734
 30
0.0
 10
177.819821
 20
153.260734
 30
0.0
 10
177.819821
 20
151.490921
 30
0.0
 10
179.259792
 20
150.051026
 30
0.0
  0
SPLINE
  5
307
100
AcDbEntity
  8
Layer_1
 62
1
100
AcDbSpline
 70
8
 71
3
 72
8
 73
4
 74
0
 40
0
 40
0
 40
0
 40
0
 40
1
 40
1
 40
1
 40
1
 10
179.259792
 20
150.051026
 30
0.0
 10
181.029602
 20
150.051026
 30
0.0
 10
181.029602
 20
150.051026
 30
0.0
 10
182.799491
 20
150.051026
 30
0.0
  0
SPLINE
  5
308
100
AcDbEntity
  8
Layer_1
 62
1
100
AcDbSpline
 70
8
 71
3
 72
8
 73
4
 74
0
 40
0
 40
0
 40
0
 40
0
 40
1
 40
1
 40
1
 40
1
 10
182.799491
 20
150.051026
 30
0.0
 10
184.239460
 20
151.490921
 30
0.0
 10
184.239460
 20
153.260734
 30
0.0
 10
184.239460
 20
153.260734
 30
0.0
  0
SPLINE
  5
309
100
AcDbEntity
  8
Layer_1
 62
1
100
AcDbSpline
 70
8
 71
3
 72
8
 73
4
 74
0
 40
0
 40
0
 40
0
 40
0
 40
1
 40
1
 40
1
 40
1
 10
184.239460
 20
153.260734
 30
0.0
 10
184.239460
 20
154.485149
 30
0.0
 10
183.523501
 20
155.620256
 30
0.0
 10
182.415703
 20
156.152335
 30
0.0
  0
LWPOLYLINE
  5
30a
100
AcDbEntity
  8
Layer_1
 62
1
100
AcDbPolyline
 90
2
 70
0
 10
179.682025
 20
158.698750
 30
0.0
 10
179.682025
 20
156.169040
 30
0.0
  0
SPLINE
  5
30b
100
AcDbEntity
  8
Layer_1
 62
1
100
AcDbSpline
 70
8
 71
3
 72
8
 73
4
 74
0
 40
0
 40
0
 40
0
 40
0
 40
1
 40
1
 40
1
 40
1
 10
182.377332
 20
156.168958
 30
0.0
 10
182.377332
 20
156.168958
 30
0.0
 10
182.377332
 20
156.168958
 30
0.0
 10
182.377332
 20
158.698744
 30
0.0
  0
LWPOLYLINE
  5
30c
100
AcDbEntity
  8
Layer_1
 62
1
100
AcDbPolyline
 90
2
 70
0
 10
182.415703
 20
156.152335
 30
0.0
 10
182.377332
 20
156.168958
 30
0.0
  0
SPLINE
  5
30d
100
AcDbEntity
  8
Layer_1
 62
1
100
AcDbSpline
 70
8
 71
3
 72
8
 73
4
 74
0
 40
0
 40
0
 40
0
 40
0
 40
1
 40
1
 40
1
 40
1
 10
199.965297
 20
156.170770
 30
0.0
 10
199.965297
 20
156.170770
 30
0.0
 10
199.965297
 20
156.170770
 30
0.0
 10
199.926852
 20
156.152341
 30
0.0
  0
SPLINE
  5
30e
100
AcDbEntity
  8
Layer_1
 62
1
100
AcDbSpline
 70
8
 71
3
 72
8
 73
4
 74
0
 40
0
 40
0
 40
0
 40
0
 40
1
 40
1
 40
1
 40
1
 10
199.926852
 20
156.152335
 30
0.0
 10
198.818981
 20
155.620256
 30
0.0
 10
198.103096
 20
154.485149
 30
0.0
 10
198.103096
 20
153.260734
 30
0.0
  0
SPLINE
  5
30f
100
AcDbEntity
  8
Layer_1
 62
1
100
AcDbSpline
 70
8
 71
3
 72
8
 73
4
 74
0
 40
0
 40
0
 40
0
 40
0
 40
1
 40
1
 40
1
 40
1
 10
198.103096
 20
153.260734
 30
0.0
 10
198.103096
 20
153.260734
 30
0.0
 10
198.103096
 20
151.490921
 30
0.0
 10
199.543064
 20
150.051026
 30
0.0
  0
SPLINE
  5
310
100
AcDbEntity
  8
Layer_1
 62
1
100
AcDbSpline
 70
8
 71
3
 72
8
 73
4
 74
0
 40
0
 40
0
 40
0
 40
0
 40
1
 40
1
 40
1
 40
1
 10
199.543064
 20
150.051026
 30
0.0
 10
201.312877
 20
150.051026
 30
0.0
 10
201.312877
 20
150.051026
 30
0.0
 10
203.082763
 20
150.051026
 30
0.0
  0
SPLINE
  5
311
100
AcDbEntity
  8
Layer_1
 62
1
100
AcDbSpline
 70
8
 71
3
 72
8
 73
4
 74
0
 40
0
 40
0
 40
0
 40
0
 40
1
 40
1
 40
1
 40
1
 10
203.082763
 20
150.051026
 30
0.0
 10
204.522734
 20
151.490921
 30
0.0
 10
204.522734
 20
153.260734
 30
0.0
 10
204.522734
 20
153.260734
 30
0.0
  0
SPLINE
  5
312
100
AcDbEntity
  8
Layer_1
 62
1
100
AcDbSpline
 70
8
 71
3
 72
8
 73
4
 74
0
 40
0
 40
0
 40
0
 40
0
 40
1
 40
1
 40
1
 40
1
 10
204.522734
 20
153.260734
 30
0.0
 10
204.522734
 20
154.485149
 30
0.0
 10
203.806773
 20
155.620256
 30
0.0
 10
202.698977
 20
156.152335
 30
0.0
  0
LWPOLYLINE
  5
313
100
AcDbEntity
  8
Layer_1
 62
1
100
AcDbPolyline
 90
2
 70
0
 10
199.965297
 20
158.688214
 30
0.0
 10
199.965297
 20
156.170770
 30
0.0
  0
SPLINE
  5
314
100
AcDbEntity
  8
Layer_1
 62
1
100
AcDbSpline
 70
8
 71
3
 72
8
 73
4
 74
0
 40
0
 40
0
 40
0
 40
0
 40
1
 40
1
 40
1
 40
1
 10
202.660606
 20
156.170764
 30
0.0
 10
202.660606
 20
156.170764
 30
0.0
 10
202.660606
 20
156.170764
 30
0.0
 10
202.660606
 20
158.698744
 30
0.0
  0
LWPOLYLINE
  5
315
100
AcDbEntity
  8
Layer_1
 62
1
100
AcDbPolyline
 90
2
 70
0
 10
202.698977
 20
156.152335
 30
0.0
 10
202.660606
 20
156.170764
 30
0.0
  0
LWPOLYLINE
  5
316
100
AcDbEntity
  8
Layer_1
 62
1
100
AcDbPolyline
 90
2
 70
0
 10
209.570942
 20
121.867294
 30
0.0
 10
209.566511
 20
138.955982
 30
0.0
  0
LWPOLYLINE
  5
317
100
AcDbEntity
  8
Layer_1
 62
1
100
AcDbPolyline
 90
2
 70
0
 10
209.566502
 20
141.651365
 30
0.0
 10
209.571018
 20
158.703186
 30
0.0
  0
SPLINE
  5
318
100
AcDbEntity
  8
Layer_1
 62
1
100
AcDbSpline
 70
8
 71
3
 72
8
 73
4
 74
0
 40
0
 40
0
 40
0
 40
0
 40
1
 40
1
 40
1
 40
1
 10
207.061171
 20
141.651365
 30
0.0
 10
207.061171
 20
141.651365
 30
0.0
 10
207.061171
 20
141.651365
 30
0.0
 10
207.044463
 20
141.689812
 30
0.0
  0
SPLINE
  5
319
100
AcDbEntity
  8
Layer_1
 62
1
100
AcDbSpline
 70
8
 71
3
 72
8
 73
4
 74
0
 40
0
 40
0
 40
0
 40
0
 40
1
 40
1
 40
1
 40
1
 10
207.044469
 20
141.689812
 30
0.0
 10
206.512389
 20
142.797684
 30
0.0
 10
205.377280
 20
143.513569
 30
0.0
 10
204.152865
 20
143.513569
 30
0.0
  0
SPLINE
  5
31a
100
AcDbEntity
  8
Layer_1
 62
1
100
AcDbSpline
 70
8
 71
3
 72
8
 73
4
 74
0
 40
0
 40
0
 40
0
 40
0
 40
1
 40
1
 40
1
 40
1
 10
204.152865
 20
143.513569
 30
0.0
 10
204.152865
 20
143.513569
 30
0.0
 10
202.383055
 20
143.513569
 30
0.0
 10
200.943160
 20
142.073597
 30
0.0
  0
SPLINE
  5
31b
100
AcDbEntity
  8
Layer_1
 62
1
100
AcDbSpline
 70
8
 71
3
 72
8
 73
4
 74
0
 40
0
 40
0
 40
0
 40
0
 40
1
 40
1
 40
1
 40
1
 10
200.943160
 20
142.073597
 30
0.0
 10
200.943160
 20
140.303785
 30
0.0
 10
200.943160
 20
140.303785
 30
0.0
 10
200.943160
 20
138.533899
 30
0.0
  0
SPLINE
  5
31c
100
AcDbEntity
  8
Layer_1
 62
1
100
AcDbSpline
 70
8
 71
3
 72
8
 73
4
 74
0
 40
0
 40
0
 40
0
 40
0
 40
1
 40
1
 40
1
 40
1
 10
200.943160
 20
138.533899
 30
0.0
 10
202.383055
 20
137.093930
 30
0.0
 10
204.152865
 20
137.093930
 30
0.0
 10
204.152865
 20
137.093930
 30
0.0
  0
SPLINE
  5
31d
100
AcDbEntity
  8
Layer_1
 62
1
100
AcDbSpline
 70
8
 71
3
 72
8
 73
4
 74
0
 40
0
 40
0
 40
0
 40
0
 40
1
 40
1
 40
1
 40
1
 10
204.152865
 20
137.093930
 30
0.0
 10
205.377280
 20
137.093930
 30
0.0
 10
206.512389
 20
137.809889
 30
0.0
 10
207.044469
 20
138.917687
 30
0.0
  0
LWPOLYLINE
  5
31e
100
AcDbEntity
  8
Layer_1
 62
1
100
AcDbPolyline
 90
2
 70
0
 10
209.590881
 20
141.651365
 30
0.0
 10
207.061171
 20
141.651365
 30
0.0
  0
SPLINE
  5
31f
100
AcDbEntity
  8
Layer_1
 62
1
100
AcDbSpline
 70
8
 71
3
 72
8
 73
4
 74
0
 40
0
 40
0
 40
0
 40
0
 40
1
 40
1
 40
1
 40
1
 10
207.061091
 20
138.956058
 30
0.0
 10
207.061091
 20
138.956058
 30
0.0
 10
207.061091
 20
138.956058
 30
0.0
 10
209.590878
 20
138.956058
 30
0.0
  0
LWPOLYLINE
  5
320
100
AcDbEntity
  8
Layer_1
 62
1
100
AcDbPolyline
 90
2
 70
0
 10
207.044469
 20
138.917687
 30
0.0
 10
207.061091
 20
138.956058
 30
0.0
  0
LWPOLYLINE
  5
321
100
AcDbEntity
  8
Layer_1
 62
1
100
AcDbPolyline
 90
2
 70
0
 10
172.860618
 20
121.867217
 30
0.0
 10
179.916013
 20
121.871648
 30
0.0
  0
LWPOLYLINE
  5
322
100
AcDbEntity
  8
Layer_1
 62
1
100
AcDbPolyline
 90
2
 70
0
 10
202.894594
 20
121.871657
 30
0.0
 10
209.796731
 20
121.867141
 30
0.0
  0
LWPOLYLINE
  5
323
100
AcDbEntity
  8
Layer_1
 62
1
100
AcDbPolyline
 90
2
 70
0
 10
182.611322
 20
121.871657
 30
0.0
 10
200.199287
 20
121.871657
 30
0.0
  0
SPLINE
  5
324
100
AcDbEntity
  8
Layer_1
 62
1
100
AcDbSpline
 70
8
 71
3
 72
8
 73
4
 74
0
 40
0
 40
0
 40
0
 40
0
 40
1
 40
1
 40
1
 40
1
 10
202.894594
 20
124.401367
 30
0.0
 10
202.894594
 20
124.401367
 30
0.0
 10
202.894594
 20
124.401367
 30
0.0
 10
202.933041
 20
124.418074
 30
0.0
  0
SPLINE
  5
325
100
AcDbEntity
  8
Layer_1
 62
1
100
AcDbSpline
 70
8
 71
3
 72
8
 73
4
 74
0
 40
0
 40
0
 40
0
 40
0
 40
1
 40
1
 40
1
 40
1
 10
202.933041
 20
124.418069
 30
0.0
 10
204.040913
 20
124.950148
 30
0.0
 10
204.756798
 20
126.085257
 30
0.0
 10
204.756798
 20
127.309672
 30
0.0
  0
SPLINE
  5
326
100
AcDbEntity
  8
Layer_1
 62
1
100
AcDbSpline
 70
8
 71
3
 72
8
 73
4
 74
0
 40
0
 40
0
 40
0
 40
0
 40
1
 40
1
 40
1
 40
1
 10
204.756798
 20
127.309672
 30
0.0
 10
204.756798
 20
127.309672
 30
0.0
 10
204.756798
 20
129.079482
 30
0.0
 10
203.316827
 20
130.519377
 30
0.0
  0
SPLINE
  5
327
100
AcDbEntity
  8
Layer_1
 62
1
100
AcDbSpline
 70
8
 71
3
 72
8
 73
4
 74
0
 40
0
 40
0
 40
0
 40
0
 40
1
 40
1
 40
1
 40
1
 10
203.316827
 20
130.519377
 30
0.0
 10
201.547017
 20
130.519377
 30
0.0
 10
201.547017
 20
130.519377
 30
0.0
 10
199.777128
 20
130.519377
 30
0.0
  0
SPLINE
  5
328
100
AcDbEntity
  8
Layer_1
 62
1
100
AcDbSpline
 70
8
 71
3
 72
8
 73
4
 74
0
 40
0
 40
0
 40
0
 40
0
 40
1
 40
1
 40
1
 40
1
 10
199.777128
 20
130.519377
 30
0.0
 10
198.337160
 20
129.079482
 30
0.0
 10
198.337160
 20
127.309672
 30
0.0
 10
198.337160
 20
127.309672
 30
0.0
  0
SPLINE
  5
329
100
AcDbEntity
  8
Layer_1
 62
1
100
AcDbSpline
 70
8
 71
3
 72
8
 73
4
 74
0
 40
0
 40
0
 40
0
 40
0
 40
1
 40
1
 40
1
 40
1
 10
198.337160
 20
127.309672
 30
0.0
 10
198.337160
 20
126.085257
 30
0.0
 10
199.053118
 20
124.950148
 30
0.0
 10
200.160916
 20
124.418069
 30
0.0
  0
LWPOLYLINE
  5
32a
100
AcDbEntity
  8
Layer_1
 62
1
100
AcDbPolyline
 90
2
 70
0
 10
202.894594
 20
121.871657
 30
0.0
 10
202.894594
 20
124.401367
 30
0.0
  0
SPLINE
  5
32b
100
AcDbEntity
  8
Layer_1
 62
1
100
AcDbSpline
 70
8
 71
3
 72
8
 73
4
 74
0
 40
0
 40
0
 40
0
 40
0
 40
1
 40
1
 40
1
 40
1
 10
200.199287
 20
124.401446
 30
0.0
 10
200.199287
 20
124.401446
 30
0.0
 10
200.199287
 20
124.401446
 30
0.0
 10
200.199287
 20
121.871662
 30
0.0
  0
LWPOLYLINE
  5
32c
100
AcDbEntity
  8
Layer_1
 62
1
100
AcDbPolyline
 90
2
 70
0
 10
200.160916
 20
124.418069
 30
0.0
 10
200.199287
 20
124.401446
 30
0.0
  0
SPLINE
  5
32d
100
AcDbEntity
  8
Layer_1
 62
1
100
AcDbSpline
 70
8
 71
3
 72
8
 73
4
 74
0
 40
0
 40
0
 40
0
 40
0
 40
1
 40
1
 40
1
 40
1
 10
182.611322
 20
124.399637
 30
0.0
 10
182.611322
 20
124.399637
 30
0.0
 10
182.611322
 20
124.399637
 30
0.0
 10
182.649767
 20
124.418066
 30
0.0
  0
SPLINE
  5
32e
100
AcDbEntity
  8
Layer_1
 62
1
100
AcDbSpline
 70
8
 71
3
 72
8
 73
4
 74
0
 40
0
 40
0
 40
0
 40
0
 40
1
 40
1
 40
1
 40
1
 10
182.649767
 20
124.418069
 30
0.0
 10
183.757639
 20
124.950148
 30
0.0
 10
184.473523
 20
126.085257
 30
0.0
 10
184.473523
 20
127.309672
 30
0.0
  0
SPLINE
  5
32f
100
AcDbEntity
  8
Layer_1
 62
1
100
AcDbSpline
 70
8
 71
3
 72
8
 73
4
 74
0
 40
0
 40
0
 40
0
 40
0
 40
1
 40
1
 40
1
 40
1
 10
184.473523
 20
127.309672
 30
0.0
 10
184.473523
 20
127.309672
 30
0.0
 10
184.473523
 20
129.079482
 30
0.0
 10
183.033555
 20
130.519377
 30
0.0
  0
SPLINE
  5
330
100
AcDbEntity
  8
Layer_1
 62
1
100
AcDbSpline
 70
8
 71
3
 72
8
 73
4
 74
0
 40
0
 40
0
 40
0
 40
0
 40
1
 40
1
 40
1
 40
1
 10
183.033555
 20
130.519377
 30
0.0
 10
181.263742
 20
130.519377
 30
0.0
 10
181.263742
 20
130.519377
 30
0.0
 10
179.493856
 20
130.519377
 30
0.0
  0
SPLINE
  5
331
100
AcDbEntity
  8
Layer_1
 62
1
100
AcDbSpline
 70
8
 71
3
 72
8
 73
4
 74
0
 40
0
 40
0
 40
0
 40
0
 40
1
 40
1
 40
1
 40
1
 10
179.493856
 20
130.519377
 30
0.0
 10
178.053885
 20
129.079482
 30
0.0
 10
178.053885
 20
127.309672
 30
0.0
 10
178.053885
 20
127.309672
 30
0.0
  0
SPLINE
  5
332
100
AcDbEntity
  8
Layer_1
 62
1
100
AcDbSpline
 70
8
 71
3
 72
8
 73
4
 74
0
 40
0
 40
0
 40
0
 40
0
 40
1
 40
1
 40
1
 40
1
 10
178.053885
 20
127.309672
 30
0.0
 10
178.053885
 20
126.085257
 30
0.0
 10
178.769846
 20
124.950148
 30
0.0
 10
179.877642
 20
124.418069
 30
0.0
  0
LWPOLYLINE
  5
333
100
AcDbEntity
  8
Layer_1
 62
1
100
AcDbPolyline
 90
2
 70
0
 10
182.611322
 20
121.882189
 30
0.0
 10
182.611322
 20
124.399637
 30
0.0
  0
SPLINE
  5
334
100
AcDbEntity
  8
Layer_1
 62
1
100
AcDbSpline
 70
8
 71
3
 72
8
 73
4
 74
0
 40
0
 40
0
 40
0
 40
0
 40
1
 40
1
 40
1
 40
1
 10
179.916013
 20
124.399640
 30
0.0
 10
179.916013
 20
124.399640
 30
0.0
 10
179.916013
 20
124.399640
 30
0.0
 10
179.916013
 20
121.871659
 30
0.0
  0
LWPOLYLINE
  5
335
100
AcDbEntity
  8
Layer_1
 62
1
100
AcDbPolyline
 90
2
 70
0
 10
179.877642
 20
124.418069
 30
0.0
 10
179.916013
 20
124.399640
 30
0.0
  0
LWPOLYLINE
  5
336
100
AcDbEntity
  8
Layer_1
 62
1
100
AcDbPolyline
 90
2
 70
0
 10
8.638112
 20
121.777008
 30
0.0
 10
8.638187
 20
138.860579
 30
0.0
  0
LWPOLYLINE
  5
337
100
AcDbEntity
  8
Layer_1
 62
1
100
AcDbPolyline
 90
2
 70
0
 10
8.638187
 20
141.796647
 30
0.0
 10
8.638187
 20
158.713118
 30
0.0
  0
LWPOLYLINE
  5
338
100
AcDbEntity
  8
Layer_1
 62
1
100
AcDbPolyline
 90
2
 70
0
 10
8.634200
 20
138.860579
 30
0.0
 10
6.198537
 20
138.860579
 30
0.0
  0
SPLINE
  5
339
100
AcDbEntity
  8
Layer_1
 62
1
100
AcDbSpline
 70
8
 71
3
 72
8
 73
4
 74
0
 40
0
 40
0
 40
0
 40
0
 40
1
 40
1
 40
1
 40
1
 10
6.194098
 20
138.845534
 30
0.0
 10
5.631848
 20
137.712832
 30
0.0
 10
4.461303
 20
136.983330
 30
0.0
 10
3.199270
 20
136.983330
 30
0.0
  0
SPLINE
  5
33a
100
AcDbEntity
  8
Layer_1
 62
1
100
AcDbSpline
 70
8
 71
3
 72
8
 73
4
 74
0
 40
0
 40
0
 40
0
 40
0
 40
1
 40
1
 40
1
 40
1
 10
3.199270
 20
136.983330
 30
0.0
 10
3.199270
 20
136.983330
 30
0.0
 10
1.354823
 20
136.983330
 30
0.0
 10
-0.145939
 20
138.484092
 30
0.0
  0
SPLINE
  5
33b
100
AcDbEntity
  8
Layer_1
 62
1
100
AcDbSpline
 70
8
 71
3
 72
8
 73
4
 74
0
 40
0
 40
0
 40
0
 40
0
 40
1
 40
1
 40
1
 40
1
 10
-0.145939
 20
138.484092
 30
0.0
 10
-0.145939
 20
140.328615
 30
0.0
 10
-0.145939
 20
140.328615
 30
0.0
 10
-0.145939
 20
142.173061
 30
0.0
  0
SPLINE
  5
33c
100
AcDbEntity
  8
Layer_1
 62
1
100
AcDbSpline
 70
8
 71
3
 72
8
 73
4
 74
0
 40
0
 40
0
 40
0
 40
0
 40
1
 40
1
 40
1
 40
1
 10
-0.145939
 20
142.173061
 30
0.0
 10
1.354823
 20
143.673823
 30
0.0
 10
3.199270
 20
143.673823
 30
0.0
 10
3.199270
 20
143.673823
 30
0.0
  0
SPLINE
  5
33d
100
AcDbEntity
  8
Layer_1
 62
1
100
AcDbSpline
 70
8
 71
3
 72
8
 73
4
 74
0
 40
0
 40
0
 40
0
 40
0
 40
1
 40
1
 40
1
 40
1
 10
3.199270
 20
143.673823
 30
0.0
 10
4.461303
 20
143.673823
 30
0.0
 10
5.631848
 20
142.944245
 30
0.0
 10
6.194098
 20
141.811619
 30
0.0
  0
LWPOLYLINE
  5
33e
100
AcDbEntity
  8
Layer_1
 62
1
100
AcDbPolyline
 90
2
 70
0
 10
6.198537
 20
141.796647
 30
0.0
 10
8.634200
 20
141.796647
 30
0.0
  0
SPLINE
  5
33f
100
AcDbEntity
  8
Layer_1
 62
7
100
AcDbSpline
 70
8
 71
3
 72
8
 73
4
 74
0
 40
0
 40
0
 40
0
 40
0
 40
1
 40
1
 40
1
 40
1
 10
159.425237
 20
121.859995
 30
0.0
 10
159.425237
 20
121.859995
 30
0.0
 10
159.425237
 20
121.859995
 30
0.0
 10
172.806223
 20
121.859995
 30
0.0
  0
LWPOLYLINE
  5
340
100
AcDbEntity
  8
Layer_1
 62
7
100
AcDbPolyline
 90
2
 70
0
 10
159.425237
 20
108.479007
 30
0.0
 10
159.425237
 20
121.859995
 30
0.0
  0
SPLINE
  5
341
100
AcDbEntity
  8
Layer_1
 62
7
100
AcDbSpline
 70
8
 71
3
 72
8
 73
4
 74
0
 40
0
 40
0
 40
0
 40
0
 40
1
 40
1
 40
1
 40
1
 10
172.806223
 20
121.859995
 30
0.0
 10
172.806223
 20
108.479007
 30
0.0
 10
172.806223
 20
108.479007
 30
0.0
 10
172.806223
 20
108.479007
 30
0.0
  0
LWPOLYLINE
  5
342
100
AcDbEntity
  8
Layer_1
 62
7
100
AcDbPolyline
 90
2
 70
0
 10
172.806223
 20
121.859995
 30
0.0
 10
172.806223
 20
121.859995
 30
0.0
  0
LWPOLYLINE
  5
343
100
AcDbEntity
  8
Layer_1
 62
7
100
AcDbPolyline
 90
3
 70
0
 10
172.806223
 20
108.479007
 30
0.0
 10
159.425237
 20
108.479007
 30
0.0
 10
159.425237
 20
108.479007
 30
0.0
  0
SPLINE
  5
344
100
AcDbEntity
  8
Layer_1
 62
7
100
AcDbSpline
 70
8
 71
3
 72
8
 73
4
 74
0
 40
0
 40
0
 40
0
 40
0
 40
1
 40
1
 40
1
 40
1
 10
159.425237
 20
172.085904
 30
0.0
 10
159.425237
 20
172.085904
 30
0.0
 10
159.425237
 20
172.085904
 30
0.0
 10
172.806223
 20
172.085904
 30
0.0
  0
LWPOLYLINE
  5
345
100
AcDbEntity
  8
Layer_1
 62
7
100
AcDbPolyline
 90
2
 70
0
 10
159.425237
 20
158.704919
 30
0.0
 10
159.425237
 20
172.085904
 30
0.0
  0
SPLINE
  5
346
100
AcDbEntity
  8
Layer_1
 62
7
100
AcDbSpline
 70
8
 71
3
 72
8
 73
4
 74
0
 40
0
 40
0
 40
0
 40
0
 40
1
 40
1
 40
1
 40
1
 10
172.806223
 20
172.085904
 30
0.0
 10
172.806223
 20
158.704919
 30
0.0
 10
172.806223
 20
158.704919
 30
0.0
 10
172.806223
 20
158.704919
 30
0.0
  0
LWPOLYLINE
  5
347
100
AcDbEntity
  8
Layer_1
 62
7
100
AcDbPolyline
 90
2
 70
0
 10
172.806223
 20
172.085904
 30
0.0
 10
172.806223
 20
172.085904
 30
0.0
  0
LWPOLYLINE
  5
348
100
AcDbEntity
  8
Layer_1
 62
7
100
AcDbPolyline
 90
3
 70
0
 10
172.806223
 20
158.704919
 30
0.0
 10
159.425237
 20
158.704919
 30
0.0
 10
159.425237
 20
158.704919
 30
0.0
  0
LWPOLYLINE
  5
349
100
AcDbEntity
  8
Layer_1
 62
7
100
AcDbPolyline
 90
7
 70
0
 10
58.870343
 20
208.979280
 30
0.0
 10
72.251328
 20
208.979280
 30
0.0
 10
72.251328
 20
222.360266
 30
0.0
 10
58.870343
 20
222.360266
 30
0.0
 10
58.870343
 20
208.979280
 30
0.0
 10
58.870343
 20
208.979280
 30
0.0
 10
58.870343
 20
208.979280
 30
0.0
  0
SPLINE
  5
34a
100
AcDbEntity
  8
Layer_1
 62
7
100
AcDbSpline
 70
8
 71
3
 72
8
 73
4
 74
0
 40
0
 40
0
 40
0
 40
0
 40
1
 40
1
 40
1
 40
1
 10
21.958833
 20
121.872334
 30
0.0
 10
21.958833
 20
121.872334
 30
0.0
 10
21.958833
 20
121.872334
 30
0.0
 10
21.958833
 20
108.491349
 30
0.0
  0
LWPOLYLINE
  5
34b
100
AcDbEntity
  8
Layer_1
 62
7
100
AcDbPolyline
 90
2
 70
0
 10
8.577847
 20
121.872334
 30
0.0
 10
21.958833
 20
121.872334
 30
0.0
  0
SPLINE
  5
34c
100
AcDbEntity
  8
Layer_1
 62
7
100
AcDbSpline
 70
8
 71
3
 72
8
 73
4
 74
0
 40
0
 40
0
 40
0
 40
0
 40
1
 40
1
 40
1
 40
1
 10
21.958833
 20
108.491349
 30
0.0
 10
8.577847
 20
108.491349
 30
0.0
 10
8.577847
 20
108.491349
 30
0.0
 10
8.577847
 20
108.491349
 30
0.0
  0
LWPOLYLINE
  5
34d
100
AcDbEntity
  8
Layer_1
 62
7
100
AcDbPolyline
 90
2
 70
0
 10
21.958833
 20
108.491349
 30
0.0
 10
21.958833
 20
108.491349
 30
0.0
  0
LWPOLYLINE
  5
34e
100
AcDbEntity
  8
Layer_1
 62
7
100
AcDbPolyline
 90
3
 70
0
 10
8.577847
 20
108.491349
 30
0.0
 10
8.577847
 20
121.872334
 30
0.0
 10
8.577847
 20
121.872334
 30
0.0
  0
SPLINE
  5
34f
100
AcDbEntity
  8
Layer_1
 62
7
100
AcDbSpline
 70
8
 71
3
 72
8
 73
4
 74
0
 40
0
 40
0
 40
0
 40
0
 40
1
 40
1
 40
1
 40
1
 10
109.110095
 20
71.649509
 30
0.0
 10
109.110095
 20
71.649509
 30
0.0
 10
109.110095
 20
71.649509
 30
0.0
 10
122.491080
 20
71.649509
 30
0.0
  0
LWPOLYLINE
  5
350
100
AcDbEntity
  8
Layer_1
 62
7
100
AcDbPolyline
 90
2
 70
0
 10
109.110095
 20
58.268519
 30
0.0
 10
109.110095
 20
71.649509
 30
0.0
  0
SPLINE
  5
351
100
AcDbEntity
  8
Layer_1
 62
7
100
AcDbSpline
 70
8
 71
3
 72
8
 73
4
 74
0
 40
0
 40
0
 40
0
 40
0
 40
1
 40
1
 40
1
 40
1
 10
122.491080
 20
71.649509
 30
0.0
 10
122.491080
 20
58.268519
 30
0.0
 10
122.491080
 20
58.268519
 30
0.0
 10
122.491080
 20
58.268519
 30
0.0
  0
LWPOLYLINE
  5
352
100
AcDbEntity
  8
Layer_1
 62
7
100
AcDbPolyline
 90
2
 70
0
 10
122.491080
 20
71.649509
 30
0.0
 10
122.491080
 20
71.649509
 30
0.0
  0
LWPOLYLINE
  5
353
100
AcDbEntity
  8
Layer_1
 62
7
100
AcDbPolyline
 90
3
 70
0
 10
122.491080
 20
58.268519
 30
0.0
 10
109.110095
 20
58.268519
 30
0.0
 10
109.110095
 20
58.268519
 30
0.0
  0
ENDSEC
  0
SECTION
  2
OBJECTS
  0
DICTIONARY
  5
C
330
0
100
AcDbDictionary
  3
ACAD_GROUP
350
D
  3
ACAD_MLINESTYLE
350
17
  0
DICTIONARY
  5
D
330
C
100
AcDbDictionary
  0
DICTIONARY
  5
1A
330
C
100
AcDbDictionary
  0
DICTIONARY
  5
17
330
C
100
AcDbDictionary
  3
STANDARD
350
18
  0
DICTIONARY
  5
19
330
C
100
AcDbDictionary
  0
ENDSEC
  0
EOF
